<svg id="awwwards-logo" width="100%" viewBox="0 0 221.9 25.2">
<path id="logo" d="M17.8,14.3l-6.1,0l2.1-6.2c0.5-1.3,1-3.6,1-3.6h0.1c0,0,0.5,2.3,0.9,3.6L17.8,14.3z M20.8,23.7l4.3,0
	L17.1,0.5l-4.4,0L4.4,23.7l4.4,0l2-5.9l8.1,0L20.8,23.7z M51.3,23.8l6.1-23.2l-4.4,0l-3.9,16.1c-0.3,1.3-0.4,2.5-0.4,2.5l-0.1,0
	c0,0-0.1-1.1-0.4-2.4L44.1,0.6l-3.7,0l-4.2,16.1c-0.4,1.3-0.4,2.4-0.4,2.4h-0.1c0,0-0.1-1.1-0.4-2.4L31.8,0.6l-4.3,0l5.7,23.2l4.9,0
	l3.6-13.7c0.4-1.5,0.6-3,0.6-3l0.1,0c0,0,0.2,1.5,0.6,3l3.5,13.7L51.3,23.8z M77.5,23.9l6.1-23.2l-4.4,0l-3.9,16.1
	c-0.3,1.3-0.4,2.4-0.4,2.4h-0.1c0,0-0.1-1.1-0.4-2.5L70.4,0.7l-3.7,0l-4.2,16.1c-0.4,1.3-0.4,2.4-0.4,2.4H62c0,0-0.1-1.1-0.4-2.4
	l-2.7-12l-2.1,8.8l2.6,10.4l4.9,0l3.6-13.7c0.4-1.5,0.6-3,0.6-3h0.1c0,0,0.2,1.5,0.6,3l3.5,13.7L77.5,23.9z M103.7,24l6.1-23.2
	l-4.4,0l-3.9,16.1c-0.3,1.3-0.4,2.4-0.4,2.4l-0.1,0c0,0-0.1-1.1-0.4-2.4L96.6,0.8l-3.7,0l-4.2,16.1c-0.4,1.3-0.4,2.5-0.4,2.4l-0.1,0
	c0,0-0.1-1.2-0.4-2.5L85.1,4.7L83,13.5L85.6,24l4.9,0L94,10.3c0.4-1.5,0.6-3,0.6-3l0.1,0c0,0,0.2,1.5,0.6,3L98.8,24L103.7,24z
	 M125.3,14.7l-6.1,0l2.1-6.2c0.5-1.3,1-3.6,1-3.6l0.1,0c0,0,0.5,2.3,0.9,3.6L125.3,14.7z M128.3,24.1l4.4,0l-8.1-23.2l-4.4,0
	L111.8,24l4.3,0l2-5.9l8.1,0L128.3,24.1z M150.6,8.2c0,2.3-1.4,3.7-3.7,3.6l-3.8,0l0-7.3l3.2,0C149.6,4.6,150.6,6,150.6,8.2
	 M150.9,14.4L150.9,14.4c2.5-1.1,3.9-3.6,3.9-6.4c0-3.1-1.5-5.3-3.8-6.4c-1-0.5-2.2-0.7-4.7-0.7l-7.5,0l-0.1,23.2l4.2,0l0-8.7l4.1,0
	l4.6,8.7l4.7,0l-4.7-8.7C151.3,14.7,150.9,14.4,150.9,14.4 M179.1,12.6c0,5.2-3,8-7.7,8l-3.5,0l0.1-16l3.5,0
	C176,4.7,179.1,7.5,179.1,12.6 M183.4,12.6c0-7.3-4.6-11.6-11.8-11.6l-7.9,0l-0.1,23.2l7.9,0C178.7,24.3,183.4,20,183.4,12.6
	 M193.5,7.4c0-1.6,1.6-2.8,3.5-2.8c2.9,0,5.1,2,5.1,2l1.9-3.4c0,0-2.4-2.5-6.9-2.5c-4.4,0-7.8,2.8-7.8,6.7c0,7.1,10.9,6.4,10.9,10.6
	c0,1.9-1.6,2.8-3.4,2.8c-3.3,0-5.8-2.5-5.8-2.5l-2.3,3.2c0,0,2.8,3.2,8,3.2c4.8,0,7.7-3.1,7.7-6.8C204.4,10.5,193.5,11.5,193.5,7.4
	 M213.7,5.1l-0.9,0l0-1.7l0.9,0c0.5,0,0.8,0.3,0.8,0.9C214.5,4.8,214.2,5.1,213.7,5.1 M214.2,5.4L214.2,5.4c0.5-0.1,0.9-0.6,0.9-1.2
	c0-0.8-0.5-1.3-1.3-1.3l-1.5,0l0,4.5h0.5l0-1.9h1l1,1.9h0.6l-0.9-1.7C214.2,5.5,214.2,5.4,214.2,5.4 M217,5.2c0,2-1.5,3.6-3.5,3.6
	c-1.9,0-3.4-1.6-3.4-3.6c0-2,1.5-3.6,3.5-3.6C215.5,1.6,217,3.2,217,5.2 M217.5,5.2c0-2.3-1.7-4.1-4-4.1c-2.2,0-4,1.8-4,4
	c0,2.3,1.8,4.1,3.9,4.1C215.7,9.2,217.5,7.4,217.5,5.2"/>
</svg>
