<svg version="1.1" id="Layer_1" xmlns="http://www.w3.org/2000/svg" xmlns:xlink="http://www.w3.org/1999/xlink" width="100%" viewBox="0 0 439.759 102.93">
<g>
	<path fill="#010101" d="M52.024,8.925v1.439c0,0.983-1.287,1.438-1.742,0.529c-1.969-2.801-5.225-4.316-9.541-4.316
		c-6.513,0-11.359,4.316-11.359,10.071c0,4.543,1.893,6.815,6.966,8.935c1.591,0.758,3.938,1.592,6.589,2.652
		c6.89,2.574,10.071,4.846,11.736,8.632c0.682,1.515,0.985,3.18,0.985,4.922c0,8.102-6.664,14.009-15.978,14.009
		c-3.407,0-7.875-0.985-10.298-2.197l-0.455-0.152c-1.666-0.833-3.483-1.741-3.483-3.559v-1.21c0-1.289,1.59-1.439,2.499-0.53
		c2.574,2.953,6.36,4.466,10.979,4.466c7.119,0,12.268-4.315,12.268-10.374c0-2.953-1.363-5.679-3.256-7.118
		c-1.589-1.136-3.635-2.196-10.298-4.544c-6.89-2.575-9.617-4.467-11.434-8.177c-0.833-1.666-1.288-3.482-1.288-5.452
		c0-7.724,6.665-13.63,15.675-13.63c2.877,0,4.771,0.454,7.875,1.817C50.131,5.896,52.024,7.032,52.024,8.925"/>
	<path fill="#010101" d="M80.795,4.306c1.895,0,3.636,1.211,4.316,2.953L101.999,50.8l0.531,1.514
		c0.076,0.302,0.151,0.605,0.302,0.758c0.454,0.757,0.152,1.741-0.681,1.741h-3.333c-0.833,0-0.833-1.06-0.833-1.893
		c0-0.377-0.075-0.605-0.605-2.12l-5.376-14.009c-0.151-0.379-0.531-0.683-0.909-0.683H71.256c-0.456,0-0.758,0.304-0.91,0.683
		l-5.3,14.009c-0.302,0.833-0.455,1.287-0.455,1.743c0,1.06-0.226,2.27-1.211,2.27h-1.893c-0.909,0-1.288-0.984-0.833-1.741
		c0.378-0.683,0.682-1.516,1.211-2.878L78.07,8.167c0.303-0.682,0.455-1.288,0.455-1.817c0-0.984,0.53-2.044,1.514-2.044H80.795z
		 M71.785,32.475c-0.151,0.302,0.075,0.605,0.378,0.605h17.795c0.302,0,0.529-0.303,0.378-0.605L81.25,9.379
		c-0.075-0.303-0.378-0.303-0.53,0L71.785,32.475z"/>
	<path fill="#010101" d="M148.721,54.813c0,0.152,0,0.304-0.151,0.379c-1.968,1.666-4.088-1.211-5.526-3.256l-28.474-40.739
		c-0.151-0.303-0.529-0.152-0.529,0.151v39.906c0,0.605,0.076,1.06,0.151,1.438c0.152,0.91,0.152,2.12-0.757,2.12h-1.818
		c-0.833,0-1.061-0.908-0.833-1.666c0.303-0.53,0.228-1.211,0.228-2.271V7.713V6.956c-0.076-1.515,0.303-3.18,1.742-3.331
		c0.985-0.077,1.893,0.076,2.347,0.681l30.139,43.239c0.15,0.227,0.453,0.074,0.453-0.227V8.319c0-0.833-0.075-1.59-0.302-2.121
		c-0.303-0.833,0.227-1.893,1.212-1.893h1.06c1.211,0,1.362,1.363,1.211,2.423c-0.076,0.454-0.152,0.984-0.152,1.59V54.813z"/>
	<path fill="#010101" d="M162.726,7.031c-0.151-1.288,0.456-2.726,1.742-2.726h7.043c8.48,0,13.781,1.363,18.779,4.846
		c6.588,4.544,10.525,12.115,10.525,20.143c0,9.086-4.77,17.417-12.494,21.809c-4.846,2.65-9.542,3.71-17.568,3.71h-6.285
		c-1.136,0-1.893-1.438-1.742-2.65v-0.756V7.865V7.031z M166.967,50.951c0,0.456,0.454,0.909,0.908,0.909h3.938
		c6.588,0,11.964-1.59,15.979-4.619c5.224-3.938,8.556-11.055,8.556-17.947c0-6.891-3.18-13.404-8.48-17.417
		c-4.317-3.255-9.012-4.542-16.433-4.542h-3.559c-0.455,0-0.908,0.378-0.908,0.832V50.951z"/>
	<path fill="#010101" d="M212.751,4.306h1.665c0.985,0,1.516,0.984,1.363,1.969c0,0.377-0.075,0.832-0.075,1.439v43.693
		c0,0.529,0.075,1.06,0.075,1.438c0.152,0.984-0.378,1.968-1.363,1.968h-1.665c-0.909,0-1.514-1.06-1.363-2.044
		c0.076-0.379,0.076-0.833,0.076-1.362V7.714c0-0.607,0-1.062-0.076-1.439C211.237,5.29,211.842,4.306,212.751,4.306"/>
	<path fill="#010101" d="M234.633,29.638c-0.53,0-0.909,0.378-0.909,0.833v20.066c0,0.454,0.379,0.909,0.909,0.909h20.142
		c0.985,0,1.742-0.075,2.349-0.302c1.287-0.379,2.878-0.457,3.029,0.757c0.151,1.287,0,2.499-0.834,2.499h-28.093
		c-1.212,0-1.893-1.287-1.742-2.499v-0.683V7.072V6.314c-0.15-1.211,0.53-2.424,1.742-2.424h26.881c0.833,0,0.909,1.06,0.759,2.348
		c-0.151,1.135-1.742,1.135-3.029,0.757c-0.379-0.076-0.833-0.151-1.363-0.151h-19.84c-0.53,0-0.909,0.455-0.909,0.909v17.946
		c0,0.455,0.379,0.909,0.909,0.909h18.022c0.228,0,0.379-0.076,0.529-0.076c1.137-0.151,2.499,0.151,2.499,1.288v0.455
		c0,1.135-1.514,1.59-2.727,1.363h-0.68H234.633z"/>
	<path fill="#010101" d="M322.585,54.813c-0.228,0.152-0.53,0.303-0.833,0.379c-0.606,0.227-1.287,0.378-2.196,0.303
		c-1.894-0.152-3.786-0.984-4.846-2.575l-11.436-17.265c-1.59-2.499-4.24-3.861-7.192-3.861h-4.09c-0.454,0-0.909,0.379-0.909,0.909
		v18.704c0,0.604,0.076,1.059,0.076,1.438c0.151,0.985-0.379,1.969-1.363,1.969h-1.591c-0.982,0-1.59-0.984-1.438-1.969
		c0.076-0.378,0.076-0.833,0.076-1.438V7.486V6.729c-0.151-1.211,0.606-2.422,1.817-2.422h11.283c6.36,0,9.919,0.605,12.873,2.499
		c3.938,2.347,6.284,6.663,6.284,11.434c0,4.392-2.196,8.708-5.528,10.979c-2.044,1.29-3.785,1.819-7.497,2.197
		c-0.377,0-0.832,0.454-0.529,0.833l12.873,18.629c1.287,1.817,1.818,2.499,2.35,2.953
		C321.146,54.132,321.524,54.359,322.585,54.813 M300.169,28.688c5.982,0,8.028-0.377,10.072-1.742
		c2.575-1.666,4.393-5.225,4.393-8.708c0-3.333-1.59-6.74-4.089-8.481c-2.424-1.742-5.452-2.423-10.527-2.423h-8.025
		c-0.454,0-0.909,0.303-0.909,0.909V27.78c0,0.531,0.455,0.909,0.909,0.909H300.169z"/>
	<path fill="#010101" d="M327.049,29.749c0-14.842,10.45-26.428,23.854-26.428c13.326,0,23.775,11.585,23.775,26.352
		c0,14.616-10.525,26.126-23.852,26.126C337.574,55.799,327.049,44.289,327.049,29.749 M331.518,29.598
		c0,12.872,8.557,23.02,19.31,23.02c10.829,0,19.309-10.147,19.309-23.02c0-12.873-8.479-23.021-19.309-23.021
		C340.074,6.577,331.518,16.725,331.518,29.598"/>
	<path fill="#010101" d="M399.21,51.407c0,0.604-0.075,1.06,0.074,1.438c0.152,0.984-0.377,1.968-1.362,1.968h-1.667
		c-0.983,0-1.513-0.984-1.361-1.968c0.075-0.378,0.075-0.833,0.075-1.438V37.775c0-0.53-0.15-1.136-0.377-1.667L380.203,6.956
		c-0.228-0.378-0.304-0.681-0.606-0.908c-0.528-0.682-0.303-1.742,0.455-1.742h3.18c0.984,0,1.137,1.211,1.515,2.12
		c0,0.227,0.153,0.606,0.455,0.983l12.267,25.368c0.152,0.303,0.605,0.303,0.758,0l11.964-24.761
		c0.151-0.302,0.304-0.531,0.304-0.833c0.378-1.211,0.605-2.877,1.815-2.877h1.668c0.832,0,1.136,1.06,0.605,1.816
		c-0.378,0.53-0.757,1.363-1.363,2.499l-13.632,27.487c-0.303,0.531-0.377,1.136-0.377,1.667V51.407z"/>
	<rect x="8.169" y="1.912" fill="none" width="423.42" height="99.106"/>
	<path fill="#010101" d="M199.208,79.06c0,1.741-0.984,3.454-2.421,4.21c-1.184,0.581-2.219,0.782-4.614,0.782h-2.143
		c-0.05,0-0.1,0.076-0.1,0.151V89.8c0,0.102,0.025,0.201,0.025,0.303v0.15c0,0.379-0.176,0.807-0.631,0.807h-0.53
		c-0.377,0-0.629-0.327-0.629-0.681v-0.126c0.025-0.15,0.025-0.252,0.025-0.453V75.178c0-0.454,0.227-0.958,0.756-0.958h3.354
		c2.823,0,4.084,0.253,5.093,1.033C198.501,76.036,199.208,77.573,199.208,79.06 M197.393,79.112c0-0.984-0.605-2.244-1.286-2.875
		c-0.732-0.58-1.437-0.706-3.807-0.706h-2.269c-0.05,0-0.1,0.075-0.1,0.126v7.009c0,0.075,0.05,0.126,0.1,0.126h2.017
		c2.345,0,2.924-0.126,3.782-0.705C196.788,81.406,197.393,80.247,197.393,79.112"/>
	<path fill="#010101" d="M209.115,74.219c0.706,0,1.335,0.455,1.587,1.084l5.522,14.245l0.175,0.505
		c0.026,0.125,0.051,0.176,0.076,0.226c0.05,0.101,0.075,0.202,0.075,0.303c0,0.252-0.151,0.479-0.453,0.479h-1.084
		c-0.43,0-0.43-0.428-0.43-0.755c0-0.052-0.1-0.354-0.202-0.655c-0.579-1.487-1.208-3.127-1.738-4.589
		c-0.026-0.075-0.076-0.125-0.151-0.125h-6.505c-0.051,0-0.101,0.05-0.126,0.15l-1.714,4.563c-0.077,0.176-0.152,0.428-0.152,0.528
		c0,0.403-0.1,0.882-0.58,0.882h-0.604c-0.303,0-0.479-0.251-0.479-0.529c0-0.074,0.025-0.151,0.051-0.252
		c0.151-0.226,0.227-0.429,0.377-0.932l5.319-13.74c0.101-0.201,0.126-0.378,0.126-0.556c0-0.403,0.228-0.832,0.656-0.832H209.115z
		 M209.164,76.313l-2.772,7.235c-0.051,0.076-0.076,0.101-0.101,0.101h5.799c-0.026,0-0.051-0.024-0.077-0.127L209.164,76.313z"/>
	<path fill="#010101" d="M233.618,90.757c0.05,0.026,0.101,0.076,0.101,0.152s-0.025,0.102-0.076,0.125
		c-0.075,0.052-0.15,0.077-0.251,0.127c-0.201,0.051-0.43,0.127-0.706,0.127h-0.151c-0.681-0.052-1.336-0.354-1.715-0.935
		l-3.757-5.646c-0.479-0.731-1.311-1.186-2.192-1.186h-1.336c-0.076,0-0.126,0.051-0.126,0.152v6.127
		c0,0.101,0.024,0.201,0.024,0.302v0.151c0,0.378-0.176,0.807-0.63,0.807h-0.505c-0.403,0-0.655-0.353-0.655-0.73v-0.102
		c0.024-0.15,0.024-0.227,0.024-0.428V75.177c0-0.479,0.254-0.958,0.782-0.958h3.682c2.092,0,3.353,0.254,4.311,0.858
		c1.312,0.78,2.143,2.268,2.143,3.857c0,1.512-0.755,2.948-1.891,3.731c-0.705,0.427-1.286,0.578-2.521,0.729
		c-0.026,0-0.052,0.026-0.052,0.051c1.362,1.993,2.85,4.084,4.211,6.102c0.403,0.58,0.555,0.806,0.706,0.908
		C233.139,90.532,233.265,90.608,233.618,90.757 M226.206,82.211c1.84,0,2.572-0.15,3.201-0.554c0.733-0.53,1.362-1.639,1.362-2.723
		c0-1.034-0.529-2.068-1.261-2.647c-0.782-0.556-1.689-0.757-3.354-0.757h-2.621c-0.076,0-0.126,0.05-0.126,0.126v6.404
		c0,0.1,0.05,0.15,0.126,0.15H226.206z"/>
	<path fill="#010101" d="M238.533,74.901c0-0.353,0.252-0.681,0.605-0.681h0.556c0.452,0,0.604,0.428,0.604,0.831v0.151
		c0,0.102-0.025,0.202-0.025,0.304V89.8c0,0.101,0.025,0.201,0.025,0.277v0.176c0,0.379-0.151,0.807-0.604,0.807h-0.556
		c-0.378,0-0.605-0.378-0.605-0.73v-0.101c0.025-0.151,0.025-0.277,0.025-0.429V75.506c0-0.202,0-0.304-0.025-0.455V74.901z"/>
	<path fill="#010101" d="M255.55,75.883v0.479c0,0.303-0.227,0.479-0.454,0.479c-0.151,0-0.328-0.075-0.429-0.226
		c-0.631-0.858-1.689-1.337-2.975-1.337c-2.042,0-3.556,1.337-3.556,3.151c0,1.412,0.53,2.093,1.943,2.673
		c0.326,0.177,1.058,0.479,1.536,0.63c0.252,0.102,0.605,0.201,0.857,0.327h-0.024c2.344,0.883,3.378,1.639,3.958,2.925
		c0.253,0.529,0.327,1.084,0.327,1.665c0,2.723-2.244,4.739-5.396,4.739c-1.084,0-2.596-0.354-3.454-0.757
		c0-0.025-0.05-0.025-0.075-0.025c-0.605-0.276-1.312-0.63-1.312-1.311v-0.403c0-0.327,0.277-0.505,0.58-0.505
		c0.202,0,0.403,0.051,0.556,0.252c0.832,0.908,1.991,1.413,3.454,1.413c2.244,0,3.856-1.361,3.856-3.252
		c0-0.934-0.429-1.791-1.008-2.221c-0.505-0.377-1.186-0.681-3.303-1.461c-2.32-0.857-3.253-1.513-3.858-2.748
		c-0.301-0.555-0.427-1.21-0.427-1.841c0-2.622,2.268-4.613,5.293-4.613c0.933,0,1.613,0.151,2.646,0.605
		C254.894,74.825,255.55,75.203,255.55,75.883"/>
</g>
</svg>
