<?xml version="1.0" encoding="UTF-8" standalone="no"?>
<!DOCTYPE svg  PUBLIC '-//W3C//DTD SVG 1.1//EN'  'http://www.w3.org/Graphics/SVG/1.1/DTD/svg11.dtd'>
<svg xmlns="http://www.w3.org/2000/svg">
<defs>
<font id="Cadiz-MediumItalic" horiz-adv-x="527">
<font-face slope="-13" underline-position="-50" font-weight="500" descent="-200" panose-1="0 0 6 0 0 0 0 0 0 0" units-per-em="1000" unicode-range="U+0020-25CA" bbox="-146 -216 1005 954" x-height="476" underline-thickness="50" font-family="Cadiz" ascent="800" font-style="italic" cap-height="659"/>
<missing-glyph horiz-adv-x="1000"/>
<glyph glyph-name=".notdef" horiz-adv-x="1000"/>
<glyph glyph-name=".null" horiz-adv-x="0"/>
<glyph glyph-name="nonmarkingreturn" horiz-adv-x="333"/>
<glyph glyph-name="space" horiz-adv-x="200" unicode=" "/>
<glyph glyph-name="exclam" horiz-adv-x="231" unicode="!" d="M70 -11q-25 0 -42 17t-17 42q0 27 18.5 46t44.5 19t43.5 -17.5t17.5 -43.5t-19 -44.5t-46 -18.5zM166 673h91l-60 -263l-59 -210h-71l39 210z"/>
<glyph glyph-name="quotedbl" horiz-adv-x="231" unicode='&quot;' d="M301 673l-47 -182h-75l37 182h85zM178 673l-47 -182h-75l37 182h85z"/>
<glyph glyph-name="numbersign" horiz-adv-x="553" unicode="#" d="M263 383l-72 -159h143l71 159h-142zM110 430h123l76 168h52l-76 -168h142l76 168h52l-77 -168h116l-22 -47h-116l-71 -159h118l-22 -47h-118l-79 -177h-52l80 177h-142l-80 -177h-52l80 177h-122l22 47h121l72 159h-123z"/>
<glyph glyph-name="dollar" horiz-adv-x="454" unicode="$" d="M238 286l-51 -223q47 4 80 33.5t33 74.5q0 53 -62 115zM187 513q0 -42 39 -84l39 168q-33 -5 -55.5 -27t-22.5 -57zM263 392l21 -20q55 -53 82 -95.5t27 -97.5q0 -89 -68 -143.5t-157 -54.5l-16 -70h-45l17 74q-65 13 -110 59t-54 122l85 20q4 -51 31 -81.5t66 -39.5 l59 256q-36 35 -55 57t-35 57.5t-16 73.5q0 79 53.5 124.5t126.5 45.5h8l17 72h45l-18 -78q45 -12 79 -42t46 -76l-76 -31q-16 54 -67 70z"/>
<glyph glyph-name="percent" horiz-adv-x="665" unicode="%" d="M589 131q0 36 -22.5 58t-53.5 22t-53.5 -22t-22.5 -58t22.5 -58t53.5 -22t53.5 22t22.5 58zM361 131q0 65 43.5 107.5t108.5 42.5t108.5 -42.5t43.5 -107.5t-43.5 -107.5t-108.5 -42.5t-108.5 42.5t-43.5 107.5zM215 449q31 0 53.5 22t22.5 58t-22.5 58t-53.5 22 t-53.5 -22t-22.5 -58t22.5 -58t53.5 -22zM135 0h-75l448 552q-31 -21 -70 -21q-48 0 -79 28q3 -12 3 -30q0 -66 -41 -108t-106 -42t-108.5 42t-43.5 107t43.5 108t105.5 43q34 0 68 -15.5t57 -34t54 -34t60 -15.5q65 0 144 79h75z"/>
<glyph glyph-name="ampersand" horiz-adv-x="524" unicode="&amp;" d="M71 154q0 -43 30 -67.5t75 -24.5q71 0 126 52l-107 185q-124 -59 -124 -145zM469 0h-99l-29 47q-78 -66 -182 -66q-79 0 -126.5 47t-47.5 114q0 69 43 131t129 95q-42 81 -42 136q0 82 54 128.5t125 46.5q58 0 98.5 -33t40.5 -93q0 -48 -31.5 -90t-89.5 -62l-42 73 q37 13 55.5 35t18.5 46q0 21 -15.5 35t-40.5 14q-33 0 -60 -26t-27 -72q0 -40 34 -100l129 -226q31 45 44 86l81 -18q-28 -76 -84 -138z"/>
<glyph glyph-name="quotesingle" horiz-adv-x="102" unicode="&apos;" d="M172 673l-47 -182h-75l37 182h85z"/>
<glyph glyph-name="parenleft" horiz-adv-x="249" unicode="(" d="M83 -114q-56 113 -56 261q0 159 66 316.5t185 266.5h101q-128 -119 -198 -272t-70 -304q0 -149 69 -268h-97z"/>
<glyph glyph-name="parenright" horiz-adv-x="269" unicode=")" d="M-104 -114q131 123 202.5 274t71.5 300t-71 270h96q58 -120 58 -266q0 -151 -62.5 -302.5t-180.5 -275.5h-114z"/>
<glyph glyph-name="asterisk" horiz-adv-x="446" unicode="*" d="M320 537l132 43l13 -42l-133 -43l130 -42l-15 -43l-130 43l77 -111l-36 -27l-78 112l-5 -138h-44l5 138l-86 -112l-34 26l85 112l-132 -43l-13 42l134 43l-131 42l15 43l130 -43l-77 111l36 27l78 -112l5 138h44l-5 -138l86 112l34 -26z"/>
<glyph glyph-name="plus" horiz-adv-x="417" unicode="+" d="M238 258l-34 -149h-84l34 149h-145l18 77h145l34 149h84l-34 -149h145l-18 -77h-145z"/>
<glyph glyph-name="comma" horiz-adv-x="186" unicode="," d="M34 -3q-18 1 -34 15t-16 36q0 30 18 47t45 17q25 0 42 -20t17 -51q0 -54 -43 -99t-119 -52l10 48q29 3 52 18.5t28 40.5z"/>
<glyph glyph-name="hyphen" horiz-adv-x="289" unicode="-" d="M27 341h246l-18 -77h-246z"/>
<glyph glyph-name="period" horiz-adv-x="196" unicode="." d="M51 -10q-25 0 -42 17t-17 42q0 27 18.5 46t44.5 19q25 0 43 -18t18 -43q0 -26 -19 -44.5t-46 -18.5z"/>
<glyph glyph-name="slash" horiz-adv-x="257" unicode="/" d="M315 673h66l-385 -673h-66z"/>
<glyph glyph-name="zero" horiz-adv-x="590" unicode="0" d="M247 62q65 0 119 56t82 136.5t28 160.5t-31.5 131.5t-96.5 51.5q-67 0 -120 -58t-79 -138t-26 -159q0 -81 31 -131t93 -50zM565 417q0 -81 -23 -159t-64.5 -139.5t-104.5 -99.5t-137 -38q-100 0 -152 67.5t-52 186.5t41.5 220.5t117 162.5t167.5 61q94 0 150.5 -66 t56.5 -196z"/>
<glyph glyph-name="one" horiz-adv-x="329" unicode="1" d="M80 575q105 12 164 84h72l-151 -659h-87l121 527q-59 -34 -139 -37z"/>
<glyph glyph-name="two" horiz-adv-x="458" unicode="2" d="M387 79l-18 -79h-409l14 61q405 262 405 436q0 49 -29.5 75t-71.5 26q-49 0 -86.5 -32.5t-37.5 -89.5q0 -18 2 -27h-81q-1 8 -1 25q0 96 64 150.5t147 54.5q81 0 130 -48t49 -125q0 -95 -83 -208t-254 -219h260z"/>
<glyph glyph-name="three" d="M258 313q-37 0 -89 -19l-13 86l223 202h-247l17 77h378l-13 -57l-245 -213q97 0 147.5 -52t50.5 -126q0 -104 -76 -167t-175 -63q-79 0 -138.5 44t-73.5 127l88 26q7 -57 45 -86.5t91 -29.5q69 0 109.5 44t40.5 101q0 45 -31.5 75.5t-88.5 30.5z" unicode="3"/>
<glyph glyph-name="four" horiz-adv-x="516" unicode="4" d="M370 359h81l-27 -116h82l-19 -77h-81l-38 -166h-81l38 166h-330l17 76l349 417h102l-345 -416h225z"/>
<glyph glyph-name="five" horiz-adv-x="524" unicode="5" d="M-10 149l92 27q6 -56 41.5 -85t86.5 -29q73 0 117.5 51t44.5 114q0 47 -28 78t-81 31q-76 0 -144 -57l-54 42l77 338h352l-18 -77h-268l-44 -195q60 35 125 35q74 0 123 -47t49 -130q0 -120 -80 -192t-183 -72q-77 0 -135 43t-73 125z"/>
<glyph glyph-name="six" horiz-adv-x="560" unicode="6" d="M113 286q-4 -22 -4 -37q0 -43 15.5 -84t54.5 -71.5t93 -30.5q73 0 116 50t43 117q0 58 -34.5 99.5t-100.5 41.5q-49 0 -98.5 -23.5t-84.5 -61.5zM488 555q-42 43 -109 43q-78 0 -151 -57.5t-107 -160.5q67 70 177 70q92 0 156.5 -56.5t64.5 -157.5q0 -114 -79.5 -184.5 t-182.5 -70.5q-99 0 -168 71t-69 211q0 75 21.5 142t58.5 116t83.5 85.5t98 54.5t101.5 18q107 0 167 -77z"/>
<glyph glyph-name="seven" horiz-adv-x="425" unicode="7" d="M48 582l18 77h429l-15 -65q-87 -62 -148.5 -119.5t-113.5 -129.5t-80 -158t-32 -187h-90q17 356 337 582h-305z"/>
<glyph glyph-name="eight" horiz-adv-x="503" unicode="8" d="M88 163q0 -46 33.5 -73.5t90.5 -27.5q70 0 118 40t48 99q0 48 -33 73t-83 25q-66 0 -120 -38t-54 -98zM160 474q0 -46 30.5 -69.5t75.5 -23.5q60 0 110 36.5t50 92.5q0 43 -32.5 65.5t-80.5 22.5q-60 0 -106.5 -33.5t-46.5 -90.5zM464 202q0 -104 -77 -162.5t-178 -58.5 q-87 0 -148 44t-61 126q0 69 43.5 121t105.5 74q-74 51 -74 132q0 79 68 140t177 61q93 0 143 -45.5t50 -111.5q0 -54 -34 -102.5t-98 -73.5q83 -43 83 -144z"/>
<glyph glyph-name="nine" horiz-adv-x="553" unicode="9" d="M440 374q4 22 4 37q0 43 -15.5 84t-54.5 71.5t-93 30.5q-73 0 -116 -50t-43 -117q0 -58 34.5 -99.5t100.5 -41.5q49 0 98.5 23.5t84.5 61.5zM65 105q42 -43 109 -43q78 0 151 57.5t107 160.5q-67 -70 -177 -70q-92 0 -156.5 56.5t-64.5 157.5q0 114 79.5 184.5 t182.5 70.5q99 0 168 -71t69 -211q0 -75 -21.5 -142t-58.5 -116t-83.5 -85.5t-98 -54.5t-101.5 -18q-107 0 -167 77z"/>
<glyph glyph-name="colon" horiz-adv-x="211" unicode=":" d="M41 -10q-25 0 -42 17t-17 42q0 27 18.5 46t44.5 19q25 0 43 -18t18 -43q0 -26 -19 -44.5t-46 -18.5zM106 270q-25 0 -42 17t-17 42q0 27 18.5 46t44.5 19t43.5 -18t17.5 -43q0 -26 -19 -44.5t-46 -18.5z"/>
<glyph glyph-name="semicolon" horiz-adv-x="240" unicode=";" d="M57 -3q-18 1 -34 15t-16 36q0 30 18 47t45 17q25 0 42 -20t17 -51q0 -54 -43 -99t-119 -52l10 48q29 3 52 18.5t28 40.5zM135 270q-25 0 -42 17t-17 42q0 27 18.5 46t44.5 19q25 0 43 -18t18 -43q0 -26 -19 -44.5t-46 -18.5z"/>
<glyph glyph-name="less" horiz-adv-x="284" unicode="&lt;" d="M184 85l-185 190l22 97l273 190l-28 -124l-180 -123l124 -118z"/>
<glyph glyph-name="equal" horiz-adv-x="454" unicode="=" d="M26 296h376l-18 -77h-376zM67 476h376l-17 -77h-376z"/>
<glyph glyph-name="greater" horiz-adv-x="262" unicode="&gt;" d="M100 562l185 -190l-22 -97l-273 -190l29 130l178 117l-123 118z"/>
<glyph glyph-name="question" horiz-adv-x="372" unicode="?" d="M114 -11q-25 0 -42 17t-17 43t18.5 45t44.5 19t43.5 -17.5t17.5 -43.5t-19 -44.5t-46 -18.5zM112 544q17 66 63.5 100.5t101.5 34.5q54 0 92 -31.5t38 -84.5q0 -32 -14 -60.5t-45.5 -55.5t-55 -43t-68.5 -43q-40 -24 -56 -41t-16 -36q0 -17 11 -26.5t28 -9.5 q22 0 44.5 15.5t33.5 41.5l67 -26q-21 -52 -64.5 -81t-90.5 -29t-78.5 29t-31.5 81q0 48 26 78t79 63q10 6 35.5 21.5t36.5 22t29.5 20.5t26.5 23.5t15 23t7 27.5q0 22 -14 33.5t-35 11.5q-30 0 -58.5 -21.5t-36.5 -58.5z"/>
<glyph glyph-name="at" horiz-adv-x="576" unicode="@" d="M172 187q0 -48 40 -48q44 0 79.5 49.5t35.5 93.5q0 41 -40 41q-44 0 -79.5 -43t-35.5 -93zM567 303q0 -104 -58.5 -163t-128.5 -59q-61 0 -70 49q-12 -14 -35 -29q-40 -27 -86 -27q-42 0 -69 26.5t-27 79.5q0 50 24.5 95.5t64.5 75.5q48 35 101 35q61 0 74 -44l36 37h56 l-72 -186q-5 -12 -5 -23q0 -23 25 -23q38 0 69.5 43.5t31.5 108.5q0 70 -41.5 109t-120.5 39q-99 0 -176 -56q-55 -39 -87.5 -99.5t-32.5 -127.5t34.5 -106.5t104.5 -39.5q68 0 117 42l30 -55q-75 -53 -163 -53q-89 0 -143 59t-54 153q0 83 41.5 157.5t114.5 124.5 q100 68 221 68q105 0 164.5 -55t59.5 -156z"/>
<glyph glyph-name="A" horiz-adv-x="673" unicode="A" d="M185 243h271l-63 315zM471 166h-337l-110 -166h-107l446 659h95l142 -659h-96z"/>
<glyph glyph-name="B" horiz-adv-x="578" unicode="B" d="M153 304l-52 -225h168q74 0 119 44t45 95q0 37 -27 61.5t-77 24.5h-176zM216 582l-46 -201h148q66 0 108 40t42 87q0 32 -23 53t-67 21h-162zM386 659q84 0 127.5 -40t43.5 -99q0 -49 -28.5 -95t-78.5 -70q35 -17 54 -52t19 -78q0 -86 -70.5 -155.5t-194.5 -69.5h-262 l151 659h239z"/>
<glyph glyph-name="C" horiz-adv-x="616" unicode="C" d="M511 201l70 -44q-49 -84 -126.5 -130t-160.5 -46q-131 0 -201.5 86.5t-70.5 212.5q0 98 40 187.5t124 150.5t194 61q79 0 142.5 -41.5t93.5 -121.5l-77 -39q-20 59 -64 90t-100 31q-100 0 -182.5 -85.5t-82.5 -222.5q0 -110 55.5 -169t136.5 -59q61 0 118 36.5t91 102.5z "/>
<glyph glyph-name="D" horiz-adv-x="624" unicode="D" d="M216 582l-115 -503h111q69 0 127.5 29t96 74.5t58 100.5t20.5 109q0 82 -47 136t-137 54h-114zM-4 0l151 659h197q125 0 191.5 -78t66.5 -192q0 -56 -16 -111t-49 -105.5t-79 -88.5t-111 -61t-139 -23h-212z"/>
<glyph glyph-name="E" d="M151 295l-50 -216h320l-18 -79h-407l151 659h408l-18 -77h-320l-48 -210h262l-18 -77h-262z" unicode="E"/>
<glyph glyph-name="F" horiz-adv-x="496" unicode="F" d="M403 295h-252l-68 -295h-87l151 659h398l-18 -77h-310l-48 -210h252z"/>
<glyph glyph-name="G" horiz-adv-x="648" unicode="G" d="M585 309l-71 -309h-47l-12 58q-80 -77 -181 -77q-103 0 -177 80t-74 215q0 99 40 189.5t122.5 152t189.5 61.5q180 0 242 -163l-77 -39q-20 59 -64 90t-100 31q-100 0 -182.5 -85.5t-82.5 -223.5q0 -108 52 -167.5t125 -59.5q62 0 116.5 43.5t79.5 122.5h-173l18 81h256z "/>
<glyph glyph-name="H" horiz-adv-x="664" unicode="H" d="M581 659h87l-151 -659h-87l68 296h-347l-68 -296h-87l151 659h88l-67 -286h347z"/>
<glyph glyph-name="I" horiz-adv-x="230" unicode="I" d="M147 659h87l-151 -659h-87z"/>
<glyph glyph-name="J" horiz-adv-x="453" unicode="J" d="M205 659h262l-115 -500q-19 -85 -80.5 -131.5t-132.5 -46.5q-66 0 -112 40.5t-46 113.5v8l80 20q-1 -5 -1 -14q0 -41 24.5 -64t59.5 -23q40 0 76 28t47 78l95 414h-175z"/>
<glyph glyph-name="K" horiz-adv-x="599" unicode="K" d="M432 0l-150 369l-136 -96l-63 -273h-87l151 659h87l-64 -278l387 278h132l-328 -234l180 -425h-109z"/>
<glyph glyph-name="L" horiz-adv-x="449" unicode="L" d="M234 659l-133 -580h286l-18 -79h-373l151 659h87z"/>
<glyph glyph-name="M" horiz-adv-x="776" unicode="M" d="M688 659h92l-151 -659h-87l110 477l-274 -384h-89l-97 385l-109 -478h-87l151 659h86l119 -469z"/>
<glyph glyph-name="N" horiz-adv-x="643" unicode="N" d="M83 0h-87l151 659h85l212 -510l116 510h87l-151 -659h-83l-213 512z"/>
<glyph glyph-name="O" horiz-adv-x="695" unicode="O" d="M312 62q62 0 115 28t87 73.5t53 101t19 112.5q0 94 -51 157.5t-150 63.5q-83 0 -147.5 -48.5t-95 -118.5t-30.5 -146q0 -95 51.5 -159t148.5 -64zM389 679q139 0 212 -87t73 -214q0 -72 -24.5 -142t-69.5 -127.5t-116 -92.5t-156 -35q-138 0 -211 85.5t-73 212.5 q0 72 24 142t68.5 128t115.5 94t157 36z"/>
<glyph glyph-name="P" horiz-adv-x="571" unicode="P" d="M216 582l-52 -226h194q64 0 103.5 42t39.5 94q0 39 -23.5 64.5t-69.5 25.5h-192zM147 279l-64 -279h-87l151 659h279q77 0 120 -47.5t43 -116.5q0 -85 -63.5 -150.5t-176.5 -65.5h-202z"/>
<glyph glyph-name="Q" horiz-adv-x="703" unicode="Q" d="M251 121q0 -26 16.5 -42t50.5 -17q52 2 94 21q-1 47 -23.5 83t-63.5 36q-33 0 -53.5 -24.5t-20.5 -56.5zM112 285q0 -123 76 -183q-1 8 -1 27q0 65 40.5 110t107.5 45q70 0 106 -47.5t40 -108.5q50 45 77.5 112.5t27.5 136.5q0 94 -51 157.5t-150 63.5 q-83 0 -147.5 -48.5t-95 -118.5t-30.5 -146zM497 35l1 -4q10 -16 34 -16q47 0 102 47l-25 -110q-41 -27 -90 -27q-36 0 -62.5 18.5t-34.5 54.5q-70 -17 -114 -17q-138 0 -211 85.5t-73 212.5q0 72 24 142t68.5 128t115.5 94t157 36q139 0 212 -87t73 -214 q0 -102 -46.5 -195.5t-130.5 -147.5z"/>
<glyph glyph-name="R" horiz-adv-x="602" unicode="R" d="M216 582l-52 -226h194q64 0 103.5 40.5t39.5 91.5q0 41 -23.5 67.5t-70.5 26.5h-191zM147 279l-64 -279h-87l151 659h276q80 0 123 -48t43 -117q0 -71 -47 -131.5t-128 -75.5l109 -287h-102l-100 279h-174z"/>
<glyph glyph-name="S" horiz-adv-x="471" unicode="S" d="M54 186q8 -57 50.5 -89t93.5 -32q46 0 78.5 27.5t32.5 76.5q0 27 -13.5 53.5t-28 42t-45.5 45.5q-41 39 -61 61t-38.5 60t-18.5 78q0 79 54 124.5t128 45.5q61 0 110 -32t65 -92l-76 -31q-11 36 -39.5 55.5t-61.5 19.5q-36 0 -62 -23t-26 -62q0 -12 2 -23t9 -22.5t11 -19 t16 -20t17 -17.5t21 -20.5t21 -19.5q56 -53 82.5 -96t26.5 -99q0 -90 -64.5 -143t-150.5 -53q-81 0 -144 47.5t-74 137.5z"/>
<glyph glyph-name="T" horiz-adv-x="504" unicode="T" d="M548 582h-198l-133 -582h-87l133 582h-198l18 77h483z"/>
<glyph glyph-name="U" horiz-adv-x="619" unicode="U" d="M534 230q-28 -120 -110.5 -184.5t-179.5 -64.5q-88 0 -148 51.5t-60 141.5q0 26 8 63l97 422h87l-95 -417q-6 -28 -6 -53q0 -61 36 -94t90 -33q63 0 119.5 43.5t73.5 118.5l100 435h87z"/>
<glyph glyph-name="V" horiz-adv-x="536" unicode="V" d="M232 0h-86l-71 659h90l49 -543l291 543h100z"/>
<glyph glyph-name="W" horiz-adv-x="934" unicode="W" d="M484 464l121 195h98l-189 -305l36 -246l347 551h103l-420 -659h-98l-36 249l-152 -249h-94l-116 659h93l93 -551l143 236l-50 315h91z"/>
<glyph glyph-name="X" horiz-adv-x="538" unicode="X" d="M464 0h-93l-108 263l-229 -263h-108l295 337l-133 322h93l101 -247l216 247h108l-282 -322z"/>
<glyph glyph-name="Y" horiz-adv-x="584" unicode="Y" d="M168 0l66 287l-154 372h101l111 -281l240 281h116l-327 -373l-66 -286h-87z"/>
<glyph glyph-name="Z" horiz-adv-x="498" unicode="Z" d="M335 372h97l-18 -77h-140l-169 -216h302l-18 -79h-419l13 57l187 238h-93l17 77h137l165 210h-268l18 77h382l-13 -57z"/>
<glyph glyph-name="bracketleft" horiz-adv-x="221" unicode="[" d="M125 -84h-161l192 831h161l-17 -74h-83l-158 -683h83z"/>
<glyph glyph-name="backslash" horiz-adv-x="207" unicode="\" d="M187 0h-58l-75 673h58z"/>
<glyph glyph-name="bracketright" horiz-adv-x="241" unicode="]" d="M97 747h161l-192 -831h-161l17 74h83l158 683h-83z"/>
<glyph glyph-name="asciicircum" horiz-adv-x="497" unicode="^" d="M46 470l245 229h95l137 -229h-112l-81 153l-158 -153h-126z"/>
<glyph glyph-name="underscore" horiz-adv-x="419" unicode="_" d="M-31 80h376l-18 -80h-376z"/>
<glyph glyph-name="grave" horiz-adv-x="113" unicode="`" d="M108 529l-82 180l88 37l68 -187z"/>
<glyph glyph-name="a" horiz-adv-x="525" unicode="a" d="M85 200q0 -70 30.5 -105.5t76.5 -35.5q67 0 125 64t58 160q0 68 -30.5 101t-77.5 33q-68 0 -125 -60t-57 -157zM438 476h67l-109 -476h-61l-12 48q-66 -63 -145 -63q-73 0 -123 52t-50 146q0 73 30 142.5t90.5 117.5t137.5 48q97 0 134 -74z"/>
<glyph glyph-name="b" horiz-adv-x="520" unicode="b" d="M281 417q-74 0 -120.5 -64.5t-46.5 -144.5q0 -69 35 -109t86 -40q62 0 111 56.5t49 151.5q0 69 -28.5 109.5t-85.5 40.5zM-18 0l155 673h81l-57 -245q59 63 142 63t127.5 -62.5t44.5 -156.5q0 -127 -75 -207t-167 -80t-147 80l-45 -65h-59z"/>
<glyph glyph-name="c" horiz-adv-x="456" unicode="c" d="M443 384l-72 -35q-30 68 -108 68q-68 0 -123 -56t-55 -148q0 -75 37 -114.5t91 -39.5q79 0 126 74l64 -44q-34 -48 -86 -76t-111 -28q-84 0 -142.5 57.5t-58.5 166.5q0 129 79.5 205.5t180.5 76.5q58 0 105.5 -27.5t72.5 -79.5z"/>
<glyph glyph-name="d" d="M192 59q67 0 125 64t58 160q0 68 -30.5 101t-77.5 33q-68 0 -125 -60t-57 -157q0 -70 30.5 -105.5t76.5 -35.5zM336 0l-13 48q-66 -63 -147 -63q-71 0 -121 52t-50 146q0 74 30 143t90.5 117t138.5 48q96 0 140 -79l60 261h81l-155 -673h-54z" unicode="d"/>
<glyph glyph-name="e" horiz-adv-x="493" unicode="e" d="M94 278h268q4 19 4 38q0 49 -29.5 75t-74.5 26q-54 0 -102 -36t-66 -103zM431 206h-346q-1 -69 38 -108t95 -39q80 0 122 67l63 -45q-34 -46 -86 -71t-108 -25q-85 0 -144.5 57t-59.5 166q0 129 80.5 206t183.5 77q77 0 128.5 -48t51.5 -137q0 -39 -18 -100z"/>
<glyph glyph-name="f" horiz-adv-x="291" unicode="f" d="M323 592q-16 10 -36 10q-24 0 -43 -16t-27 -48l-15 -62h102l-17 -75h-102l-92 -401h-81l93 401h-66l17 75h66l14 61q17 74 57.5 108t93.5 34q27 0 54 -8z"/>
<glyph glyph-name="g" horiz-adv-x="540" unicode="g" d="M390 279q0 69 -33 103.5t-83 34.5q-71 0 -130 -60t-59 -153q0 -69 33 -103t84 -34q71 0 129.5 59t58.5 153zM520 476l-110 -476q-24 -102 -99 -159t-163 -57q-65 0 -117.5 32.5t-76.5 94.5l70 29q20 -43 55 -65t76 -22q65 0 119 51.5t67 142.5q-59 -54 -149 -54 q-85 0 -136 59t-51 150q0 128 82.5 208.5t182.5 80.5q95 0 142 -74l41 59h67z"/>
<glyph glyph-name="h" horiz-adv-x="512" unicode="h" d="M320 491q58 0 95.5 -34t37.5 -98q0 -28 -7 -56l-69 -303h-81l68 301q4 19 4 37q0 39 -21 59t-54 20q-49 0 -97 -39t-64 -108l-62 -270h-81l155 673h81l-58 -253q68 71 153 71z"/>
<glyph glyph-name="i" horiz-adv-x="208" unicode="i" d="M-13 0l110 476h81l-110 -476h-81zM158 554q-25 0 -42 17t-17 42q0 27 19 46t45 19q25 0 43 -18t18 -43q0 -26 -19.5 -44.5t-46.5 -18.5z"/>
<glyph glyph-name="j" horiz-adv-x="226" unicode="j" d="M-128 -129q16 -10 36 -10q58 0 77 83l122 532h82l-123 -534q-36 -158 -162 -158q-28 0 -50 8zM171 554q-25 0 -42.5 17t-17.5 42q0 27 19 46t45 19q25 0 43 -18t18 -43q0 -26 -19.5 -44.5t-45.5 -18.5z"/>
<glyph glyph-name="k" horiz-adv-x="444" unicode="k" d="M-11 0l155 673h81l-87 -375l204 178h112l-183 -155l116 -321h-91l-92 265l-91 -79l-43 -186h-81z"/>
<glyph glyph-name="l" horiz-adv-x="205" unicode="l" d="M-14 0l155 673h81l-155 -673h-81z"/>
<glyph glyph-name="m" horiz-adv-x="729" unicode="m" d="M-11 0l110 476h62l11 -52q18 28 56 47.5t77 19.5q83 0 101 -84q25 41 64 62.5t80 21.5q51 0 86.5 -31.5t35.5 -86.5q0 -17 -5 -42l-76 -331h-81l69 297q5 20 5 43q0 37 -17.5 57t-44.5 20q-38 0 -75.5 -38.5t-53.5 -109.5l-63 -269h-81l72 321q4 15 4 31q0 32 -17 48.5 t-43 16.5q-40 0 -78 -36t-53 -101l-64 -280h-81z"/>
<glyph glyph-name="n" horiz-adv-x="517" unicode="n" d="M-11 0l110 476h62l13 -51q60 66 147 66q57 0 94.5 -34.5t37.5 -98.5q0 -27 -7 -55l-69 -303h-81l68 301q5 22 5 37q0 38 -21.5 58.5t-54.5 20.5q-50 0 -98.5 -41.5t-64.5 -113.5l-60 -262h-81z"/>
<glyph glyph-name="o" d="M220 59q79 0 130.5 64t51.5 143q0 63 -35.5 107t-100.5 44q-79 0 -130 -64.5t-51 -142.5q0 -63 35.5 -107t99.5 -44zM482 268q0 -119 -75.5 -201t-191.5 -82q-99 0 -154.5 61.5t-55.5 161.5q0 121 77.5 202t191.5 81q98 0 153 -62t55 -161z" unicode="o"/>
<glyph glyph-name="p" horiz-adv-x="524" unicode="p" d="M399 268q0 69 -28.5 109t-85.5 40q-74 0 -120.5 -65t-46.5 -148q0 -69 33.5 -107t84.5 -38q63 0 113 56.5t50 152.5zM479 275q0 -132 -75.5 -211t-169.5 -79q-100 0 -150 92l-63 -277h-81l46 201l110 475h62l11 -44q49 59 135 59q71 0 123 -53.5t52 -162.5z"/>
<glyph glyph-name="q" horiz-adv-x="537" unicode="q" d="M191 59q67 0 125 64t58 160q0 68 -30.5 101t-77.5 33q-69 0 -125 -60t-56 -157q0 -71 30 -106t76 -35zM270 -200l56 248q-73 -63 -150 -63q-72 0 -121.5 52t-49.5 146q0 116 71.5 212t185.5 96q99 0 136 -74l41 59h67l-155 -676h-81z"/>
<glyph glyph-name="r" horiz-adv-x="328" unicode="r" d="M329 398q-20 7 -44 7q-53 0 -96.5 -38.5t-58.5 -105.5l-60 -261h-81l110 476h62l12 -52q55 63 133 63q25 0 43 -7z"/>
<glyph glyph-name="s" horiz-adv-x="395" unicode="s" d="M38 152q9 -44 46 -68.5t80 -24.5q37 0 61.5 17t24.5 48q0 13 -3.5 23t-16 21.5t-18.5 16.5t-28 19.5t-28 18.5q-28 20 -45 34.5t-32.5 42t-15.5 59.5q0 61 46.5 96.5t110.5 35.5q46 0 87 -20t64 -58l-69 -47q-12 24 -37 38t-52 14t-45.5 -14t-18.5 -40q0 -7 1.5 -13.5 t5 -13t6 -11.5t10 -11.5t10.5 -10t13 -10.5t13 -9.5t15 -10.5l15 -10q23 -15 36.5 -25.5t30 -27.5t24 -37t7.5 -44q0 -65 -54.5 -105t-128.5 -40q-65 0 -118.5 33t-74.5 96z"/>
<glyph glyph-name="t" horiz-adv-x="287" unicode="t" d="M110 136q-5 -22 -5 -34q0 -43 37 -43q18 0 44 10l-17 -76q-27 -8 -50 -8q-43 0 -70.5 24.5t-27.5 72.5q0 20 6 44l63 275h-63l18 75h63l25 112l89 33l-33 -145h88l-18 -75h-88z"/>
<glyph glyph-name="u" horiz-adv-x="499" unicode="u" d="M468 476l-110 -476h-62l-10 41q-59 -56 -138 -56q-58 0 -97 35t-39 101q0 25 6 53l69 302h81l-68 -298q-4 -16 -4 -34q0 -38 22 -59t56 -21q47 0 92 40t61 112l59 260h82z"/>
<glyph glyph-name="v" horiz-adv-x="455" unicode="v" d="M117 476l45 -389l227 389h88l-282 -476h-100l-63 476h85z"/>
<glyph glyph-name="w" horiz-adv-x="697" unicode="w" d="M454 0h-93l-21 320l-172 -320h-91l-41 476h83l24 -362l193 362l71 -1l23 -360l194 361h89z"/>
<glyph glyph-name="x" horiz-adv-x="418" unicode="x" d="M135 476l66 -163l148 163h98l-217 -234l115 -242h-91l-78 178l-157 -178h-103l226 251l-104 225h97z"/>
<glyph glyph-name="y" horiz-adv-x="540" unicode="y" d="M347 48q-60 -63 -149 -63q-66 0 -113 41t-47 110q0 26 5 46l67 294h81l-68 -296q-4 -16 -4 -33q0 -42 25.5 -65t64.5 -23q54 0 103.5 42.5t67.5 119.5l59 255h81l-107 -470q-25 -109 -102.5 -165.5t-166.5 -56.5q-69 0 -122.5 33.5t-71.5 93.5l70 29q18 -41 53 -63 t77 -22q67 0 121.5 47.5t75.5 145.5z"/>
<glyph glyph-name="z" horiz-adv-x="447" unicode="z" d="M-43 0l14 58l334 343h-236l17 75h354l-14 -59l-333 -338h260l-18 -79h-378z"/>
<glyph glyph-name="braceleft" horiz-adv-x="251" unicode="{" d="M62 237q1 5 1 13q0 44 -52 44l17 76q65 0 78 57l39 167q18 78 55 118t103 40q28 0 50 -8l-18 -79q-16 10 -36 10q-55 0 -74 -83l-38 -165q-15 -62 -69 -95q29 -25 29 -68q0 -14 -3 -27l-38 -165q-5 -20 -5 -41q0 -42 40 -42q20 0 40 10l-18 -79q-26 -8 -54 -8 q-95 0 -95 88q0 27 10 70z"/>
<glyph glyph-name="bar" horiz-adv-x="184" unicode="|" d="M142 730h59l-188 -818h-59z"/>
<glyph glyph-name="braceright" horiz-adv-x="253" unicode="}" d="M96 70q-18 -78 -55 -118t-104 -40q-28 0 -50 8l18 79q16 -10 36 -10q55 0 74 83l38 165q15 60 70 95q-29 26 -29 69q0 13 3 26l38 165q6 24 6 40q0 43 -42 43q-20 0 -40 -10l18 79q26 8 54 8q95 0 95 -89q0 -30 -9 -69l-39 -167q-2 -10 -2 -15q0 -42 54 -42l-18 -76 q-65 0 -78 -57z"/>
<glyph glyph-name="asciitilde" horiz-adv-x="436" unicode="~" d="M7 258q11 62 52.5 101t96.5 39q30 0 56 -12.5t42 -28t34.5 -28t35.5 -12.5q36 0 55 70l82 -11q-14 -61 -48.5 -105t-89.5 -44q-27 0 -53 13t-43 28.5t-38 28.5t-39 13q-47 0 -67 -73z"/>
<glyph glyph-name="exclamdown" horiz-adv-x="231" unicode="¡" d="M109 -13h-91l60 263l59 210h71l-39 -210zM205 671q25 0 42 -17t17 -42q0 -27 -18.5 -46t-44.5 -19q-25 0 -43 17.5t-18 43.5t19 44.5t46 18.5z"/>
<glyph glyph-name="cent" horiz-adv-x="452" unicode="¢" d="M154 159l79 346q-70 -12 -113.5 -72.5t-43.5 -134.5q0 -48 20 -85.5t58 -53.5zM435 485l-67 -36q-25 52 -92 57l-83 -357q7 -1 19 -1q72 0 120 65l62 -43q-72 -95 -190 -95q-17 0 -26 1l-18 -76h-43l20 83q-67 19 -104.5 76t-37.5 138q0 119 73 198.5t181 84.5l18 79h43 l-18 -80q97 -10 143 -94z"/>
<glyph glyph-name="sterling" horiz-adv-x="507" unicode="£" d="M49 95q0 -14 9.5 -25.5t29.5 -11.5q40 0 68 37q-20 35 -57 39h-6q-20 0 -32 -11.5t-12 -27.5zM474 592q-16 10 -36 10q-57 0 -75 -83l-19 -83h94l-12 -45h-93l-10 -44h94l-10 -44h-94q-37 -151 -69 -212q33 -31 72 -31q24 0 51 11.5t41 22.5l15 12l-21 -93 q-41 -32 -98 -32q-65 0 -103 52q-47 -48 -112 -48q-55 0 -83.5 31.5t-28.5 76.5q0 54 36.5 84.5t80.5 30.5q53 0 95 -53q21 41 39 125l5 23h-74l10 44h74l10 44h-75l12 45h74l19 85q17 78 54.5 118t104.5 40q28 0 50 -8z"/>
<glyph glyph-name="currency" d="M215 59q79 0 130.5 64t51.5 143q0 63 -35.5 107t-100.5 44q-79 0 -130 -64.5t-51 -142.5q0 -63 35.5 -107t99.5 -44zM288 -3q-39 -12 -81 -12q-62 0 -106 23l-45 -77h-52l60 102q-67 58 -67 173q0 89 43 158.5t116 102.5l-9 83h52l7 -67q32 8 65 8q65 0 115 -29l53 88h50 l-67 -116q58 -59 58 -164q0 -84 -39 -151.5t-106 -102.5l11 -85h-50z" unicode="¤"/>
<glyph glyph-name="yen" horiz-adv-x="571" unicode="¥" d="M224 256l7 31l-154 372h101l112 -282l241 282h114l-327 -373l-7 -30h125l-11 -45h-124l-10 -43h125l-10 -46h-124l-30 -122h-87l30 122h-125l10 46h124l10 43h-125l11 45h124z"/>
<glyph glyph-name="brokenbar" horiz-adv-x="137" unicode="¦" d="M41 270h61l-62 -270h-61zM139 697h61l-61 -269h-61z"/>
<glyph glyph-name="section" horiz-adv-x="436" unicode="§" d="M232 386q-33 0 -55 -19t-22 -43t22.5 -38t49.5 -14q33 0 51 19.5t18 43.5q0 22 -18 36.5t-46 14.5zM207 542q0 -24 28 -46.5t61.5 -39t61.5 -47t28 -68.5q0 -43 -29.5 -76.5t-63.5 -39.5q51 -38 51 -98q0 -64 -58 -105t-131 -41q-68 0 -118 38t-63 91l82 31 q10 -33 38.5 -56t66.5 -23q33 0 62 16t29 45q0 21 -19 38t-46 30.5t-53.5 29t-45.5 41.5t-19 60q0 49 33 78t77 40q-61 38 -61 100q0 60 47.5 99.5t118.5 39.5q103 0 147 -83l-70 -48q-20 50 -82 50q-33 0 -52.5 -17t-19.5 -39z"/>
<glyph glyph-name="dieresis" horiz-adv-x="260" unicode="¨" d="M283 570q-23 0 -40.5 17t-17.5 41q0 25 18.5 43.5t44.5 18.5q23 0 39.5 -17t16.5 -41q0 -26 -18 -44t-43 -18zM120 570q-24 0 -41 17t-17 41q0 25 18.5 43.5t43.5 18.5q23 0 40 -17t17 -41q0 -26 -18 -44t-43 -18z"/>
<glyph glyph-name="copyright" horiz-adv-x="444" unicode="©" d="M343 658q-15 26 -46 26q-26 0 -46 -19.5t-20 -50.5q0 -28 18.5 -47t42.5 -19q38 0 56 33q8 -5 18.5 -13.5t12.5 -9.5q-32 -52 -90 -52q-43 0 -71.5 30t-28.5 75q0 48 30.5 81.5t76.5 33.5q59 0 82 -48zM278 429q83 0 141 58t58 141q0 75 -48.5 125t-124.5 50 q-83 0 -141.5 -58t-58.5 -141q0 -75 49 -125t125 -50zM306 845q92 0 153 -61.5t61 -153.5q0 -103 -72 -173t-174 -70q-92 0 -152.5 61.5t-60.5 153.5q0 103 71.5 173t173.5 70z"/>
<glyph glyph-name="ordfeminine" horiz-adv-x="203" unicode="ª" d="M127 569q0 -43 32 -43q20 0 37 19t17 48q0 41 -32 41q-20 0 -37 -18t-17 -47zM247 667h25l-41 -175h-22l-5 18q-23 -23 -53 -23q-27 0 -45.5 19t-18.5 54q0 42 26.5 77.5t68.5 35.5q36 0 50 -27z"/>
<glyph glyph-name="guillemotleft" horiz-adv-x="432" unicode="«" d="M348 70l-140 159l20 87l214 159l-31 -129l-113 -79l78 -79zM130 70l-140 159l20 87l214 159l-31 -129l-113 -79l78 -79z"/>
<glyph glyph-name="logicalnot" horiz-adv-x="419" unicode="¬" d="M276 140l28 124h-295l18 77h376l-47 -201h-80z"/>
<glyph glyph-name="uni00AD" horiz-adv-x="419" unicode="­" d="M17 341h376l-18 -77h-376z"/>
<glyph glyph-name="registered" horiz-adv-x="444" unicode="®" d="M262 684l-6 -73h45q42 0 42 41q0 32 -36 32h-45zM207 509l15 214h88q28 0 52.5 -16t24.5 -53q0 -28 -16 -48t-37 -28l40 -69h-47l-31 62h-42l-5 -62h-42zM278 427q83 0 141 58t58 141q0 75 -48.5 125t-124.5 50q-83 0 -141.5 -58t-58.5 -141q0 -75 49 -125t125 -50z M306 843q92 0 153 -61.5t61 -153.5q0 -103 -72 -173t-174 -70q-92 0 -152.5 61.5t-60.5 153.5q0 103 71.5 173t173.5 70z"/>
<glyph glyph-name="macron" horiz-adv-x="355" unicode="¯" d="M108 837h306l-18 -77h-306z"/>
<glyph glyph-name="degree" horiz-adv-x="326" unicode="°" d="M268 529q0 36 -22.5 58t-53.5 22t-53.5 -22t-22.5 -58t22.5 -58t53.5 -22t53.5 22t22.5 58zM40 529q0 65 43.5 107.5t108.5 42.5t108.5 -42.5t43.5 -107.5t-43.5 -107.5t-108.5 -42.5t-108.5 42.5t-43.5 107.5z"/>
<glyph glyph-name="plusminus" horiz-adv-x="481" unicode="±" d="M21 144h374l-18 -77h-374zM307 392l-34 -149h-84l34 149h-145l18 77h145l34 149h84l-34 -149h145l-18 -77h-145z"/>
<glyph glyph-name="twosuperior" horiz-adv-x="302" unicode="²" d="M267 387l-18 -77h-212l15 65q86 42 130 94t44 92q0 18 -9 29.5t-23 11.5t-25.5 -12t-11.5 -31q0 -7 3 -18l-75 -12q-2 16 -2 24q0 57 35 88.5t84 31.5q46 0 75 -28t29 -71q0 -46 -36.5 -97t-102.5 -90h100z"/>
<glyph glyph-name="threesuperior" horiz-adv-x="310" unicode="³" d="M94 417v-8q0 -22 12.5 -33.5t31.5 -11.5q25 0 40.5 17t16.5 38q0 18 -11 29.5t-34 11.5q-22 0 -49 -11l-16 62l82 71h-100l18 77h203l-15 -65l-84 -76q42 -5 63.5 -30.5t21.5 -60.5q0 -51 -41.5 -92t-108.5 -41q-46 0 -78 25t-33 71z"/>
<glyph glyph-name="acute" horiz-adv-x="237" unicode="´" d="M133 639l133 155l65 -59l-142 -146z"/>
<glyph glyph-name="paragraph" horiz-adv-x="557" unicode="¶" d="M365 356h58l52 226h-58zM278 356l52 226h-51q-60 0 -102 -37t-42 -94q0 -44 27.5 -69.5t84.5 -25.5h31zM580 659l-151 -659h-87l64 279h-59l-64 -279h-87l64 279h-35q-70 0 -124.5 42.5t-54.5 125.5q0 106 86 167q63 45 164 45h284z"/>
<glyph glyph-name="periodcentered" horiz-adv-x="200" unicode="·" d="M131 304q-23 0 -40.5 17t-17.5 40q0 25 19 44t44 19q23 0 40 -17.5t17 -41.5q0 -25 -18.5 -43t-43.5 -18z"/>
<glyph glyph-name="cedilla" horiz-adv-x="211" unicode="¸" d="M150 -34l-50 -133l-85 35l71 119z"/>
<glyph glyph-name="onesuperior" horiz-adv-x="228" unicode="¹" d="M81 615q26 0 48.5 13t32.5 31h80l-81 -349h-84l57 244q-31 -16 -71 -16z"/>
<glyph glyph-name="ordmasculine" horiz-adv-x="188" unicode="º" d="M158 524q25 0 42 20.5t17 47.5q0 20 -10 32t-29 12q-25 0 -41.5 -20t-16.5 -48q0 -44 38 -44zM155 487q-34 0 -54.5 21.5t-20.5 56.5q0 61 45 91q26 17 58 17q35 0 55 -22t20 -57q0 -53 -36 -83q-28 -24 -67 -24z"/>
<glyph glyph-name="guillemotright" horiz-adv-x="427" unicode="»" d="M302 460l135 -150l-20 -85l-203 -150l27 124l103 73l-69 75zM78 460l135 -150l-20 -85l-203 -150l27 124l103 73l-69 75z"/>
<glyph glyph-name="onequarter" horiz-adv-x="659" unicode="¼" d="M484 171l36 52h58l-20 -85h50l-18 -75h-43l-15 -66h-80l13 66h-170l14 57l162 226h93l-154 -208h67zM95 615q26 0 48.5 13t32.5 31h80l-81 -349h-84l57 244q-31 -16 -71 -16zM551 673h77l-546 -673h-77z"/>
<glyph glyph-name="onehalf" horiz-adv-x="651" unicode="½" d="M577 77l-18 -77h-212l15 65q86 42 130 94t44 92q0 18 -9 29.5t-23 11.5t-25.5 -12t-11.5 -31q0 -8 3 -18l-75 -12q-2 16 -2 24q0 57 35 88.5t84 31.5q46 0 75 -28t29 -71q0 -46 -36.5 -97t-102.5 -90h100zM95 615q26 0 48.5 13t32.5 31h80l-81 -349h-84l57 244 q-31 -16 -71 -16zM551 673h77l-546 -673h-77z"/>
<glyph glyph-name="threequarters" horiz-adv-x="650" unicode="¾" d="M475 171l36 52h58l-20 -85h50l-18 -75h-43l-15 -66h-80l13 66h-170l14 57l162 226h93l-154 -208h67zM27 417v-8q0 -22 12.5 -33.5t31.5 -11.5q25 0 40.5 17t16.5 38q0 18 -11 29.5t-34 11.5q-22 0 -49 -11l-16 62l82 71h-100l18 77h203l-15 -65l-84 -76q42 -5 63.5 -30.5 t21.5 -60.5q0 -51 -41.5 -92t-108.5 -41q-46 0 -78 25t-33 71zM542 673h77l-546 -673h-77z"/>
<glyph glyph-name="questiondown" horiz-adv-x="369" unicode="¿" d="M301 124q-17 -66 -63.5 -100.5t-101.5 -34.5q-54 0 -92 31.5t-38 84.5q0 32 14 60.5t45.5 55.5t55 43t68.5 43q40 24 56 41t16 36q0 17 -11 26.5t-28 9.5q-22 0 -44.5 -15.5t-33.5 -41.5l-67 26q21 52 64.5 81t90.5 29t78.5 -29t31.5 -81q0 -48 -26 -78t-79 -63 q-10 -6 -35.5 -21.5t-36.5 -22t-29.5 -20.5t-26.5 -23.5t-15 -23t-7 -27.5q0 -22 14 -33.5t35 -11.5q30 0 58.5 21.5t36.5 58.5zM299 679q25 0 42 -17t17 -43t-18.5 -45t-44.5 -19q-25 0 -43 17.5t-18 43.5t19 44.5t46 18.5z"/>
<glyph glyph-name="Agrave" horiz-adv-x="673" unicode="À" d="M185 243h271l-63 315zM471 166h-337l-110 -166h-107l446 659h95l142 -659h-96zM393 732l-82 180l88 37l68 -187z"/>
<glyph glyph-name="Aacute" horiz-adv-x="673" unicode="Á" d="M185 243h271l-63 315zM471 166h-337l-110 -166h-107l446 659h95l142 -659h-96zM359 759l133 155l65 -59l-142 -146z"/>
<glyph glyph-name="Acircumflex" horiz-adv-x="673" unicode="Â" d="M185 243h271l-63 315zM471 166h-337l-110 -166h-107l446 659h95l142 -659h-96zM248 742l151 134h66l89 -134h-97l-34 59l-63 -59h-112z"/>
<glyph glyph-name="Atilde" horiz-adv-x="673" unicode="Ã" d="M185 243h271l-63 315zM471 166h-337l-110 -166h-107l446 659h95l142 -659h-96zM257 754q8 42 33.5 69t64.5 27q29 0 63 -21t50 -21q27 0 37 37l73 -19q-8 -39 -32 -67t-65 -28q-29 0 -65 21t-51 21q-29 0 -36 -37z"/>
<glyph glyph-name="Adieresis" horiz-adv-x="673" unicode="Ä" d="M185 243h271l-63 315zM471 166h-337l-110 -166h-107l446 659h95l142 -659h-96zM493 730q-23 0 -40.5 17t-17.5 41q0 25 18.5 43.5t44.5 18.5q23 0 39.5 -17t16.5 -41q0 -26 -18 -44t-43 -18zM330 730q-24 0 -41 17t-17 41q0 25 18.5 43.5t43.5 18.5q23 0 40 -17t17 -41 q0 -26 -18 -44t-43 -18z"/>
<glyph glyph-name="Aring" horiz-adv-x="673" unicode="Å" d="M185 243h271l-63 315zM471 166h-337l-110 -166h-107l446 659h95l142 -659h-96zM428 893q-21 0 -34.5 -14.5t-13.5 -35.5t13.5 -36t34.5 -15t34 15t13 36t-13 35.5t-34 14.5zM428 732q-46 0 -78.5 32.5t-32.5 78.5t32.5 78.5t78.5 32.5t78.5 -32.5t32.5 -78.5t-32.5 -78.5 t-78.5 -32.5z"/>
<glyph glyph-name="AE" horiz-adv-x="798" unicode="Æ" d="M389 243v330l-216 -330h216zM123 166l-108 -166h-108l444 659h475l-18 -77h-335v-210h229l-18 -77h-211v-216h219l-18 -79h-285v166h-266z"/>
<glyph glyph-name="Ccedilla" horiz-adv-x="616" unicode="Ç" d="M260 -58l-50 -133l-85 35l71 119zM511 201l70 -44q-49 -84 -126.5 -130t-160.5 -46q-131 0 -201.5 86.5t-70.5 212.5q0 98 40 187.5t124 150.5t194 61q79 0 142.5 -41.5t93.5 -121.5l-77 -39q-20 59 -64 90t-100 31q-100 0 -182.5 -85.5t-82.5 -222.5q0 -110 55.5 -169 t136.5 -59q61 0 118 36.5t91 102.5z"/>
<glyph glyph-name="Egrave" d="M151 295l-50 -216h320l-18 -79h-407l151 659h408l-18 -77h-320l-48 -210h262l-18 -77h-262zM364 732l-82 180l88 37l68 -187z" unicode="È"/>
<glyph glyph-name="Eacute" d="M151 295l-50 -216h320l-18 -79h-407l151 659h408l-18 -77h-320l-48 -210h262l-18 -77h-262zM308 781l133 155l65 -59l-142 -146z" unicode="É"/>
<glyph glyph-name="Ecircumflex" d="M151 295l-50 -216h320l-18 -79h-407l151 659h408l-18 -77h-320l-48 -210h262l-18 -77h-262zM209 742l151 134h66l89 -134h-97l-34 59l-63 -59h-112z" unicode="Ê"/>
<glyph glyph-name="Edieresis" d="M151 295l-50 -216h320l-18 -79h-407l151 659h408l-18 -77h-320l-48 -210h262l-18 -77h-262zM457 732q-23 0 -40.5 17t-17.5 41q0 25 18.5 43.5t44.5 18.5q23 0 39.5 -17t16.5 -41q0 -26 -18 -44t-43 -18zM294 732q-24 0 -41 17t-17 41q0 25 18.5 43.5t43.5 18.5 q23 0 40 -17t17 -41q0 -26 -18 -44t-43 -18z" unicode="Ë"/>
<glyph glyph-name="Igrave" horiz-adv-x="230" unicode="Ì" d="M147 659h87l-151 -659h-87zM193 730l-82 180l88 37l68 -187z"/>
<glyph glyph-name="Iacute" horiz-adv-x="230" unicode="Í" d="M147 659h87l-151 -659h-87zM156 779l133 155l65 -59l-142 -146z"/>
<glyph glyph-name="Icircumflex" horiz-adv-x="230" unicode="Î" d="M147 659h87l-151 -659h-87zM47 742l151 134h66l89 -134h-97l-34 59l-63 -59h-112z"/>
<glyph glyph-name="Idieresis" horiz-adv-x="230" unicode="Ï" d="M147 659h87l-151 -659h-87zM292 731q-23 0 -40.5 17t-17.5 41q0 25 18.5 43.5t44.5 18.5q23 0 39.5 -17t16.5 -41q0 -26 -18 -44t-43 -18zM129 731q-24 0 -41 17t-17 41q0 25 18.5 43.5t43.5 18.5q23 0 40 -17t17 -41q0 -26 -18 -44t-43 -18z"/>
<glyph glyph-name="Eth" horiz-adv-x="624" unicode="Ð" d="M101 79h112q69 0 127.5 29t96 74.5t58 100.5t20.5 109q0 82 -47 136t-137 54h-115l-38 -165h193l-17 -73h-192zM147 659h197q125 0 191.5 -78t66.5 -192q0 -56 -16 -111t-49 -105.5t-79 -88.5t-111 -61t-139 -23h-212l80 344h-70l17 73h69z"/>
<glyph glyph-name="Ntilde" horiz-adv-x="643" unicode="Ñ" d="M83 0h-87l151 659h85l212 -510l116 510h87l-151 -659h-83l-213 512zM248 752q8 42 33.5 69t64.5 27q28 0 62.5 -21t50.5 -21q27 0 37 37l73 -19q-8 -39 -32 -67t-65 -28q-29 0 -65 21t-51 21q-29 0 -36 -37z"/>
<glyph glyph-name="Ograve" horiz-adv-x="695" unicode="Ò" d="M312 62q62 0 115 28t87 73.5t53 101t19 112.5q0 94 -51 157.5t-150 63.5q-83 0 -147.5 -48.5t-95 -118.5t-30.5 -146q0 -95 51.5 -159t148.5 -64zM389 679q139 0 212 -87t73 -214q0 -72 -24.5 -142t-69.5 -127.5t-116 -92.5t-156 -35q-138 0 -211 85.5t-73 212.5 q0 72 24 142t68.5 128t115.5 94t157 36zM408 731l-82 180l88 37l68 -187z"/>
<glyph glyph-name="Oacute" horiz-adv-x="695" unicode="Ó" d="M312 62q62 0 115 28t87 73.5t53 101t19 112.5q0 94 -51 157.5t-150 63.5q-83 0 -147.5 -48.5t-95 -118.5t-30.5 -146q0 -95 51.5 -159t148.5 -64zM389 679q139 0 212 -87t73 -214q0 -72 -24.5 -142t-69.5 -127.5t-116 -92.5t-156 -35q-138 0 -211 85.5t-73 212.5 q0 72 24 142t68.5 128t115.5 94t157 36zM367 781l133 155l65 -59l-142 -146z"/>
<glyph glyph-name="Ocircumflex" horiz-adv-x="695" unicode="Ô" d="M312 62q62 0 115 28t87 73.5t53 101t19 112.5q0 94 -51 157.5t-150 63.5q-83 0 -147.5 -48.5t-95 -118.5t-30.5 -146q0 -95 51.5 -159t148.5 -64zM389 679q139 0 212 -87t73 -214q0 -72 -24.5 -142t-69.5 -127.5t-116 -92.5t-156 -35q-138 0 -211 85.5t-73 212.5 q0 72 24 142t68.5 128t115.5 94t157 36zM265 742l151 134h66l89 -134h-97l-34 59l-63 -59h-112z"/>
<glyph glyph-name="Otilde" horiz-adv-x="695" unicode="Õ" d="M312 62q62 0 115 28t87 73.5t53 101t19 112.5q0 94 -51 157.5t-150 63.5q-83 0 -147.5 -48.5t-95 -118.5t-30.5 -146q0 -95 51.5 -159t148.5 -64zM389 679q139 0 212 -87t73 -214q0 -72 -24.5 -142t-69.5 -127.5t-116 -92.5t-156 -35q-138 0 -211 85.5t-73 212.5 q0 72 24 142t68.5 128t115.5 94t157 36zM279 755q8 42 33.5 69t64.5 27q29 0 63 -21t50 -21q27 0 37 37l73 -19q-8 -39 -32 -67t-65 -28q-29 0 -65 21t-51 21q-29 0 -36 -37z"/>
<glyph glyph-name="Odieresis" horiz-adv-x="695" unicode="Ö" d="M312 62q62 0 115 28t87 73.5t53 101t19 112.5q0 94 -51 157.5t-150 63.5q-83 0 -147.5 -48.5t-95 -118.5t-30.5 -146q0 -95 51.5 -159t148.5 -64zM389 679q139 0 212 -87t73 -214q0 -72 -24.5 -142t-69.5 -127.5t-116 -92.5t-156 -35q-138 0 -211 85.5t-73 212.5 q0 72 24 142t68.5 128t115.5 94t157 36zM514 740q-23 0 -40.5 17t-17.5 41q0 25 18.5 43.5t44.5 18.5q23 0 39.5 -17t16.5 -41q0 -26 -18 -44t-43 -18zM351 740q-24 0 -41 17t-17 41q0 25 18.5 43.5t43.5 18.5q23 0 40 -17t17 -41q0 -26 -18 -44t-43 -18z"/>
<glyph glyph-name="multiply" horiz-adv-x="382" unicode="×" d="M280 138l-90 117l-145 -118l-53 70l145 117l-85 111l74 60l85 -111l147 120l53 -70l-147 -119l90 -117z"/>
<glyph glyph-name="Oslash" horiz-adv-x="695" unicode="Ø" d="M312 62q62 0 115 28t87 73.5t53 101t19 112.5q0 111 -66 173l-276 -478q33 -10 68 -10zM112 285q0 -126 79 -186l279 483q-38 16 -85 16q-83 0 -147.5 -48.5t-95 -118.5t-30.5 -146zM624 730l-60 -104q55 -41 82.5 -106t27.5 -142q0 -72 -24.5 -142t-69.5 -127.5 t-116 -92.5t-156 -35q-58 0 -107 17l-37 -65h-69l52 91q-61 39 -92 106.5t-31 148.5q0 72 24 142t68.5 128t115.5 94t157 36q69 0 123 -23l43 74h69z"/>
<glyph glyph-name="Ugrave" horiz-adv-x="619" unicode="Ù" d="M534 230q-28 -120 -110.5 -184.5t-179.5 -64.5q-88 0 -148 51.5t-60 141.5q0 26 8 63l97 422h87l-95 -417q-6 -28 -6 -53q0 -61 36 -94t90 -33q63 0 119.5 43.5t73.5 118.5l100 435h87zM387 731l-82 180l88 37l68 -187z"/>
<glyph glyph-name="Uacute" horiz-adv-x="619" unicode="Ú" d="M534 230q-28 -120 -110.5 -184.5t-179.5 -64.5q-88 0 -148 51.5t-60 141.5q0 26 8 63l97 422h87l-95 -417q-6 -28 -6 -53q0 -61 36 -94t90 -33q63 0 119.5 43.5t73.5 118.5l100 435h87zM329 781l133 155l65 -59l-142 -146z"/>
<glyph glyph-name="Ucircumflex" horiz-adv-x="619" unicode="Û" d="M534 230q-28 -120 -110.5 -184.5t-179.5 -64.5q-88 0 -148 51.5t-60 141.5q0 26 8 63l97 422h87l-95 -417q-6 -28 -6 -53q0 -61 36 -94t90 -33q63 0 119.5 43.5t73.5 118.5l100 435h87zM237 741l151 134h66l89 -134h-97l-34 59l-63 -59h-112z"/>
<glyph glyph-name="Udieresis" horiz-adv-x="619" unicode="Ü" d="M534 230q-28 -120 -110.5 -184.5t-179.5 -64.5q-88 0 -148 51.5t-60 141.5q0 26 8 63l97 422h87l-95 -417q-6 -28 -6 -53q0 -61 36 -94t90 -33q63 0 119.5 43.5t73.5 118.5l100 435h87zM477 731q-23 0 -40.5 17t-17.5 41q0 25 18.5 43.5t44.5 18.5q23 0 39.5 -17 t16.5 -41q0 -26 -18 -44t-43 -18zM314 731q-24 0 -41 17t-17 41q0 25 18.5 43.5t43.5 18.5q23 0 40 -17t17 -41q0 -26 -18 -44t-43 -18z"/>
<glyph glyph-name="Yacute" horiz-adv-x="584" unicode="Ý" d="M168 0l66 287l-154 372h101l111 -281l240 281h116l-327 -373l-66 -286h-87zM298 779l133 155l65 -59l-142 -146z"/>
<glyph glyph-name="Thorn" horiz-adv-x="533" unicode="Þ" d="M236 59q63 0 113 56.5t50 152.5q0 69 -28.5 109t-85.5 40q-74 0 -120.5 -65t-46.5 -148q0 -69 33.5 -107t84.5 -38zM306 491q73 0 125 -53.5t52 -162.5q0 -133 -76 -211.5t-171 -78.5q-101 0 -151 91l-64 -276h-81l180 784l89 31l-43 -186q22 26 60.5 44t79.5 18z"/>
<glyph glyph-name="germandbls" horiz-adv-x="500" unicode="ß" d="M480 541q0 -26 -9.5 -51.5t-21 -42.5t-34 -37.5t-35.5 -30.5t-38.5 -27.5t-31.5 -21.5q138 -104 138 -193q0 -65 -54.5 -108.5t-127.5 -43.5q-99 0 -139 76l72 46q28 -47 76 -47q38 0 62 24t24 55q0 26 -20.5 50.5t-45 41t-45 42t-20.5 52.5q0 25 17 46.5t41 37.5 t48 32.5t41 39t17 49.5q0 34 -23 54t-58 20q-44 0 -84.5 -32t-55.5 -95l-110 -477h-80l114 495q21 88 85.5 136t139.5 48q67 0 112.5 -37t45.5 -101z"/>
<glyph glyph-name="agrave" horiz-adv-x="525" unicode="à" d="M85 200q0 -70 30.5 -105.5t76.5 -35.5q67 0 125 64t58 160q0 68 -30.5 101t-77.5 33q-68 0 -125 -60t-57 -157zM438 476h67l-109 -476h-61l-12 48q-66 -63 -145 -63q-73 0 -123 52t-50 146q0 73 30 142.5t90.5 117.5t137.5 48q97 0 134 -74zM308 550l-82 180l88 37 l68 -187z"/>
<glyph glyph-name="aacute" horiz-adv-x="525" unicode="á" d="M85 200q0 -70 30.5 -105.5t76.5 -35.5q67 0 125 64t58 160q0 68 -30.5 101t-77.5 33q-68 0 -125 -60t-57 -157zM438 476h67l-109 -476h-61l-12 48q-66 -63 -145 -63q-73 0 -123 52t-50 146q0 73 30 142.5t90.5 117.5t137.5 48q97 0 134 -74zM247 600l133 155l65 -59 l-142 -146z"/>
<glyph glyph-name="acircumflex" horiz-adv-x="525" unicode="â" d="M85 200q0 -70 30.5 -105.5t76.5 -35.5q67 0 125 64t58 160q0 68 -30.5 101t-77.5 33q-68 0 -125 -60t-57 -157zM438 476h67l-109 -476h-61l-12 48q-66 -63 -145 -63q-73 0 -123 52t-50 146q0 73 30 142.5t90.5 117.5t137.5 48q97 0 134 -74zM157 561l151 134h66l89 -134 h-97l-34 59l-63 -59h-112z"/>
<glyph glyph-name="atilde" horiz-adv-x="525" unicode="ã" d="M85 200q0 -70 30.5 -105.5t76.5 -35.5q67 0 125 64t58 160q0 68 -30.5 101t-77.5 33q-68 0 -125 -60t-57 -157zM438 476h67l-109 -476h-61l-12 48q-66 -63 -145 -63q-73 0 -123 52t-50 146q0 73 30 142.5t90.5 117.5t137.5 48q97 0 134 -74zM170 572q8 42 33.5 69 t64.5 27q28 0 62 -21t51 -21q27 0 37 37l73 -19q-8 -39 -32 -67t-65 -28q-29 0 -65 21t-51 21q-29 0 -36 -37z"/>
<glyph glyph-name="adieresis" horiz-adv-x="525" unicode="ä" d="M85 200q0 -70 30.5 -105.5t76.5 -35.5q67 0 125 64t58 160q0 68 -30.5 101t-77.5 33q-68 0 -125 -60t-57 -157zM438 476h67l-109 -476h-61l-12 48q-66 -63 -145 -63q-73 0 -123 52t-50 146q0 73 30 142.5t90.5 117.5t137.5 48q97 0 134 -74zM406 561q-23 0 -40.5 17 t-17.5 41q0 25 18.5 43.5t44.5 18.5q23 0 39.5 -17t16.5 -41q0 -26 -18 -44t-43 -18zM243 561q-24 0 -41 17t-17 41q0 25 18.5 43.5t43.5 18.5q23 0 40 -17t17 -41q0 -26 -18 -44t-43 -18z"/>
<glyph glyph-name="aring" horiz-adv-x="525" unicode="å" d="M85 200q0 -70 30.5 -105.5t76.5 -35.5q67 0 125 64t58 160q0 68 -30.5 101t-77.5 33q-68 0 -125 -60t-57 -157zM438 476h67l-109 -476h-61l-12 48q-66 -63 -145 -63q-73 0 -123 52t-50 146q0 73 30 142.5t90.5 117.5t137.5 48q97 0 134 -74zM354 712q-21 0 -34.5 -14.5 t-13.5 -35.5t13.5 -36t34.5 -15t34 15t13 36t-13 35.5t-34 14.5zM354 551q-46 0 -78.5 32.5t-32.5 78.5t32.5 78.5t78.5 32.5t78.5 -32.5t32.5 -78.5t-32.5 -78.5t-78.5 -32.5z"/>
<glyph glyph-name="ae" horiz-adv-x="787" unicode="æ" d="M287 239q-18 -9 -63 -16.5t-82 -13.5t-67 -27.5t-30 -58.5q0 -32 22 -48.5t55 -16.5q58 0 109 47.5t56 133.5zM555 417q-54 0 -102 -36t-66 -103h268q4 19 4 38q0 49 -29.5 75t-74.5 26zM724 206h-346q-1 -69 38 -108t95 -39q80 0 122 67l63 -45q-34 -46 -86 -71 t-108 -25q-64 0 -114.5 32.5t-73.5 93.5q-32 -57 -88.5 -91.5t-115.5 -34.5q-66 0 -106.5 41t-40.5 100q0 104 126 135q22 6 71.5 13t79 13t54.5 23.5t25 45.5q0 35 -31.5 49.5t-65.5 14.5q-65 0 -126 -59l-54 51q78 79 189 79q52 0 89 -16t67 -53q75 69 175 69 q77 0 128.5 -47.5t51.5 -133.5q0 -43 -18 -104z"/>
<glyph glyph-name="ccedilla" horiz-adv-x="456" unicode="ç" d="M186 -68l-50 -133l-85 35l71 119zM443 384l-72 -35q-30 68 -108 68q-68 0 -123 -56t-55 -148q0 -75 37 -114.5t91 -39.5q79 0 126 74l64 -44q-34 -48 -86 -76t-111 -28q-84 0 -142.5 57.5t-58.5 166.5q0 129 79.5 205.5t180.5 76.5q58 0 105.5 -27.5t72.5 -79.5z"/>
<glyph glyph-name="egrave" horiz-adv-x="493" unicode="è" d="M94 278h268q4 19 4 38q0 49 -29.5 75t-74.5 26q-54 0 -102 -36t-66 -103zM431 206h-346q-1 -69 38 -108t95 -39q80 0 122 67l63 -45q-34 -46 -86 -71t-108 -25q-85 0 -144.5 57t-59.5 166q0 129 80.5 206t183.5 77q77 0 128.5 -48t51.5 -137q0 -39 -18 -100zM300 549 l-82 180l88 37l68 -187z"/>
<glyph glyph-name="eacute" horiz-adv-x="493" unicode="é" d="M94 278h268q4 19 4 38q0 49 -29.5 75t-74.5 26q-54 0 -102 -36t-66 -103zM431 206h-346q-1 -69 38 -108t95 -39q80 0 122 67l63 -45q-34 -46 -86 -71t-108 -25q-85 0 -144.5 57t-59.5 166q0 129 80.5 206t183.5 77q77 0 128.5 -48t51.5 -137q0 -39 -18 -100zM269 600 l133 155l65 -59l-142 -146z"/>
<glyph glyph-name="ecircumflex" horiz-adv-x="493" unicode="ê" d="M94 278h268q4 19 4 38q0 49 -29.5 75t-74.5 26q-54 0 -102 -36t-66 -103zM431 206h-346q-1 -69 38 -108t95 -39q80 0 122 67l63 -45q-34 -46 -86 -71t-108 -25q-85 0 -144.5 57t-59.5 166q0 129 80.5 206t183.5 77q77 0 128.5 -48t51.5 -137q0 -39 -18 -100zM139 562 l151 134h66l89 -134h-97l-34 59l-63 -59h-112z"/>
<glyph glyph-name="edieresis" horiz-adv-x="493" unicode="ë" d="M94 278h268q4 19 4 38q0 49 -29.5 75t-74.5 26q-54 0 -102 -36t-66 -103zM431 206h-346q-1 -69 38 -108t95 -39q80 0 122 67l63 -45q-34 -46 -86 -71t-108 -25q-85 0 -144.5 57t-59.5 166q0 129 80.5 206t183.5 77q77 0 128.5 -48t51.5 -137q0 -39 -18 -100zM386 549 q-23 0 -40.5 17t-17.5 41q0 25 18.5 43.5t44.5 18.5q23 0 39.5 -17t16.5 -41q0 -26 -18 -44t-43 -18zM223 549q-24 0 -41 17t-17 41q0 25 18.5 43.5t43.5 18.5q23 0 40 -17t17 -41q0 -26 -18 -44t-43 -18z"/>
<glyph glyph-name="igrave" horiz-adv-x="208" unicode="ì" d="M-13 0l110 476h81l-110 -476h-81zM129 549l-82 180l88 37l68 -187z"/>
<glyph glyph-name="iacute" horiz-adv-x="208" unicode="í" d="M-13 0l110 476h81l-110 -476h-81zM103 600l133 155l65 -59l-142 -146z"/>
<glyph glyph-name="icircumflex" horiz-adv-x="208" unicode="î" d="M-13 0l110 476h81l-110 -476h-81zM-10 561l151 134h66l89 -134h-97l-34 59l-63 -59h-112z"/>
<glyph glyph-name="idieresis" horiz-adv-x="208" unicode="ï" d="M-13 0l110 476h81l-110 -476h-81zM232 549q-23 0 -40.5 17t-17.5 41q0 25 18.5 43.5t44.5 18.5q23 0 39.5 -17t16.5 -41q0 -26 -18 -44t-43 -18zM69 549q-24 0 -41 17t-17 41q0 25 18.5 43.5t43.5 18.5q23 0 40 -17t17 -41q0 -26 -18 -44t-43 -18z"/>
<glyph glyph-name="eth" horiz-adv-x="579" unicode="ð" d="M230 66q80 0 145.5 58.5t85.5 158.5q-81 91 -190 91q-74 0 -125.5 -46.5t-51.5 -123.5q0 -62 36.5 -100t99.5 -38zM488 719l-44 -82q55 -40 83.5 -110.5t28.5 -153.5q0 -97 -36.5 -185t-113 -147.5t-175.5 -59.5t-163.5 58t-64.5 163q0 118 79.5 186.5t191.5 68.5 q123 0 206 -82q0 126 -75 189l-36 -67h-72l51 97q-21 7 -46 7q-78 0 -139 -71l-52 56q78 93 201 93q41 0 74 -12l27 52h75z"/>
<glyph glyph-name="ntilde" horiz-adv-x="517" unicode="ñ" d="M-11 0l110 476h62l13 -51q60 66 147 66q57 0 94.5 -34.5t37.5 -98.5q0 -27 -7 -55l-69 -303h-81l68 301q5 22 5 37q0 38 -21.5 58.5t-54.5 20.5q-50 0 -98.5 -41.5t-64.5 -113.5l-60 -262h-81zM157 571q8 42 33.5 69t64.5 27q29 0 63 -21t50 -21q27 0 37 37l73 -19 q-8 -39 -32 -67t-65 -28q-29 0 -65 21t-51 21q-29 0 -36 -37z"/>
<glyph glyph-name="ograve" d="M220 59q79 0 130.5 64t51.5 143q0 63 -35.5 107t-100.5 44q-79 0 -130 -64.5t-51 -142.5q0 -63 35.5 -107t99.5 -44zM482 268q0 -119 -75.5 -201t-191.5 -82q-99 0 -154.5 61.5t-55.5 161.5q0 121 77.5 202t191.5 81q98 0 153 -62t55 -161zM303 550l-82 180l88 37 l68 -187z" unicode="ò"/>
<glyph glyph-name="oacute" d="M220 59q79 0 130.5 64t51.5 143q0 63 -35.5 107t-100.5 44q-79 0 -130 -64.5t-51 -142.5q0 -63 35.5 -107t99.5 -44zM482 268q0 -119 -75.5 -201t-191.5 -82q-99 0 -154.5 61.5t-55.5 161.5q0 121 77.5 202t191.5 81q98 0 153 -62t55 -161zM262 600l133 155l65 -59 l-142 -146z" unicode="ó"/>
<glyph glyph-name="ocircumflex" d="M220 59q79 0 130.5 64t51.5 143q0 63 -35.5 107t-100.5 44q-79 0 -130 -64.5t-51 -142.5q0 -63 35.5 -107t99.5 -44zM482 268q0 -119 -75.5 -201t-191.5 -82q-99 0 -154.5 61.5t-55.5 161.5q0 121 77.5 202t191.5 81q98 0 153 -62t55 -161zM147 562l151 134h66l89 -134 h-97l-34 59l-63 -59h-112z" unicode="ô"/>
<glyph glyph-name="otilde" d="M220 59q79 0 130.5 64t51.5 143q0 63 -35.5 107t-100.5 44q-79 0 -130 -64.5t-51 -142.5q0 -63 35.5 -107t99.5 -44zM482 268q0 -119 -75.5 -201t-191.5 -82q-99 0 -154.5 61.5t-55.5 161.5q0 121 77.5 202t191.5 81q98 0 153 -62t55 -161zM145 581q8 42 33.5 69t64.5 27 q29 0 63 -21t50 -21q27 0 37 37l73 -19q-8 -39 -32 -67t-65 -28q-29 0 -65 21t-51 21q-29 0 -36 -37z" unicode="õ"/>
<glyph glyph-name="odieresis" d="M220 59q79 0 130.5 64t51.5 143q0 63 -35.5 107t-100.5 44q-79 0 -130 -64.5t-51 -142.5q0 -63 35.5 -107t99.5 -44zM482 268q0 -119 -75.5 -201t-191.5 -82q-99 0 -154.5 61.5t-55.5 161.5q0 121 77.5 202t191.5 81q98 0 153 -62t55 -161zM396 550q-23 0 -40.5 17 t-17.5 41q0 25 18.5 43.5t44.5 18.5q23 0 39.5 -17t16.5 -41q0 -26 -18 -44t-43 -18zM233 550q-24 0 -41 17t-17 41q0 25 18.5 43.5t43.5 18.5q23 0 40 -17t17 -41q0 -26 -18 -44t-43 -18z" unicode="ö"/>
<glyph glyph-name="divide" horiz-adv-x="419" unicode="÷" d="M150 55q-25 0 -42 17t-17 42q0 27 18.5 46t44.5 19t43.5 -17.5t17.5 -43.5t-19 -44.5t-46 -18.5zM27 341h376l-18 -77h-376zM235 418q-25 0 -42 17t-17 42q0 27 18.5 46t44.5 19q25 0 43 -18t18 -43q0 -26 -19 -44.5t-46 -18.5z"/>
<glyph glyph-name="oslash" d="M220 59q79 0 130.5 64t51.5 143q0 66 -38 109l-180 -312q15 -4 36 -4zM85 210q0 -76 46 -118l184 317q-24 8 -49 8q-79 0 -130 -64.5t-51 -142.5zM466 552l-60 -104q76 -59 76 -180q0 -119 -75.5 -201t-191.5 -82q-40 0 -70 10l-36 -62h-69l50 87q-85 60 -85 188 q0 121 77.5 202t191.5 81q41 0 80 -13l43 74h69z" unicode="ø"/>
<glyph glyph-name="ugrave" horiz-adv-x="499" unicode="ù" d="M468 476l-110 -476h-62l-10 41q-59 -56 -138 -56q-58 0 -97 35t-39 101q0 25 6 53l69 302h81l-68 -298q-4 -16 -4 -34q0 -38 22 -59t56 -21q47 0 92 40t61 112l59 260h82zM289 551l-82 180l88 37l68 -187z"/>
<glyph glyph-name="uacute" horiz-adv-x="499" unicode="ú" d="M468 476l-110 -476h-62l-10 41q-59 -56 -138 -56q-58 0 -97 35t-39 101q0 25 6 53l69 302h81l-68 -298q-4 -16 -4 -34q0 -38 22 -59t56 -21q47 0 92 40t61 112l59 260h82zM231 605l133 155l65 -59l-142 -146z"/>
<glyph glyph-name="ucircumflex" horiz-adv-x="499" unicode="û" d="M468 476l-110 -476h-62l-10 41q-59 -56 -138 -56q-58 0 -97 35t-39 101q0 25 6 53l69 302h81l-68 -298q-4 -16 -4 -34q0 -38 22 -59t56 -21q47 0 92 40t61 112l59 260h82zM135 565l151 134h66l89 -134h-97l-34 59l-63 -59h-112z"/>
<glyph glyph-name="udieresis" horiz-adv-x="499" unicode="ü" d="M468 476l-110 -476h-62l-10 41q-59 -56 -138 -56q-58 0 -97 35t-39 101q0 25 6 53l69 302h81l-68 -298q-4 -16 -4 -34q0 -38 22 -59t56 -21q47 0 92 40t61 112l59 260h82zM370 554q-23 0 -40.5 17t-17.5 41q0 25 18.5 43.5t44.5 18.5q23 0 39.5 -17t16.5 -41 q0 -26 -18 -44t-43 -18zM207 554q-24 0 -41 17t-17 41q0 25 18.5 43.5t43.5 18.5q23 0 40 -17t17 -41q0 -26 -18 -44t-43 -18z"/>
<glyph glyph-name="yacute" horiz-adv-x="540" unicode="ý" d="M347 48q-60 -63 -149 -63q-66 0 -113 41t-47 110q0 26 5 46l67 294h81l-68 -296q-4 -16 -4 -33q0 -42 25.5 -65t64.5 -23q54 0 103.5 42.5t67.5 119.5l59 255h81l-107 -470q-25 -109 -102.5 -165.5t-166.5 -56.5q-69 0 -122.5 33.5t-71.5 93.5l70 29q18 -41 53 -63 t77 -22q67 0 121.5 47.5t75.5 145.5zM266 602l133 155l65 -59l-142 -146z"/>
<glyph glyph-name="thorn" horiz-adv-x="553" unicode="þ" d="M154 312h194q64 0 103.5 42t39.5 94q0 39 -23.5 64.5t-69.5 25.5h-192l-36 -159zM223 615h193q77 0 120 -47.5t43 -116.5q0 -85 -63.5 -150.5t-176.5 -65.5h-202l-2 -6l-52 -229h-87l160 699h86z"/>
<glyph glyph-name="OE" horiz-adv-x="804" unicode="Œ" d="M225 522q-114 -82 -114 -227q0 -97 53 -157.5t136 -60.5l116 505q-107 0 -191 -60zM185 593q98 66 237 66h410l-18 -77h-310l-48 -210h252l-18 -77h-252l-51 -217h310l-17 -78h-390q-114 0 -189 78.5t-75 209.5q0 97 43 176.5t116 128.5z"/>
<glyph glyph-name="oe" horiz-adv-x="891" unicode="œ" d="M660 417q-53 0 -101.5 -35.5t-66.5 -103.5h268q4 19 4 38q0 49 -29.5 75t-74.5 26zM223 59q79 0 130.5 64t51.5 143q0 63 -35.5 107t-100.5 44q-79 0 -130 -64.5t-51 -142.5q0 -63 35.5 -107t99.5 -44zM829 206h-346q-1 -69 38 -108t95 -39q80 0 122 67l63 -45 q-33 -44 -84.5 -70t-110.5 -26q-57 0 -104.5 25.5t-73.5 76.5q-79 -102 -210 -102q-99 0 -156 61.5t-57 161.5q0 121 78.5 202t192.5 81q128 0 184 -104q39 51 95 77.5t112 26.5q77 0 128.5 -47.5t51.5 -133.5q0 -43 -18 -104z"/>
<glyph glyph-name="Scaron" horiz-adv-x="453" unicode="Š" d="M44 186q8 -57 50.5 -89t93.5 -32q46 0 78.5 27.5t32.5 76.5q0 27 -13.5 53.5t-28 42t-45.5 45.5q-41 39 -61 61t-38.5 60t-18.5 78q0 79 54 124.5t128 45.5q61 0 110 -32t65 -92l-76 -31q-11 36 -39.5 55.5t-61.5 19.5q-36 0 -62 -23t-26 -62q0 -12 2 -23t9 -22.5t11 -19 t16 -20t17 -17.5t21 -20.5t21 -19.5q56 -53 82.5 -96t26.5 -99q0 -90 -64.5 -143t-150.5 -53q-81 0 -144 47.5t-74 137.5zM180 877h97l34 -59l64 59h112l-151 -134h-67z"/>
<glyph glyph-name="scaron" horiz-adv-x="395" unicode="š" d="M28 152q9 -44 46 -68.5t80 -24.5q37 0 61.5 17t24.5 48q0 13 -3.5 23t-16 21.5t-18.5 16.5t-28 19.5t-28 18.5q-28 20 -45 34.5t-32.5 42t-15.5 59.5q0 61 46.5 96.5t110.5 35.5q46 0 87 -20t64 -58l-69 -47q-12 24 -37 38t-52 14t-45.5 -14t-18.5 -40q0 -7 1.5 -13.5 t5 -13t6 -11.5t10 -11.5t10.5 -10t13 -10.5t13 -9.5t15 -10.5l15 -10q23 -15 36.5 -25.5t30 -27.5t24 -37t7.5 -44q0 -65 -54.5 -105t-128.5 -40q-65 0 -118.5 33t-74.5 96zM117 699h97l34 -59l64 59h112l-151 -134h-67z"/>
<glyph glyph-name="Ydieresis" horiz-adv-x="584" unicode="Ÿ" d="M168 0l66 287l-154 372h101l111 -281l240 281h116l-327 -373l-66 -286h-87zM435 732q-23 0 -40.5 17t-17.5 41q0 25 18.5 43.5t44.5 18.5q23 0 39.5 -17t16.5 -41q0 -26 -18 -44t-43 -18zM272 732q-24 0 -41 17t-17 41q0 25 18.5 43.5t43.5 18.5q23 0 40 -17t17 -41 q0 -26 -18 -44t-43 -18z"/>
<glyph glyph-name="circumflex" horiz-adv-x="294" unicode="ˆ" d="M50 622l151 134h66l89 -134h-97l-34 59l-63 -59h-112z"/>
<glyph glyph-name="tilde" horiz-adv-x="316" unicode="˜" d="M93 667q8 42 33.5 69t64.5 27q29 0 63 -21t50 -21q27 0 37 37l73 -19q-8 -39 -32 -67t-65 -28q-29 0 -65 21t-51 21q-29 0 -36 -37z"/>
<glyph glyph-name="Delta" horiz-adv-x="649" unicode="Δ" d="M67 79h412l-95 479zM586 0h-679l446 659h91z"/>
<glyph glyph-name="mu" horiz-adv-x="481" unicode="μ" d="M358 0h-62l-10 41q-59 -56 -138 -56q-51 0 -86 26l-48 -211h-81l154 676h82l-72 -313q-1 -7 -1 -20q0 -38 20 -58.5t52 -20.5q49 0 97 44.5t64 117.5l57 250h82z"/>
<glyph glyph-name="pi" horiz-adv-x="568" unicode="π" d="M511 404h-70l-60 -257q-4 -20 -4 -30q0 -41 41 -41q24 0 55 11l-20 -84q-27 -11 -65 -11q-61 0 -85 50q-10 23 -10 50q0 28 13 80l53 232h-164l-93 -404h-82l93 404h-65l17 72h463z"/>
<glyph glyph-name="endash" horiz-adv-x="504" unicode="–" d="M27 341h461l-18 -77h-461z"/>
<glyph glyph-name="emdash" horiz-adv-x="719" unicode="—" d="M27 341h676l-18 -77h-676z"/>
<glyph glyph-name="quoteleft" horiz-adv-x="157" unicode="‘" d="M130 580q18 -1 34 -15t16 -36q0 -30 -18 -47t-45 -17q-25 0 -42 20t-17 51q0 54 43 99t119 52l-10 -48q-29 -3 -52 -18.5t-28 -40.5z"/>
<glyph glyph-name="quotesinglbase" horiz-adv-x="159" unicode="‚" d="M-3 -3q-18 1 -34 15t-16 36q0 30 18 47t45 17q25 0 42 -20t17 -51q0 -54 -43 -99t-119 -52l10 48q29 3 52 18.5t28 40.5z"/>
<glyph glyph-name="quotedblleft" horiz-adv-x="317" unicode="“" d="M310 580q18 -1 34 -15t16 -36q0 -30 -18 -47t-45 -17q-25 0 -42 20t-17 51q0 54 43 99t119 52l-10 -48q-29 -3 -52 -18.5t-28 -40.5zM140 580q18 -1 34 -15t16 -36q0 -30 -18 -47t-45 -17q-25 0 -42 20t-17 51q0 54 43 99t119 52l-10 -48q-29 -3 -52 -18.5t-28 -40.5z "/>
<glyph glyph-name="quotedblright" horiz-adv-x="317" unicode="”" d="M275 562q-18 1 -34 15t-16 36q0 30 18 47t45 17q25 0 42 -20t17 -51q0 -54 -43 -99t-119 -52l10 48q29 3 52 18.5t28 40.5zM105 562q-18 1 -34 15t-16 36q0 30 18 47t45 17q25 0 42 -20t17 -51q0 -54 -43 -99t-119 -52l10 48q29 3 52 18.5t28 40.5z"/>
<glyph glyph-name="dagger" horiz-adv-x="413" unicode="†" d="M194 476l46 197h81l-46 -197h148l-17 -75h-148l-92 -401h-81l92 401h-147l17 75h147z"/>
<glyph glyph-name="daggerdbl" horiz-adv-x="448" unicode="‡" d="M229 476l46 197h81l-46 -197h148l-17 -75h-148l-17 -75h147l-17 -75h-147l-58 -251h-81l58 251h-148l17 75h148l17 75h-147l17 75h147z"/>
<glyph glyph-name="ellipsis" horiz-adv-x="572" unicode="…" d="M417 -10q-25 0 -42 17t-17 42q0 27 18.5 46t44.5 19q25 0 43 -18t18 -43q0 -26 -19 -44.5t-46 -18.5zM227 -10q-25 0 -42 17t-17 42q0 27 18.5 46t44.5 19q25 0 43 -18t18 -43q0 -26 -19 -44.5t-46 -18.5zM37 -10q-25 0 -42 17t-17 42q0 27 18.5 46t44.5 19q25 0 43 -18 t18 -43q0 -26 -19 -44.5t-46 -18.5z"/>
<glyph glyph-name="perthousand" horiz-adv-x="1005" unicode="‰" d="M929 131q0 36 -22.5 58t-53.5 22t-53.5 -22t-22.5 -58t22.5 -58t53.5 -22t53.5 22t22.5 58zM589 131q0 36 -22.5 58t-53.5 22t-53.5 -22t-22.5 -58t22.5 -58t53.5 -22t53.5 22t22.5 58zM701 131q0 65 43.5 107.5t108.5 42.5t108.5 -42.5t43.5 -107.5t-43.5 -107.5 t-108.5 -42.5t-108.5 42.5t-43.5 107.5zM361 131q0 65 43.5 107.5t108.5 42.5t108.5 -42.5t43.5 -107.5t-43.5 -107.5t-108.5 -42.5t-108.5 42.5t-43.5 107.5zM215 449q31 0 53.5 22t22.5 58t-22.5 58t-53.5 22t-53.5 -22t-22.5 -58t22.5 -58t53.5 -22zM135 0h-75l448 552 q-31 -21 -70 -21q-48 0 -79 28q3 -12 3 -30q0 -66 -41 -108t-106 -42t-108.5 42t-43.5 107t43.5 108t105.5 43q34 0 68 -15.5t57 -34t54 -34t60 -15.5q65 0 144 79h75z"/>
<glyph glyph-name="guilsinglleft" horiz-adv-x="195" unicode="‹" d="M130 70l-140 159l20 87l213 160l-31 -137l-108 -76l73 -75z"/>
<glyph glyph-name="guilsinglright" horiz-adv-x="184" unicode="›" d="M59 459l135 -149l-20 -85l-203 -150l30 131l98 69l-66 71z"/>
<glyph glyph-name="fraction" horiz-adv-x="469" unicode="⁄" d="M486 673h77l-546 -673h-77z"/>
<glyph glyph-name="Euro" horiz-adv-x="523" unicode="€" d="M405 -7q-38 -12 -77 -12q-103 0 -179 75t-76 206h-59l9 44h50q4 33 8 44h-51l10 45h50q22 74 63.5 129.5t92.5 87t103.5 46.5t106.5 15q64 0 113 -19l-23 -89q-38 24 -96 24q-88 0 -165 -51.5t-100 -142.5h316l-10 -45h-318q-5 -16 -7 -44h319l-10 -44h-308v-7 q0 -89 51.5 -137.5t125.5 -48.5q42 0 84 17z"/>
<glyph glyph-name="trademark" horiz-adv-x="466" unicode="™" d="M391 473h-31l-32 111l-37 -165h-44l57 254h48l38 -138l101 138h48l-57 -254h-44l37 165zM265 673l-9 -41h-76l-48 -213h-44l48 213h-76l9 41h196z"/>
<glyph glyph-name="partialdiff" horiz-adv-x="569" unicode="∂" d="M99 195q0 -62 38 -97.5t95 -35.5q79 0 137.5 66t72.5 146q-20 39 -66.5 66.5t-103.5 27.5q-78 0 -125.5 -52t-47.5 -121zM462 377q1 7 1 22q0 78 -41.5 138t-114.5 60q-41 0 -82 -20t-66 -53l-54 55q35 43 91 70.5t117 27.5q68 0 121 -35t81 -92q34 -68 34 -168 q0 -108 -37.5 -198.5t-111.5 -146.5t-171 -56q-102 0 -160.5 59t-58.5 152q0 110 78.5 184t192.5 74q116 0 181 -73z"/>
<glyph glyph-name="product" horiz-adv-x="609" unicode="∏" d="M-4 0l152 659h465l-151 -659h-87l133 581h-292l-133 -581h-87z"/>
<glyph glyph-name="summation" horiz-adv-x="562" unicode="∑" d="M222 581l151 -261l-247 -241h332l-18 -79h-470l14 59l279 270l-154 273l13 57h470l-18 -77z"/>
<glyph glyph-name="minus" horiz-adv-x="419" unicode="−" d="M27 341h376l-18 -77h-376z"/>
<glyph glyph-name="radical" horiz-adv-x="605" unicode="√" d="M26 227l-26 72l181 74l82 -255l302 541h90l-374 -659h-62l-90 269z"/>
<glyph glyph-name="infinity" horiz-adv-x="697" unicode="∞" d="M377 261q0 -44 24.5 -69t63.5 -25q58 0 97 44t39 102q0 40 -21 65t-62 25q-54 0 -97.5 -41t-43.5 -101zM85 257q0 -39 21 -64.5t61 -25.5q55 0 98.5 40.5t43.5 101.5q0 45 -25 69.5t-65 24.5q-56 0 -95 -44.5t-39 -101.5zM458 78q-57 0 -93 27.5t-49 62.5 q-24 -38 -66.5 -63.5t-94.5 -25.5q-72 0 -113.5 47.5t-41.5 123.5q0 54 22 106t68 86q65 49 147 49q56 0 89 -26t44 -63q25 40 70.5 64.5t98.5 24.5q73 0 110.5 -47t37.5 -121q0 -107 -68 -176t-161 -69z"/>
<glyph glyph-name="approxequal" horiz-adv-x="513" unicode="≈" d="M20 202q48 89 136 89q36 0 97 -25t91 -25q48 0 90 51l59 -62q-19 -36 -57 -59.5t-83 -23.5q-37 0 -97.5 25t-92.5 25q-48 0 -89 -49zM20 402q48 89 136 89q36 0 97 -25t91 -25q48 0 90 51l59 -62q-19 -36 -57 -59.5t-83 -23.5q-37 0 -97.5 25t-92.5 25q-48 0 -89 -49z "/>
<glyph glyph-name="notequal" horiz-adv-x="454" unicode="≠" d="M297 476h146l-17 -77h-155l-35 -103h166l-18 -77h-175l-51 -151h-46l51 151h-155l18 77h164l35 103h-175l17 77h184l46 134h46z"/>
<glyph glyph-name="lessequal" horiz-adv-x="355" unicode="≤" d="M4 77h238l-18 -77h-238zM252 163l-185 190l22 97l273 190l-28 -124l-180 -123l124 -118z"/>
<glyph glyph-name="greaterequal" horiz-adv-x="302" unicode="≥" d="M4 77h238l-18 -77h-238zM142 640l185 -190l-22 -97l-273 -190l29 130l178 117l-123 118z"/>
<glyph glyph-name="lozenge" horiz-adv-x="531" unicode="◊" d="M444 342l-110 238l-238 -268l105 -234zM293 659h95l153 -331l-292 -328h-106l-143 330z"/>
</font>
</defs>
</svg>
