<?xml version="1.0" encoding="UTF-8" standalone="no"?>
<!DOCTYPE svg  PUBLIC '-//W3C//DTD SVG 1.1//EN'  'http://www.w3.org/Graphics/SVG/1.1/DTD/svg11.dtd'>
<svg xmlns="http://www.w3.org/2000/svg">
<defs>
<font id="Cadiz-Medium" horiz-adv-x="536">
<font-face underline-position="-50" font-weight="500" descent="-200" panose-1="0 0 6 0 0 0 0 0 0 0" units-per-em="1000" unicode-range="U+0020-25CA" bbox="-63 -219 1041 932" x-height="476" underline-thickness="50" font-family="Cadiz" ascent="800" cap-height="659"/>
<missing-glyph horiz-adv-x="1000"/>
<glyph glyph-name=".notdef" horiz-adv-x="1000"/>
<glyph glyph-name=".null" horiz-adv-x="0"/>
<glyph glyph-name="nonmarkingreturn" horiz-adv-x="333"/>
<glyph glyph-name="space" horiz-adv-x="220" unicode=" "/>
<glyph glyph-name="exclam" horiz-adv-x="304" unicode="!" d="M151 -10q-25 0 -43 18t-18 43q0 26 18 44.5t43 18.5q26 0 44.5 -18.5t18.5 -44.5q0 -25 -18.5 -43t-44.5 -18zM107 673h91v-263l-10 -210h-71l-10 210v263z"/>
<glyph glyph-name="quotedbl" horiz-adv-x="288" unicode='&quot;' d="M248 673l-5 -182h-75l-5 182h85zM125 673l-5 -182h-75l-5 182h85z"/>
<glyph glyph-name="numbersign" horiz-adv-x="694" unicode="#" d="M438 383h-141l-35 -159h141zM498 430h116l-11 -47h-116l-35 -159h118l-11 -47h-118l-39 -177h-49l39 177h-141l-39 -177h-49l39 177h-122l11 47h122l35 159h-123l11 47h123l38 168h49l-38 -168h141l38 168h49z"/>
<glyph glyph-name="dollar" horiz-adv-x="531" unicode="$" d="M289 68q44 4 70.5 32.5t26.5 66.5q0 39 -25.5 68t-71.5 56v-223zM248 597q-35 -5 -57.5 -28t-22.5 -55q0 -33 20.5 -56.5t59.5 -47.5v187zM132 198q31 -111 116 -128v243q-41 22 -63 36t-51 38t-43 53.5t-14 65.5q-1 70 48.5 118t122.5 54v73h41v-74q105 -12 161 -116 l-69 -42q-30 64 -92 76v-208q37 -20 54 -30t48 -32.5t45.5 -41.5t27 -48.5t12.5 -62.5q0 -77 -53 -129t-134 -58v-72h-41v72q-75 7 -127 58t-71 125z"/>
<glyph glyph-name="percent" horiz-adv-x="751" unicode="%" d="M661 131q0 39 -24.5 63t-57.5 24t-57.5 -24t-24.5 -63t24.5 -63t57.5 -24t57.5 24t24.5 63zM427 131q0 65 43.5 107.5t108.5 42.5t108.5 -42.5t43.5 -107.5t-43.5 -107.5t-108.5 -42.5t-108.5 42.5t-43.5 107.5zM268 529q0 36 -22.5 58t-53.5 22t-53.5 -22t-22.5 -58 t22.5 -58t53.5 -22t53.5 22t22.5 58zM235 0h-67l316 544q-30 -17 -67 -17q-55 0 -91 39q8 -26 8 -50q0 -56 -39.5 -96.5t-102.5 -40.5q-64 0 -108 42.5t-44 107.5q0 64 43 107t105 43q35 0 69.5 -16t58 -34.5t54.5 -34.5t59 -16q65 0 126 81h63z"/>
<glyph glyph-name="ampersand" horiz-adv-x="633" unicode="&amp;" d="M258 301q-43 -20 -66.5 -55.5t-23.5 -73.5q0 -45 34.5 -77.5t94.5 -32.5q72 0 118 46zM603 0h-99l-40 47q-65 -66 -169 -66q-87 0 -151 49.5t-64 135.5q0 122 131 193q-44 60 -62 98.5t-18 76.5q0 69 46 107t111 38q68 0 109.5 -41t41.5 -96q0 -41 -23.5 -77.5 t-67.5 -58.5l-50 62q53 33 53 73q0 28 -19.5 45.5t-45.5 17.5q-28 0 -49 -20t-21 -54q0 -50 59 -124l185 -231q18 39 27 92l79 -19q-11 -76 -52 -138z"/>
<glyph glyph-name="quotesingle" horiz-adv-x="165" unicode="&apos;" d="M125 673l-5 -182h-75l-5 182h85z"/>
<glyph glyph-name="parenleft" horiz-adv-x="334" unicode="(" d="M215 -114q-134 186 -134 422q0 235 134 422h99q-153 -180 -153 -421q0 -243 153 -423h-99z"/>
<glyph glyph-name="parenright" horiz-adv-x="334" unicode=")" d="M20 -114q153 180 153 422t-153 422h99q134 -185 134 -422t-134 -422h-99z"/>
<glyph glyph-name="asterisk" horiz-adv-x="506" unicode="*" d="M311 537l131 43l14 -42l-132 -43l132 -42l-14 -43l-131 43l81 -111l-35 -27l-82 112v-138h-44v138l-82 -112l-35 26l81 112l-131 -43l-14 42l132 43l-132 42l14 43l131 -43l-81 111l35 27l82 -112v138h44v-138l82 112l35 -26z"/>
<glyph glyph-name="plus" horiz-adv-x="534" unicode="+" d="M309 258v-149h-84v149h-145v77h145v149h84v-149h145v-77h-145z"/>
<glyph glyph-name="comma" horiz-adv-x="210" unicode="," d="M104 -2h-4q-20 0 -37 14t-17 42q0 27 17.5 42.5t42.5 15.5q30 0 47 -23.5t17 -59.5q0 -51 -33 -92t-97 -47v45q27 3 46 20t18 43z"/>
<glyph glyph-name="hyphen" horiz-adv-x="406" unicode="-" d="M80 341h246v-77h-246v77z"/>
<glyph glyph-name="period" horiz-adv-x="204" unicode="." d="M101 -10q-25 0 -43 18t-18 43q0 26 18 44.5t43 18.5q26 0 44.5 -18.5t18.5 -44.5q0 -25 -18.5 -43t-44.5 -18z"/>
<glyph glyph-name="slash" horiz-adv-x="351" unicode="/" d="M260 673h67l-230 -673h-67z"/>
<glyph glyph-name="zero" horiz-adv-x="582" unicode="0" d="M291 59q70 0 116.5 67t46.5 204t-46.5 204t-116.5 67t-116.5 -67t-46.5 -204t46.5 -204t116.5 -67zM291 679q116 0 183.5 -94t67.5 -255t-67.5 -255t-183.5 -94t-183.5 94t-67.5 255t67.5 255t183.5 94z"/>
<glyph glyph-name="one" horiz-adv-x="346" unicode="1" d="M40 573q97 0 152 86h64v-659h-84v526q-17 -15 -54.5 -26t-77.5 -11v84z"/>
<glyph glyph-name="two" horiz-adv-x="506" unicode="2" d="M444 476q0 -60 -22.5 -118t-65.5 -111.5t-77.5 -88t-85.5 -79.5h263v-79h-406v59q305 244 305 418q0 59 -30.5 92t-77.5 33q-48 0 -78 -31.5t-30 -76.5q0 -24 9 -48l-88 -17q-9 27 -9 60q0 89 58.5 139.5t138.5 50.5t138 -52.5t58 -150.5z"/>
<glyph glyph-name="three" horiz-adv-x="527" unicode="3" d="M259 313q-39 0 -87 -19l-29 79l184 209h-258v77h378v-57l-190 -214q3 0 9.5 0.5t13.5 0.5q87 0 147 -53.5t60 -137.5q0 -100 -68 -158.5t-159 -58.5q-78 0 -140 44t-80 127l82 26q11 -58 50 -88.5t90 -30.5q56 0 98 35.5t42 96.5q0 57 -39 89.5t-104 32.5z"/>
<glyph glyph-name="four" horiz-adv-x="524" unicode="4" d="M317 380h84v-137h93v-77h-93v-166h-84v166h-307v57l259 436h98l-250 -416h200v137z"/>
<glyph glyph-name="five" horiz-adv-x="550" unicode="5" d="M279 -19q-92 0 -149 50.5t-70 120.5l82 26q11 -58 50.5 -88.5t90.5 -30.5q57 0 99 38.5t42 104.5q0 58 -37 96t-99 38q-68 0 -131 -57l-64 42v338h352v-77h-268v-195q52 35 127 35q98 0 152 -65t54 -155q0 -89 -61.5 -155t-169.5 -66z"/>
<glyph glyph-name="six" horiz-adv-x="582" unicode="6" d="M137 278q2 -106 54 -162.5t122 -56.5q60 0 102.5 41.5t42.5 113.5q0 74 -45 115.5t-110 41.5q-47 0 -91.5 -24t-74.5 -69zM449 528q-53 73 -134 73q-69 0 -121 -58.5t-56 -165.5q70 73 175 73q93 0 161 -61.5t68 -169.5q0 -109 -70 -173.5t-167 -64.5q-82 0 -141 50.5 t-86.5 128.5t-27.5 173q0 166 80 256t188 90q56 0 107 -26t84 -74z"/>
<glyph glyph-name="seven" horiz-adv-x="452" unicode="7" d="M20 582v77h422v-57q-248 -243 -248 -575v-27h-88v22q0 329 225 560h-311z"/>
<glyph glyph-name="eight" horiz-adv-x="538" unicode="8" d="M134 177q0 -57 40 -87.5t96 -30.5q54 0 94 31.5t40 86.5t-36.5 90.5t-98.5 35.5t-98.5 -35.5t-36.5 -90.5zM269 601q-51 0 -86.5 -30t-35.5 -80q0 -48 33 -81t89 -33t89 33t33 81q0 50 -35.5 80t-86.5 30zM488 174q0 -92 -64 -142.5t-155 -50.5t-155 50.5t-64 142.5 q0 57 28.5 101.5t73.5 66.5q-89 56 -89 151q0 84 61.5 135t144.5 51t144.5 -51t61.5 -135q0 -95 -89 -151q45 -22 73.5 -66.5t28.5 -101.5z"/>
<glyph glyph-name="nine" horiz-adv-x="582" unicode="9" d="M445 382q-2 106 -54 162.5t-122 56.5q-60 0 -102.5 -41.5t-42.5 -113.5q0 -74 45 -115.5t110 -41.5q47 0 91.5 24t74.5 69zM133 132q53 -73 134 -73q69 0 121 58.5t56 165.5q-70 -73 -175 -73q-93 0 -161 61.5t-68 169.5q0 109 70 173.5t167 64.5q82 0 141 -50.5 t86.5 -128.5t27.5 -173q0 -166 -80 -256t-188 -90q-56 0 -107 26t-84 74z"/>
<glyph glyph-name="colon" horiz-adv-x="204" unicode=":" d="M101 -10q-25 0 -43 18t-18 43q0 26 18 44.5t43 18.5q26 0 44.5 -18.5t18.5 -44.5q0 -25 -18.5 -43t-44.5 -18zM101 270q-25 0 -43 18t-18 43q0 26 18 44.5t43 18.5q26 0 44.5 -18.5t18.5 -44.5q0 -25 -18.5 -43t-44.5 -18z"/>
<glyph glyph-name="semicolon" horiz-adv-x="215" unicode=";" d="M109 -2h-4q-20 0 -37 14t-17 42q0 27 17.5 42.5t42.5 15.5q30 0 47 -23.5t17 -59.5q0 -51 -33 -92t-97 -47v45q27 3 46 20t18 43zM101 270q-25 0 -43 18t-18 43q0 26 18 44.5t43 18.5q26 0 44.5 -18.5t18.5 -44.5q0 -25 -18.5 -43t-44.5 -18z"/>
<glyph glyph-name="less" horiz-adv-x="319" unicode="&lt;" d="M269 85l-229 190v97l229 190v-112l-165 -127l165 -126v-112z"/>
<glyph glyph-name="equal" d="M80 296h376v-77h-376v77zM80 476h376v-77h-376v77z" unicode="="/>
<glyph glyph-name="greater" horiz-adv-x="329" unicode="&gt;" d="M50 562l229 -190v-97l-229 -190v112l165 126l-165 127v112z"/>
<glyph glyph-name="question" horiz-adv-x="413" unicode="?" d="M228 -10q-26 0 -43.5 18t-17.5 43q0 26 18 44.5t43 18.5q26 0 44.5 -18.5t18.5 -44.5q0 -25 -18.5 -43t-44.5 -18zM85 544q6 65 51 100t103 35q59 0 101.5 -35.5t42.5 -98.5q0 -30 -10 -54.5t-33 -47t-40 -35t-51 -35.5q-20 -13 -28 -19.5t-19.5 -22.5t-11.5 -33 q0 -22 15 -36t36 -14q20 0 35.5 14.5t20.5 42.5l73 -26q-11 -53 -49 -81.5t-85 -28.5q-52 0 -90.5 34t-38.5 93q0 69 66 122q17 13 57 39t54.5 43.5t14.5 43.5q0 28 -17.5 43.5t-43.5 15.5q-29 0 -51.5 -20t-26.5 -57z"/>
<glyph glyph-name="at" horiz-adv-x="653" unicode="@" d="M238 207q0 -68 53 -68q37 0 61 32.5t24 81.5q0 70 -53 70q-38 0 -61.5 -34.5t-23.5 -81.5zM613 260q0 -89 -44.5 -134t-97.5 -45q-28 0 -51 14.5t-31 41.5q-18 -31 -50.5 -47t-67.5 -16q-50 0 -81.5 33.5t-31.5 97.5q0 78 44 129.5t106 51.5q58 0 83 -44l26 37h56 l-29 -189q-1 -5 -1 -13q0 -21 11 -31t26 -10q30 0 52.5 35.5t22.5 89.5q0 86 -59 142t-150 56q-106 0 -175.5 -74t-69.5 -177q0 -86 51 -143.5t130 -57.5q73 0 117 47l38 -49q-63 -53 -154 -53q-106 0 -174.5 70.5t-68.5 184.5q0 132 89.5 220t218.5 88q114 0 189.5 -71 t75.5 -184z"/>
<glyph glyph-name="A" horiz-adv-x="682" unicode="A" d="M206 243h271l-136 315zM510 166h-337l-72 -166h-96l294 659h84l294 -659h-96z"/>
<glyph glyph-name="B" horiz-adv-x="592" unicode="B" d="M164 304v-225h183q55 0 86.5 34t31.5 80t-32.5 78.5t-92.5 32.5h-176zM164 582v-201h164q47 0 75.5 32t28.5 74q0 40 -28 67.5t-82 27.5h-158zM80 659h232q105 0 155.5 -47t50.5 -115q0 -47 -21.5 -87t-54.5 -55q50 -16 80 -65t30 -106q0 -76 -58.5 -130t-173.5 -54h-240 v659z"/>
<glyph glyph-name="C" horiz-adv-x="631" unicode="C" d="M606 154q-37 -83 -107.5 -128t-152.5 -45q-58 0 -112 23t-97.5 65.5t-70 110.5t-26.5 150q0 83 27 151t71 110.5t98.5 65t111.5 22.5q72 0 132.5 -35.5t93.5 -105.5l-73 -42q-25 51 -66.5 77t-89.5 26q-85 0 -150.5 -72t-65.5 -194q0 -123 67 -196.5t155 -73.5 q57 0 105.5 34t74.5 98z"/>
<glyph glyph-name="D" horiz-adv-x="638" unicode="D" d="M164 582v-503h118q108 0 167.5 74t59.5 176q0 103 -60.5 178t-168.5 75h-116zM80 0v659h202q76 0 137.5 -28t99.5 -75t58.5 -105t20.5 -121q0 -85 -33.5 -158t-106.5 -122.5t-173 -49.5h-205z"/>
<glyph glyph-name="E" horiz-adv-x="541" unicode="E" d="M164 295v-216h317v-79h-401v659h401v-77h-317v-210h259v-77h-259z"/>
<glyph glyph-name="F" horiz-adv-x="491" unicode="F" d="M164 295v-295h-84v659h391v-77h-307v-210h249v-77h-249z"/>
<glyph glyph-name="G" horiz-adv-x="652" unicode="G" d="M592 0h-72l-16 59q-74 -78 -178 -78q-114 0 -200 93.5t-86 252.5q0 84 27 153t71 111.5t98 65t112 22.5q72 0 132.5 -35.5t93.5 -105.5l-73 -42q-25 51 -66.5 77t-89.5 26q-86 0 -151 -72t-65 -198q0 -124 63.5 -196t146.5 -72q65 0 112 44.5t53 126.5h-181v77h269v-309z "/>
<glyph glyph-name="H" horiz-adv-x="675" unicode="H" d="M164 373h347v286h84v-659h-84v296h-347v-296h-84v659h84v-286z"/>
<glyph glyph-name="I" horiz-adv-x="244" unicode="I" d="M80 659h84v-659h-84v659z"/>
<glyph glyph-name="J" horiz-adv-x="457" unicode="J" d="M128 659h259v-488q0 -89 -55 -139.5t-129 -50.5q-65 0 -114.5 40.5t-58.5 114.5l81 23q5 -48 31 -72.5t62 -24.5q39 0 69 31t30 82v407h-175v77z"/>
<glyph glyph-name="K" horiz-adv-x="627" unicode="K" d="M622 0h-109l-237 373l-112 -97v-276h-84v659h84v-278l322 278h129l-273 -231z"/>
<glyph glyph-name="L" horiz-adv-x="470" unicode="L" d="M164 659v-580h286v-79h-370v659h84z"/>
<glyph glyph-name="M" horiz-adv-x="780" unicode="M" d="M430 93h-80l-186 375v-468h-84v659h85l225 -462l225 462h85v-659h-84v468z"/>
<glyph glyph-name="N" horiz-adv-x="654" unicode="N" d="M164 0h-84v659h82l328 -500v500h84v-659h-80l-330 502v-502z"/>
<glyph glyph-name="O" horiz-adv-x="702" unicode="O" d="M351 62q97 0 159.5 75t62.5 193t-62.5 193t-159.5 75t-159.5 -75t-62.5 -193t62.5 -193t159.5 -75zM351 679q134 0 222.5 -98t88.5 -251t-88.5 -251t-222.5 -98t-222.5 98t-88.5 251t88.5 251t222.5 98z"/>
<glyph glyph-name="P" horiz-adv-x="585" unicode="P" d="M164 582v-226h197q54 0 84.5 33.5t30.5 79.5t-30.5 79.5t-84.5 33.5h-197zM80 0v659h284q95 0 148 -56.5t53 -133.5t-53 -133.5t-148 -56.5h-200v-279h-84z"/>
<glyph glyph-name="Q" horiz-adv-x="728" unicode="Q" d="M286 134q0 -33 24.5 -51.5t60.5 -18.5q45 0 85 26q-14 57 -43 84.5t-61 27.5q-28 0 -47 -19t-19 -49zM513 140q60 71 60 190q0 118 -62 193t-160 75t-160 -75t-62 -193q0 -76 27 -136.5t77 -93.5q-15 26 -15 57q0 52 38.5 89.5t97.5 37.5q61 0 102 -40.5t57 -103.5z M351 679q134 0 222.5 -98t88.5 -251q0 -88 -31 -160.5t-85 -117.5q11 -34 56 -34q53 0 81 46v-107q-37 -26 -85 -26q-84 0 -115 80q-65 -30 -136 -30q-131 0 -219 98t-88 251t88.5 251t222.5 98z"/>
<glyph glyph-name="R" horiz-adv-x="645" unicode="R" d="M164 582v-226h197q54 0 84 34.5t30 81.5q0 44 -29.5 77t-81.5 33h-200zM80 0v659h284q97 0 148.5 -54.5t51.5 -130.5q0 -62 -34 -112.5t-94 -67.5l179 -294h-102l-164 279h-185v-279h-84z"/>
<glyph glyph-name="S" horiz-adv-x="497" unicode="S" d="M116 187q15 -61 55.5 -93t88.5 -32q46 0 78.5 27.5t32.5 74.5q0 24 -9.5 44t-31.5 38t-38.5 28.5t-49.5 29.5q-39 22 -60 36t-49 39t-41 56.5t-13 69.5q0 81 53 127.5t126 46.5q53 0 98.5 -27t68.5 -78l-72 -41q-28 64 -97 64q-36 0 -62 -23.5t-26 -63.5q0 -22 9 -41 t30 -36t37.5 -27.5t48.5 -28.5q41 -23 62 -37t50.5 -39.5t43 -57t13.5 -70.5q0 -90 -60.5 -141t-144.5 -51q-77 0 -140 45.5t-82 129.5z"/>
<glyph glyph-name="T" horiz-adv-x="492" unicode="T" d="M204 0v582h-199v77h482v-77h-199v-582h-84z"/>
<glyph glyph-name="U" horiz-adv-x="632" unicode="U" d="M562 237q0 -112 -66.5 -184t-179.5 -72t-179.5 72t-66.5 184v422h84v-414q0 -77 40 -130t122 -53t122 53t40 130v414h84v-422z"/>
<glyph glyph-name="V" horiz-adv-x="550" unicode="V" d="M319 0h-88l-221 659h98l167 -537l167 537h98z"/>
<glyph glyph-name="W" horiz-adv-x="916" unicode="W" d="M454 465l76 194h92l-119 -305l93 -246l220 551h95l-268 -659h-92l-94 250l-95 -250h-89l-268 659h95l220 -551l89 236l-123 315h93z"/>
<glyph glyph-name="X" horiz-adv-x="568" unicode="X" d="M553 0h-103l-169 261l-168 -261h-98l217 337l-207 322h103l159 -248l158 248h98l-208 -322z"/>
<glyph glyph-name="Y" horiz-adv-x="578" unicode="Y" d="M247 0v284l-242 375h101l183 -291l183 291h101l-242 -375v-284h-84z"/>
<glyph glyph-name="Z" horiz-adv-x="509" unicode="Z" d="M464 0h-419v57l137 238h-98v77h143l121 210h-279v77h382v-57l-132 -230h102v-77h-147l-124 -216h314v-79z"/>
<glyph glyph-name="bracketleft" horiz-adv-x="281" unicode="[" d="M241 -84h-161v831h161v-74h-83v-683h83v-74z"/>
<glyph glyph-name="backslash" horiz-adv-x="376" unicode="\" d="M259 0l-230 673h67l230 -673h-67z"/>
<glyph glyph-name="bracketright" horiz-adv-x="281" unicode="]" d="M40 747h161v-831h-161v74h83v683h-83v74z"/>
<glyph glyph-name="asciicircum" horiz-adv-x="637" unicode="^" d="M80 470l190 229h97l190 -229h-112l-126 165l-127 -165h-112z"/>
<glyph glyph-name="underscore" d="M80 80h376v-80h-376v80z" unicode="_"/>
<glyph glyph-name="grave" horiz-adv-x="353" unicode="`" d="M212 590l-132 164l76 56l117 -175z"/>
<glyph glyph-name="a" horiz-adv-x="501" unicode="a" d="M341 247q-12 -9 -32.5 -16.5t-36 -11t-40 -7.5t-30.5 -5q-78 -16 -78 -75q0 -29 20.5 -51.5t62.5 -22.5q53 0 93.5 35.5t40.5 98.5v55zM417 126q0 -60 32 -60q7 0 17 5v-70q-19 -12 -44 -12q-29 0 -51.5 18.5t-26.5 54.5q-16 -27 -54 -52t-94 -25q-72 0 -114 44t-42 103 q0 111 147 139q10 2 37.5 6t43 7.5t34.5 11t28 21t9 32.5q0 34 -27 52.5t-66 18.5q-81 0 -124 -69l-57 44q67 96 186 96q166 0 166 -178v-187z"/>
<glyph glyph-name="b" horiz-adv-x="544" unicode="b" d="M289 416q-65 0 -102.5 -54t-37.5 -127q0 -71 36.5 -123t101.5 -52q66 0 101.5 52.5t35.5 125.5t-35.5 125.5t-99.5 52.5zM70 673h78v-262q51 80 147 80q83 0 146 -66.5t63 -188.5q0 -120 -61.5 -185.5t-146.5 -65.5q-92 0 -148 68l-13 -53h-65v673z"/>
<glyph glyph-name="c" horiz-adv-x="495" unicode="c" d="M465 108q-26 -58 -80 -90.5t-117 -32.5q-92 0 -160 65.5t-68 187.5q0 121 66.5 187t156.5 66q58 0 108.5 -29t77.5 -84l-68 -41q-19 38 -50.5 58.5t-67.5 20.5q-57 0 -100 -48t-43 -130q0 -83 44 -130.5t104 -47.5q41 0 76.5 22.5t57.5 66.5z"/>
<glyph glyph-name="d" horiz-adv-x="544" unicode="d" d="M395 235q0 73 -37.5 127t-102.5 54q-64 0 -99.5 -52.5t-35.5 -125.5t35.5 -125.5t101.5 -52.5q65 0 101.5 52t36.5 123zM396 673h78v-673h-65l-13 53q-56 -68 -148 -68q-85 0 -146.5 65.5t-61.5 185.5q0 122 63 188.5t146 66.5q96 0 147 -80v262z"/>
<glyph glyph-name="e" horiz-adv-x="510" unicode="e" d="M380 278v9q0 62 -34.5 95.5t-82.5 33.5q-51 0 -90.5 -36.5t-43.5 -101.5h251zM129 206q6 -68 49 -107t99 -39q86 0 131 80l62 -44q-35 -55 -86.5 -83t-108.5 -28q-94 0 -162 69t-68 187q0 117 66.5 183.5t154.5 66.5q82 0 139.5 -60.5t57.5 -172.5q0 -28 -4 -52h-330z "/>
<glyph glyph-name="f" horiz-adv-x="300" unicode="f" d="M270 592q-20 10 -41 10q-55 0 -55 -80v-46h101v-75h-101v-401h-78v401h-66v75h66v45q0 158 116 158q20 0 58 -8v-79z"/>
<glyph glyph-name="g" horiz-adv-x="501" unicode="g" d="M225 -148h83q45 0 69.5 20t24.5 48q0 22 -18.5 38t-52.5 16h-118q-26 0 -54 4q-13 -6 -21.5 -21.5t-8.5 -33.5q0 -30 23.5 -50.5t72.5 -20.5zM241 422q-47 0 -76 -31.5t-29 -80.5q0 -50 28.5 -81.5t76.5 -31.5q47 0 75.5 31.5t28.5 81.5q0 49 -28.5 80.5t-75.5 31.5z M206 48h145q63 0 99 -36.5t36 -88.5q0 -56 -43.5 -97.5t-122.5 -41.5h-100q-72 0 -121 29.5t-49 89.5q0 66 58 101q-49 26 -49 80q0 62 61 87q-61 50 -61 139q0 79 52 130t130 51q42 0 85 -18q8 -3 15 -3q18 0 30.5 15t11.5 45h95v-8q0 -39 -25.5 -67t-68.5 -31 q38 -48 38 -114q0 -80 -51.5 -131t-129.5 -51q-37 0 -68 12q-36 -12 -36 -45q0 -47 69 -47z"/>
<glyph glyph-name="h" horiz-adv-x="521" unicode="h" d="M291 491q67 0 113.5 -46t46.5 -136v-309h-78v299q0 56 -29 86.5t-71 30.5q-49 0 -87 -39.5t-38 -106.5v-270h-78v673h78v-270q20 44 59 66t84 22z"/>
<glyph glyph-name="i" horiz-adv-x="224" unicode="i" d="M73 476h78v-476h-78v476zM111 554q-25 0 -43 18t-18 43q0 26 18 44.5t43 18.5q26 0 44.5 -18.5t18.5 -44.5q0 -25 -18.5 -43t-44.5 -18z"/>
<glyph glyph-name="j" horiz-adv-x="237" unicode="j" d="M-20 -129q18 -10 38 -10q58 0 58 83v532h78v-534q0 -78 -27.5 -118t-94.5 -40q-28 0 -52 8v79zM114 554q-26 0 -43.5 18t-17.5 43q0 26 18 44.5t43 18.5q26 0 44.5 -18.5t18.5 -44.5q0 -25 -18.5 -43t-44.5 -18z"/>
<glyph glyph-name="k" horiz-adv-x="481" unicode="k" d="M276 321l190 -321h-91l-153 265l-74 -79v-186h-78v673h78v-382l172 185h103z"/>
<glyph glyph-name="l" horiz-adv-x="218" unicode="l" d="M70 0v673h78v-673h-78z"/>
<glyph glyph-name="m" horiz-adv-x="746" unicode="m" d="M417 0h-78v314q0 46 -26.5 73.5t-62.5 27.5q-38 0 -65 -31.5t-27 -92.5v-291h-78v476h63l14 -58q17 35 50.5 54t72.5 19q43 0 78 -22.5t46 -64.5q15 41 52.5 64t81.5 23q57 0 97.5 -37.5t40.5 -108.5v-345h-78v314q0 46 -26.5 73.5t-62.5 27.5q-38 0 -65 -31.5t-27 -92.5 v-291z"/>
<glyph glyph-name="n" horiz-adv-x="531" unicode="n" d="M80 0v476h63l17 -68q18 38 57.5 60.5t84.5 22.5q66 0 112.5 -46t46.5 -136v-309h-78v299q0 56 -29 86.5t-71 30.5q-49 0 -87 -39.5t-38 -106.5v-270h-78z"/>
<glyph glyph-name="o" horiz-adv-x="548" unicode="o" d="M274 60q68 0 111 52t43 126t-43 126t-111 52t-111 -52t-43 -126t43 -126t111 -52zM274 491q105 0 169.5 -72.5t64.5 -180.5t-64.5 -180.5t-169.5 -72.5t-169.5 72.5t-64.5 180.5t64.5 180.5t169.5 72.5z"/>
<glyph glyph-name="p" horiz-adv-x="544" unicode="p" d="M287 60q66 0 101.5 52.5t35.5 125.5t-35.5 125.5t-99.5 52.5q-65 0 -102.5 -54t-37.5 -127q0 -72 36.5 -123.5t101.5 -51.5zM504 239q0 -123 -61 -188.5t-146 -65.5q-91 0 -149 70v-255h-78v676h64l15 -63q58 78 154 78q82 0 141.5 -65.5t59.5 -186.5z"/>
<glyph glyph-name="q" horiz-adv-x="544" unicode="q" d="M257 60q65 0 101.5 51.5t36.5 123.5q0 73 -37.5 127t-102.5 54q-64 0 -99.5 -52.5t-35.5 -125.5t35.5 -125.5t101.5 -52.5zM410 476h64v-676h-78v255q-58 -70 -149 -70q-84 0 -145.5 65.5t-61.5 185.5q0 121 62 188t145 67q94 0 148 -78z"/>
<glyph glyph-name="r" horiz-adv-x="325" unicode="r" d="M149 414q38 73 124 73q16 0 37 -3v-86q-17 4 -40 4q-61 0 -91.5 -36.5t-30.5 -99.5v-266h-78v476h63z"/>
<glyph glyph-name="s" horiz-adv-x="422" unicode="s" d="M102 153q16 -41 49 -68.5t75 -27.5q35 0 61 18t26 48q0 7 -1.5 13.5t-5.5 13t-7.5 11t-11.5 9.5t-12.5 8.5t-15 8.5t-15.5 7.5t-17.5 8t-17.5 7.5q-32 14 -49 23.5t-40.5 27t-34 41t-10.5 53.5q0 60 41.5 98t106.5 38q89 0 138 -68l-55 -50q-28 45 -83 45 q-28 0 -47.5 -15t-19.5 -41q0 -20 15 -36.5t30 -24t51 -23.5q7 -3 11 -5q32 -14 50.5 -23.5t40.5 -26.5t32.5 -40t10.5 -52q0 -65 -50 -105.5t-124 -40.5q-71 0 -122 38t-71 94z"/>
<glyph glyph-name="t" horiz-adv-x="311" unicode="t" d="M175 141q0 -80 56 -80q21 0 40 9v-77q-30 -8 -58 -8q-116 0 -116 153v263h-62v75h62v112l78 31v-143h92v-75h-92v-260z"/>
<glyph glyph-name="u" horiz-adv-x="511" unicode="u" d="M441 476v-476h-63l-17 68q-18 -38 -57.5 -60.5t-84.5 -22.5q-66 0 -112.5 46t-46.5 136v309h78v-295q0 -56 29 -86.5t71 -30.5q49 0 87 39.5t38 106.5v266h78z"/>
<glyph glyph-name="v" horiz-adv-x="446" unicode="v" d="M223 106l122 370h91l-173 -476h-80l-173 476h91z"/>
<glyph glyph-name="w" horiz-adv-x="684" unicode="w" d="M446 0l-104 352l-104 -352h-88l-140 476h88l93 -368l109 368h84l109 -368l93 368h88l-140 -476h-88z"/>
<glyph glyph-name="x" horiz-adv-x="454" unicode="x" d="M184 238l-167 238h101l113 -171l110 171h96l-165 -238l167 -238h-100l-115 171l-112 -171h-97z"/>
<glyph glyph-name="y" horiz-adv-x="461" unicode="y" d="M72 -105q34 -24 56 -24q37 0 56 58l14 43l-188 504h96l132 -390l127 390h86l-198 -578q-39 -114 -120 -114q-47 0 -97 37z"/>
<glyph glyph-name="z" horiz-adv-x="451" unicode="z" d="M40 0v58l253 343h-227v75h340v-56l-251 -341h261v-79h-376z"/>
<glyph glyph-name="braceleft" horiz-adv-x="339" unicode="{" d="M125 237q0 23 -15 40t-50 17v76q35 0 50 17t15 40v167q0 78 27.5 118t94.5 40q28 0 52 -8v-79q-18 10 -38 10q-58 0 -58 -83v-165q0 -67 -38 -95q38 -28 38 -95v-165q0 -83 58 -83q20 0 38 10v-79q-24 -8 -52 -8q-67 0 -94.5 40t-27.5 118v167z"/>
<glyph glyph-name="bar" horiz-adv-x="202" unicode="|" d="M80 730h61v-818h-61v818z"/>
<glyph glyph-name="braceright" horiz-adv-x="339" unicode="}" d="M214 70q0 -78 -27.5 -118t-94.5 -40q-28 0 -52 8v79q18 -10 38 -10q58 0 58 83v165q0 67 38 95q-38 28 -38 95v165q0 83 -58 83q-20 0 -38 -10v79q24 8 52 8q67 0 94.5 -40t27.5 -118v-167q0 -23 15 -40t50 -17v-76q-35 0 -50 -17t-15 -40v-167z"/>
<glyph glyph-name="asciitilde" horiz-adv-x="581" unicode="~" d="M81 248q-1 60 32.5 104.5t93.5 44.5q36 0 70 -20t61 -40t47 -20q41 0 43 68l83 -9q0 -58 -30.5 -103.5t-86.5 -45.5q-35 0 -68.5 21t-62 42t-50.5 21q-46 0 -49 -74z"/>
<glyph glyph-name="exclamdown" horiz-adv-x="304" unicode="¡" d="M197 -13h-91v263l10 210h71l10 -210v-263zM153 670q25 0 43 -18t18 -43q0 -26 -18 -44.5t-43 -18.5q-26 0 -44.5 18.5t-18.5 44.5q0 25 18.5 43t44.5 18z"/>
<glyph glyph-name="cent" horiz-adv-x="576" unicode="¢" d="M164 328q0 -65 30 -112.5t81 -60.5v348q-51 -12 -81 -61t-30 -114zM443 230l62 -44q-63 -110 -188 -111v-75h-42v78q-89 13 -140 82.5t-51 168.5q0 100 51.5 170t139.5 80v80h42v-78q111 -6 167 -101l-65 -43q-38 61 -102 68v-355q77 3 126 80z"/>
<glyph glyph-name="sterling" horiz-adv-x="481" unicode="£" d="M91 95q0 -17 11 -28.5t32 -11.5q42 1 62 40q-28 37 -62 39h-2q-19 0 -30 -11t-11 -28zM398 347v-44h-94v-9q0 -139 -19 -203q37 -26 73 -26q25 0 51 10.5t39 20.5l13 10v-93q-32 -32 -90 -32q-68 0 -119 48q-37 -44 -106 -44q-60 0 -93 31.5t-33 82.5q0 50 30 79.5 t75 29.5q58 0 92 -48q9 48 9 120v23h-85v44h85v44h-85v45h85v85q0 158 126 158q30 0 46 -6v-86q0 1 -5 3.5t-15.5 5t-21.5 2.5q-29 0 -40.5 -19t-11.5 -67v-76h94v-45h-94v-44h94z"/>
<glyph glyph-name="currency" horiz-adv-x="568" unicode="¤" d="M284 60q68 0 111 52t43 126t-43 126t-111 52t-111 -52t-43 -126t43 -126t111 -52zM419 449q99 -71 99 -211q0 -67 -25.5 -122t-72.5 -89l33 -96h-50l-26 72q-42 -18 -93 -18q-52 0 -96 19l-25 -73h-52l34 98q-45 34 -70 88.5t-25 120.5q0 138 96 209l-35 103h52l26 -78 q44 19 95 19q52 0 92 -18l27 77h50z"/>
<glyph glyph-name="yen" horiz-adv-x="578" unicode="¥" d="M247 256v28l-242 375h101l183 -291l183 291h101l-242 -375v-28h126v-45h-126v-43h126v-46h-126v-122h-84v122h-126v46h126v43h-126v45h126z"/>
<glyph glyph-name="brokenbar" horiz-adv-x="202" unicode="¦" d="M80 270h61v-270h-61v270zM80 697h61v-269h-61v269z"/>
<glyph glyph-name="section" horiz-adv-x="477" unicode="§" d="M243 386q-28 0 -45.5 -16t-17.5 -37q0 -28 27.5 -44.5t58.5 -16.5q27 0 41 15.5t14 35.5q0 28 -22.5 45.5t-55.5 17.5zM183 549q0 -26 23 -43.5t55.5 -30t65 -27t55.5 -41.5t23 -67q0 -73 -71 -104q83 -35 83 -117q0 -58 -48 -98t-118 -40q-68 0 -120.5 38t-70.5 94 l77 35q12 -37 40.5 -61.5t71.5 -24.5q32 0 55.5 13.5t23.5 39.5q0 24 -24 42t-58 32t-68 29.5t-58 43.5t-24 66q0 42 25 69t56 36q-82 36 -82 114q1 56 41.5 94t103.5 38q46 0 86.5 -22t64.5 -61l-60 -49q-33 51 -90 51q-29 0 -43.5 -14.5t-14.5 -34.5z"/>
<glyph glyph-name="dieresis" horiz-adv-x="464" unicode="¨" d="M323 579q-25 0 -42 17t-17 42q0 26 17 43.5t42 17.5t43 -17.5t18 -43.5q0 -25 -17.5 -42t-43.5 -17zM139 579q-25 0 -42 17t-17 42q0 26 17 43.5t42 17.5t43 -17.5t18 -43.5q0 -25 -17.5 -42t-43.5 -17z"/>
<glyph glyph-name="copyright" horiz-adv-x="618" unicode="©" d="M358 656q-16 26 -48 26q-24 0 -42 -18t-18 -48q0 -29 20 -49.5t45 -20.5q38 0 54 33q8 -5 18.5 -13t14.5 -10q-29 -52 -87 -52q-45 0 -76 32.5t-31 79.5q0 46 28 77t71 31q58 0 85 -48zM309 427q79 0 132.5 54t53.5 133t-53.5 133t-132.5 54t-132.5 -54t-53.5 -133 t53.5 -133t132.5 -54zM309 843q97 0 163 -65.5t66 -163.5t-66 -163.5t-163 -65.5t-163 65.5t-66 163.5t66 163.5t163 65.5z"/>
<glyph glyph-name="ordfeminine" horiz-adv-x="324" unicode="ª" d="M184 573q-12 -3 -25 -6q-37 -6 -37 -25q0 -18 27 -18q15 0 25 9.5t10 27.5v12zM226 546q0 -10 4.5 -14t9.5 -2l4 1v-37q-9 -6 -20 -6q-23 0 -26 23q-18 -24 -56 -24q-27 0 -44.5 15t-17.5 42q0 16 6 27t19 17.5t23.5 9.5t29.5 6q27 4 27 14q0 17 -30 17q-23 0 -37 -19 l-30 21q24 36 67 36q32 0 51.5 -16t19.5 -48v-63z"/>
<glyph glyph-name="guillemotleft" horiz-adv-x="485" unicode="«" d="M425 70l-177 159v87l177 159v-116l-102 -87l102 -84v-118zM207 70l-177 159v87l177 159v-116l-102 -87l102 -84v-118z"/>
<glyph glyph-name="logicalnot" d="M378 140v124h-298v77h376v-201h-78z" unicode="¬"/>
<glyph glyph-name="uni00AD" d="M80 341h376v-77h-376v77z" unicode="­"/>
<glyph glyph-name="registered" horiz-adv-x="618" unicode="®" d="M275 684v-73h45q39 0 39 37q0 36 -39 36h-45zM233 509v214h88q30 0 56 -17t26 -58q0 -26 -14 -44t-34 -26l45 -69h-47l-36 62h-42v-62h-42zM309 427q79 0 132.5 54t53.5 133t-53.5 133t-132.5 54t-132.5 -54t-53.5 -133t53.5 -133t132.5 -54zM309 843q97 0 163 -65.5 t66 -163.5t-66 -163.5t-163 -65.5t-163 65.5t-66 163.5t66 163.5t163 65.5z"/>
<glyph glyph-name="macron" horiz-adv-x="537" unicode="¯" d="M110 827h307v-77h-307v77z"/>
<glyph glyph-name="degree" horiz-adv-x="404" unicode="°" d="M284 529q0 39 -24 63t-58 24t-58 -24t-24 -63t24 -63t58 -24t58 24t24 63zM50 529q0 65 43.5 107.5t108.5 42.5t108.5 -42.5t43.5 -107.5t-43.5 -107.5t-108.5 -42.5t-108.5 42.5t-43.5 107.5z"/>
<glyph glyph-name="plusminus" horiz-adv-x="534" unicode="±" d="M80 144h374v-77h-374v77zM309 392v-149h-84v149h-145v77h145v149h84v-149h145v-77h-145z"/>
<glyph glyph-name="twosuperior" horiz-adv-x="404" unicode="²" d="M324 387v-77h-230v65q68 49 102.5 100.5t34.5 87.5q0 20 -11 30.5t-25 10.5q-13 0 -21.5 -8t-8.5 -22q0 -18 11 -32l-84 -22q-12 24 -12 50q0 43 31 73t85 30q53 0 86 -29t33 -75q0 -90 -116 -182h125z"/>
<glyph glyph-name="threesuperior" horiz-adv-x="412" unicode="³" d="M153 417q2 -25 17.5 -39t35.5 -14q21 0 34 15t13 35q0 22 -15 34t-37 12q-23 0 -47 -11l-28 62l68 71h-97v77h201v-65l-70 -76q47 0 75.5 -29.5t28.5 -77.5q0 -55 -38.5 -86t-90.5 -31q-47 0 -83.5 25.5t-42.5 70.5z"/>
<glyph glyph-name="acute" horiz-adv-x="353" unicode="´" d="M80 635l117 175l76 -56l-132 -164z"/>
<glyph glyph-name="paragraph" horiz-adv-x="614" unicode="¶" d="M386 582v-226h64v226h-64zM302 582h-50q-54 0 -84.5 -33.5t-30.5 -79.5t30.5 -79.5t84.5 -33.5h50v226zM534 0h-84v279h-64v-279h-84v279h-51q-95 0 -148 56.5t-53 133.5t53 133.5t148 56.5h283v-659z"/>
<glyph glyph-name="periodcentered" horiz-adv-x="284" unicode="·" d="M141 298q-25 0 -43 18t-18 43q0 26 18 44.5t43 18.5q26 0 44.5 -18.5t18.5 -44.5q0 -25 -18.5 -43t-44.5 -18z"/>
<glyph glyph-name="cedilla" horiz-adv-x="285" unicode="¸" d="M205 -54l-34 -142l-91 33l58 123z"/>
<glyph glyph-name="onesuperior" horiz-adv-x="311" unicode="¹" d="M80 615q26 0 45.5 13t25.5 31h80v-349h-84v244q-26 -16 -67 -16v77z"/>
<glyph glyph-name="ordmasculine" horiz-adv-x="334" unicode="º" d="M167 524q22 0 34.5 16t12.5 40t-12.5 40t-34.5 16t-34.5 -16t-12.5 -40t12.5 -40t34.5 -16zM167 487q-39 0 -63 27t-24 66t24 66t63 27t63 -27t24 -66t-24 -66t-63 -27z"/>
<glyph glyph-name="guillemotright" horiz-adv-x="485" unicode="»" d="M278 475l177 -159v-87l-177 -159v118l102 84l-102 87v116zM60 475l177 -159v-87l-177 -159v118l102 84l-102 87v116z"/>
<glyph glyph-name="onequarter" horiz-adv-x="685" unicode="¼" d="M528 142v56h81v-56h55v-75h-55v-66h-81v66h-156v68l107 215h91l-109 -208h67zM40 615q26 0 45.5 13t25.5 31h80v-349h-84v244q-26 -16 -67 -16v77zM481 673h73l-391 -673h-73z"/>
<glyph glyph-name="onehalf" horiz-adv-x="673" unicode="½" d="M633 77v-77h-230v65q68 49 102.5 100.5t34.5 87.5q0 20 -11 30.5t-25 10.5q-13 0 -21.5 -8t-8.5 -22q0 -18 11 -32l-84 -22q-12 24 -12 50q0 43 31 73t85 30q53 0 86 -29t33 -75q0 -90 -116 -182h125zM40 615q26 0 45.5 13t25.5 31h80v-349h-84v244q-26 -16 -67 -16v77z M481 673h73l-391 -673h-73z"/>
<glyph glyph-name="threequarters" horiz-adv-x="706" unicode="¾" d="M549 142v56h81v-56h55v-75h-55v-66h-81v66h-156v68l107 215h91l-109 -208h67zM112 417q2 -25 17.5 -39t35.5 -14q21 0 34 15t13 35q0 22 -15 34t-37 12q-23 0 -47 -11l-28 62l68 71h-97v77h201v-65l-70 -76q47 0 75.5 -29.5t28.5 -77.5q0 -55 -38.5 -86t-90.5 -31 q-47 0 -83.5 25.5t-42.5 70.5zM520 673h73l-391 -673h-73z"/>
<glyph glyph-name="questiondown" horiz-adv-x="413" unicode="¿" d="M338 116q-6 -65 -51 -100t-103 -35q-59 0 -101.5 35.5t-42.5 98.5q0 30 10 54.5t33 47t40 35t51 35.5q20 13 28 19.5t19.5 22.5t11.5 33q0 22 -15 36t-36 14q-20 0 -35.5 -14.5t-20.5 -42.5l-73 26q11 53 49 81.5t85 28.5q52 0 90.5 -34t38.5 -93q0 -69 -66 -122 q-17 -13 -57 -39t-54.5 -43.5t-14.5 -43.5q0 -28 17.5 -43.5t43.5 -15.5q29 0 51.5 20t26.5 57zM195 670q25 0 43 -18t18 -43q0 -26 -18 -44.5t-43 -18.5q-26 0 -44.5 18.5t-18.5 44.5q0 25 18.5 43t44.5 18z"/>
<glyph glyph-name="Agrave" horiz-adv-x="682" unicode="À" d="M206 243h271l-136 315zM510 166h-337l-72 -166h-96l294 659h84l294 -659h-96zM350 710l-132 164l76 56l117 -175z"/>
<glyph glyph-name="Aacute" horiz-adv-x="682" unicode="Á" d="M206 243h271l-136 315zM510 166h-337l-72 -166h-96l294 659h84l294 -659h-96zM297 756l117 175l76 -56l-132 -164z"/>
<glyph glyph-name="Acircumflex" horiz-adv-x="682" unicode="Â" d="M206 243h271l-136 315zM510 166h-337l-72 -166h-96l294 659h84l294 -659h-96zM199 720l120 134h64l120 -134h-97l-55 70l-56 -70h-96z"/>
<glyph glyph-name="Atilde" horiz-adv-x="682" unicode="Ã" d="M206 243h271l-136 315zM510 166h-337l-72 -166h-96l294 659h84l294 -659h-96zM205 725q0 40 23.5 73t66.5 33q26 0 60.5 -19.5t49.5 -19.5q28 0 28 35l71 -10q0 -40 -23 -73t-67 -33q-28 0 -61 20t-47 20q-30 0 -30 -36z"/>
<glyph glyph-name="Adieresis" horiz-adv-x="682" unicode="Ä" d="M206 243h271l-136 315zM510 166h-337l-72 -166h-96l294 659h84l294 -659h-96zM442 710q-25 0 -42 17t-17 42q0 26 17 43.5t42 17.5q26 0 43.5 -18t17.5 -43t-17.5 -42t-43.5 -17zM258 710q-25 0 -42 17t-17 42q0 26 17 43.5t42 17.5q26 0 43.5 -18t17.5 -43t-17.5 -42 t-43.5 -17z"/>
<glyph glyph-name="Aring" horiz-adv-x="682" unicode="Å" d="M206 243h271l-136 315zM510 166h-337l-72 -166h-96l294 659h84l294 -659h-96zM351 871q-21 0 -34.5 -14.5t-13.5 -35.5t13.5 -36t34.5 -15t34 15t13 36t-13 35.5t-34 14.5zM351 710q-46 0 -78.5 32.5t-32.5 78.5t32.5 78.5t78.5 32.5t78.5 -32.5t32.5 -78.5t-32.5 -78.5 t-78.5 -32.5z"/>
<glyph glyph-name="AE" horiz-adv-x="791" unicode="Æ" d="M326 527l-123 -284h192zM402 582l53 -210h218v-77h-199l54 -216h203v-79h-277l-40 166h-244l-72 -166h-93l294 659h432v-77h-329z"/>
<glyph glyph-name="Ccedilla" horiz-adv-x="631" unicode="Ç" d="M316 -76l-34 -142l-91 33l58 123zM606 154q-37 -83 -107.5 -128t-152.5 -45q-58 0 -112 23t-97.5 65.5t-70 110.5t-26.5 150q0 83 27 151t71 110.5t98.5 65t111.5 22.5q72 0 132.5 -35.5t93.5 -105.5l-73 -42q-25 51 -66.5 77t-89.5 26q-85 0 -150.5 -72t-65.5 -194 q0 -123 67 -196.5t155 -73.5q57 0 105.5 34t74.5 98z"/>
<glyph glyph-name="Egrave" horiz-adv-x="541" unicode="È" d="M164 295v-216h317v-79h-401v659h401v-77h-317v-210h259v-77h-259zM293 710l-132 164l76 56l117 -175z"/>
<glyph glyph-name="Eacute" horiz-adv-x="541" unicode="É" d="M164 295v-216h317v-79h-401v659h401v-77h-317v-210h259v-77h-259zM231 754l117 175l76 -56l-132 -164z"/>
<glyph glyph-name="Ecircumflex" horiz-adv-x="541" unicode="Ê" d="M164 295v-216h317v-79h-401v659h401v-77h-317v-210h259v-77h-259zM128 721l120 134h64l120 -134h-97l-55 70l-56 -70h-96z"/>
<glyph glyph-name="Edieresis" horiz-adv-x="541" unicode="Ë" d="M164 295v-216h317v-79h-401v659h401v-77h-317v-210h259v-77h-259zM369 710q-25 0 -42 17t-17 42q0 26 17 43.5t42 17.5t43 -18t18 -43t-17.5 -42t-43.5 -17zM185 710q-25 0 -42 17t-17 42q0 26 17 43.5t42 17.5t43 -18t18 -43t-17.5 -42t-43.5 -17z"/>
<glyph glyph-name="Igrave" horiz-adv-x="244" unicode="Ì" d="M80 659h84v-659h-84v659zM121 710l-132 164l76 56l117 -175z"/>
<glyph glyph-name="Iacute" horiz-adv-x="244" unicode="Í" d="M80 659h84v-659h-84v659zM65 754l117 175l76 -56l-132 -164z"/>
<glyph glyph-name="Icircumflex" horiz-adv-x="244" unicode="Î" d="M80 659h84v-659h-84v659zM-30 720l120 134h64l120 -134h-97l-55 70l-56 -70h-96z"/>
<glyph glyph-name="Idieresis" horiz-adv-x="244" unicode="Ï" d="M80 659h84v-659h-84v659zM213 710q-25 0 -42 17t-17 42q0 26 17 43.5t42 17.5t43 -18t18 -43t-17.5 -42t-43.5 -17zM29 710q-25 0 -42 17t-17 42q0 26 17 43.5t42 17.5t43 -18t18 -43t-17.5 -42t-43.5 -17z"/>
<glyph glyph-name="Eth" horiz-adv-x="653" unicode="Ð" d="M179 79h118q108 0 167.5 74t59.5 176q0 103 -60.5 178t-168.5 75h-116v-165h207v-77h-207v-261zM95 659h202q76 0 137.5 -28t99.5 -75t58.5 -105t20.5 -121q0 -85 -33.5 -158t-106.5 -122.5t-173 -49.5h-205v340h-65v77h65v242z"/>
<glyph glyph-name="Ntilde" horiz-adv-x="654" unicode="Ñ" d="M164 0h-84v659h82l328 -500v500h84v-659h-80l-330 502v-502zM185 724q0 40 23.5 73t66.5 33q26 0 60.5 -19.5t49.5 -19.5q28 0 28 35l71 -10q0 -40 -23 -73t-67 -33q-28 0 -61 20t-47 20q-30 0 -30 -36z"/>
<glyph glyph-name="Ograve" horiz-adv-x="702" unicode="Ò" d="M351 62q97 0 159.5 75t62.5 193t-62.5 193t-159.5 75t-159.5 -75t-62.5 -193t62.5 -193t159.5 -75zM351 679q134 0 222.5 -98t88.5 -251t-88.5 -251t-222.5 -98t-222.5 98t-88.5 251t88.5 251t222.5 98zM369 711l-132 164l76 56l117 -175z"/>
<glyph glyph-name="Oacute" horiz-adv-x="702" unicode="Ó" d="M351 62q97 0 159.5 75t62.5 193t-62.5 193t-159.5 75t-159.5 -75t-62.5 -193t62.5 -193t159.5 -75zM351 679q134 0 222.5 -98t88.5 -251t-88.5 -251t-222.5 -98t-222.5 98t-88.5 251t88.5 251t222.5 98zM308 756l117 175l76 -56l-132 -164z"/>
<glyph glyph-name="Ocircumflex" horiz-adv-x="702" unicode="Ô" d="M351 62q97 0 159.5 75t62.5 193t-62.5 193t-159.5 75t-159.5 -75t-62.5 -193t62.5 -193t159.5 -75zM351 679q134 0 222.5 -98t88.5 -251t-88.5 -251t-222.5 -98t-222.5 98t-88.5 251t88.5 251t222.5 98zM204 722l120 134h64l120 -134h-97l-55 70l-56 -70h-96z"/>
<glyph glyph-name="Otilde" horiz-adv-x="702" unicode="Õ" d="M351 62q97 0 159.5 75t62.5 193t-62.5 193t-159.5 75t-159.5 -75t-62.5 -193t62.5 -193t159.5 -75zM351 679q134 0 222.5 -98t88.5 -251t-88.5 -251t-222.5 -98t-222.5 98t-88.5 251t88.5 251t222.5 98zM209 724q0 40 23.5 73t66.5 33q26 0 60.5 -19.5t49.5 -19.5 q28 0 28 35l71 -10q0 -40 -23 -73t-67 -33q-28 0 -61 20t-47 20q-30 0 -30 -36z"/>
<glyph glyph-name="Odieresis" horiz-adv-x="702" unicode="Ö" d="M351 62q97 0 159.5 75t62.5 193t-62.5 193t-159.5 75t-159.5 -75t-62.5 -193t62.5 -193t159.5 -75zM351 679q134 0 222.5 -98t88.5 -251t-88.5 -251t-222.5 -98t-222.5 98t-88.5 251t88.5 251t222.5 98zM447 720q-25 0 -42 17t-17 42q0 26 17 43.5t42 17.5t43 -18t18 -43 t-17.5 -42t-43.5 -17zM263 720q-25 0 -42 17t-17 42q0 26 17 43.5t42 17.5t43 -18t18 -43t-17.5 -42t-43.5 -17z"/>
<glyph glyph-name="multiply" horiz-adv-x="517" unicode="×" d="M437 206l-60 -60l-119 118l-118 -118l-60 60l118 118l-118 119l60 60l118 -119l119 119l60 -60l-119 -119z"/>
<glyph glyph-name="Oslash" horiz-adv-x="702" unicode="Ø" d="M351 62q97 0 160 75.5t63 192.5q0 77 -29 138.5t-79 95.5l-172 -494q29 -8 57 -8zM128 330q0 -77 29 -138.5t79 -95.5l172 494q-29 8 -57 8q-97 0 -160 -75.5t-63 -192.5zM524 730l-30 -86q77 -42 122.5 -124.5t45.5 -189.5q0 -153 -88.5 -251t-222.5 -98q-43 0 -84 11 l-21 -59h-67l29 83q-77 42 -122.5 124.5t-45.5 189.5q0 153 88.5 251t222.5 98q43 0 84 -11l22 62h67z"/>
<glyph glyph-name="Ugrave" horiz-adv-x="632" unicode="Ù" d="M562 237q0 -112 -66.5 -184t-179.5 -72t-179.5 72t-66.5 184v422h84v-414q0 -77 40 -130t122 -53t122 53t40 130v414h84v-422zM321 710l-132 164l76 56l117 -175z"/>
<glyph glyph-name="Uacute" horiz-adv-x="632" unicode="Ú" d="M562 237q0 -112 -66.5 -184t-179.5 -72t-179.5 72t-66.5 184v422h84v-414q0 -77 40 -130t122 -53t122 53t40 130v414h84v-422zM263 754l117 175l76 -56l-132 -164z"/>
<glyph glyph-name="Ucircumflex" horiz-adv-x="632" unicode="Û" d="M562 237q0 -112 -66.5 -184t-179.5 -72t-179.5 72t-66.5 184v422h84v-414q0 -77 40 -130t122 -53t122 53t40 130v414h84v-422zM164 722l120 134h64l120 -134h-97l-55 70l-56 -70h-96z"/>
<glyph glyph-name="Udieresis" horiz-adv-x="632" unicode="Ü" d="M562 237q0 -112 -66.5 -184t-179.5 -72t-179.5 72t-66.5 184v422h84v-414q0 -77 40 -130t122 -53t122 53t40 130v414h84v-422zM407 711q-25 0 -42 17t-17 42q0 26 17 43.5t42 17.5t43 -17.5t18 -43.5q0 -25 -17.5 -42t-43.5 -17zM223 711q-25 0 -42 17t-17 42 q0 26 17 43.5t42 17.5t43 -17.5t18 -43.5q0 -25 -17.5 -42t-43.5 -17z"/>
<glyph glyph-name="Yacute" horiz-adv-x="578" unicode="Ý" d="M247 0v284l-242 375h101l183 -291l183 291h101l-242 -375v-284h-84zM248 754l117 175l76 -56l-132 -164z"/>
<glyph glyph-name="Thorn" horiz-adv-x="544" unicode="Þ" d="M287 60q66 0 102 52.5t36 125.5q0 72 -36 125t-100 53q-65 0 -102.5 -54t-37.5 -127q0 -72 36.5 -123.5t101.5 -51.5zM303 491q82 0 141.5 -65.5t59.5 -186.5q0 -123 -61 -188.5t-146 -65.5q-91 0 -149 70v-255h-78v788l78 31v-207q28 38 69.5 58.5t85.5 20.5z"/>
<glyph glyph-name="germandbls" horiz-adv-x="537" unicode="ß" d="M443 515q0 -34 -14 -65t-29 -47.5t-43 -42.5t-37 -35q11 -10 44.5 -29t60.5 -36.5t49.5 -52t22.5 -76.5q0 -66 -46 -106t-108 -40q-45 0 -84.5 23t-56.5 66l76 41q8 -26 27.5 -40.5t42.5 -14.5q26 0 44.5 17.5t18.5 48.5q0 29 -18 50t-44.5 35t-52.5 27.5t-44 35 t-18 49.5q0 24 13 44t31 35t36.5 30t31.5 36t13 45q0 40 -29.5 65.5t-69.5 25.5q-46 0 -79 -36.5t-33 -109.5v-458h-78v477q0 98 56 150t134 52q73 0 128 -45t55 -119z"/>
<glyph glyph-name="agrave" horiz-adv-x="501" unicode="à" d="M341 247q-12 -9 -32.5 -16.5t-36 -11t-40 -7.5t-30.5 -5q-78 -16 -78 -75q0 -29 20.5 -51.5t62.5 -22.5q53 0 93.5 35.5t40.5 98.5v55zM417 126q0 -60 32 -60q7 0 17 5v-70q-19 -12 -44 -12q-29 0 -51.5 18.5t-26.5 54.5q-16 -27 -54 -52t-94 -25q-72 0 -114 44t-42 103 q0 111 147 139q10 2 37.5 6t43 7.5t34.5 11t28 21t9 32.5q0 34 -27 52.5t-66 18.5q-81 0 -124 -69l-57 44q67 96 186 96q166 0 166 -178v-187zM247 549l-132 164l76 56l117 -175z"/>
<glyph glyph-name="aacute" horiz-adv-x="501" unicode="á" d="M341 247q-12 -9 -32.5 -16.5t-36 -11t-40 -7.5t-30.5 -5q-78 -16 -78 -75q0 -29 20.5 -51.5t62.5 -22.5q53 0 93.5 35.5t40.5 98.5v55zM417 126q0 -60 32 -60q7 0 17 5v-70q-19 -12 -44 -12q-29 0 -51.5 18.5t-26.5 54.5q-16 -27 -54 -52t-94 -25q-72 0 -114 44t-42 103 q0 111 147 139q10 2 37.5 6t43 7.5t34.5 11t28 21t9 32.5q0 34 -27 52.5t-66 18.5q-81 0 -124 -69l-57 44q67 96 186 96q166 0 166 -178v-187zM192 593l117 175l76 -56l-132 -164z"/>
<glyph glyph-name="acircumflex" horiz-adv-x="501" unicode="â" d="M341 247q-12 -9 -32.5 -16.5t-36 -11t-40 -7.5t-30.5 -5q-78 -16 -78 -75q0 -29 20.5 -51.5t62.5 -22.5q53 0 93.5 35.5t40.5 98.5v55zM417 126q0 -60 32 -60q7 0 17 5v-70q-19 -12 -44 -12q-29 0 -51.5 18.5t-26.5 54.5q-16 -27 -54 -52t-94 -25q-72 0 -114 44t-42 103 q0 111 147 139q10 2 37.5 6t43 7.5t34.5 11t28 21t9 32.5q0 34 -27 52.5t-66 18.5q-81 0 -124 -69l-57 44q67 96 186 96q166 0 166 -178v-187zM93 561l120 134h64l120 -134h-97l-55 70l-56 -70h-96z"/>
<glyph glyph-name="atilde" horiz-adv-x="501" unicode="ã" d="M341 247q-12 -9 -32.5 -16.5t-36 -11t-40 -7.5t-30.5 -5q-78 -16 -78 -75q0 -29 20.5 -51.5t62.5 -22.5q53 0 93.5 35.5t40.5 98.5v55zM417 126q0 -60 32 -60q7 0 17 5v-70q-19 -12 -44 -12q-29 0 -51.5 18.5t-26.5 54.5q-16 -27 -54 -52t-94 -25q-72 0 -114 44t-42 103 q0 111 147 139q10 2 37.5 6t43 7.5t34.5 11t28 21t9 32.5q0 34 -27 52.5t-66 18.5q-81 0 -124 -69l-57 44q67 96 186 96q166 0 166 -178v-187zM97 563q0 40 23.5 73t66.5 33q26 0 60.5 -19.5t49.5 -19.5q28 0 28 35l71 -10q0 -40 -23 -73t-67 -33q-28 0 -61 20t-47 20 q-30 0 -30 -36z"/>
<glyph glyph-name="adieresis" horiz-adv-x="501" unicode="ä" d="M341 247q-12 -9 -32.5 -16.5t-36 -11t-40 -7.5t-30.5 -5q-78 -16 -78 -75q0 -29 20.5 -51.5t62.5 -22.5q53 0 93.5 35.5t40.5 98.5v55zM417 126q0 -60 32 -60q7 0 17 5v-70q-19 -12 -44 -12q-29 0 -51.5 18.5t-26.5 54.5q-16 -27 -54 -52t-94 -25q-72 0 -114 44t-42 103 q0 111 147 139q10 2 37.5 6t43 7.5t34.5 11t28 21t9 32.5q0 34 -27 52.5t-66 18.5q-81 0 -124 -69l-57 44q67 96 186 96q166 0 166 -178v-187zM341 549q-25 0 -42 17t-17 42q0 26 17 43.5t42 17.5t43 -17.5t18 -43.5q0 -25 -17.5 -42t-43.5 -17zM157 549q-25 0 -42 17 t-17 42q0 26 17 43.5t42 17.5t43 -17.5t18 -43.5q0 -25 -17.5 -42t-43.5 -17z"/>
<glyph glyph-name="aring" horiz-adv-x="501" unicode="å" d="M341 247q-12 -9 -32.5 -16.5t-36 -11t-40 -7.5t-30.5 -5q-78 -16 -78 -75q0 -29 20.5 -51.5t62.5 -22.5q53 0 93.5 35.5t40.5 98.5v55zM417 126q0 -60 32 -60q7 0 17 5v-70q-19 -12 -44 -12q-29 0 -51.5 18.5t-26.5 54.5q-16 -27 -54 -52t-94 -25q-72 0 -114 44t-42 103 q0 111 147 139q10 2 37.5 6t43 7.5t34.5 11t28 21t9 32.5q0 34 -27 52.5t-66 18.5q-81 0 -124 -69l-57 44q67 96 186 96q166 0 166 -178v-187zM251 709q-21 0 -34.5 -14.5t-13.5 -35.5t13.5 -36t34.5 -15t34 15t13 36t-13 35.5t-34 14.5zM251 548q-46 0 -78.5 32.5 t-32.5 78.5t32.5 78.5t78.5 32.5t78.5 -32.5t32.5 -78.5t-32.5 -78.5t-78.5 -32.5z"/>
<glyph glyph-name="ae" horiz-adv-x="806" unicode="æ" d="M341 192v55q-12 -9 -32.5 -16.5t-36 -11t-40 -7.5t-30.5 -5q-78 -16 -78 -75q0 -29 20.5 -51.5t62.5 -22.5q53 0 93.5 35.5t40.5 98.5zM559 416q-51 0 -90.5 -36.5t-43.5 -101.5h251v9q0 62 -34.5 95.5t-82.5 33.5zM704 140l62 -44q-35 -55 -86.5 -83t-108.5 -28 q-61 0 -114.5 31.5t-84.5 89.5q-56 -121 -176 -121q-72 0 -114 44t-42 103q0 111 147 139q10 2 37.5 6t43 7.5t34.5 11t28 21t9 32.5q0 34 -27 52.5t-66 18.5q-37 0 -71 -17.5t-55 -51.5l-57 44q67 96 188 96q109 0 147 -78q64 78 164 78q82 0 139.5 -60.5t57.5 -172.5 q0 -28 -4 -52h-330q6 -68 49 -107t99 -39q86 0 131 80z"/>
<glyph glyph-name="ccedilla" horiz-adv-x="495" unicode="ç" d="M250 -77l-34 -142l-91 33l58 123zM465 108q-26 -58 -80 -90.5t-117 -32.5q-92 0 -160 65.5t-68 187.5q0 121 66.5 187t156.5 66q58 0 108.5 -29t77.5 -84l-68 -41q-19 38 -50.5 58.5t-67.5 20.5q-57 0 -100 -48t-43 -130q0 -83 44 -130.5t104 -47.5q41 0 76.5 22.5 t57.5 66.5z"/>
<glyph glyph-name="egrave" horiz-adv-x="510" unicode="è" d="M380 278v9q0 62 -34.5 95.5t-82.5 33.5q-51 0 -90.5 -36.5t-43.5 -101.5h251zM129 206q6 -68 49 -107t99 -39q86 0 131 80l62 -44q-35 -55 -86.5 -83t-108.5 -28q-94 0 -162 69t-68 187q0 117 66.5 183.5t154.5 66.5q82 0 139.5 -60.5t57.5 -172.5q0 -28 -4 -52h-330z M282 549l-132 164l76 56l117 -175z"/>
<glyph glyph-name="eacute" horiz-adv-x="510" unicode="é" d="M380 278v9q0 62 -34.5 95.5t-82.5 33.5q-51 0 -90.5 -36.5t-43.5 -101.5h251zM129 206q6 -68 49 -107t99 -39q86 0 131 80l62 -44q-35 -55 -86.5 -83t-108.5 -28q-94 0 -162 69t-68 187q0 117 66.5 183.5t154.5 66.5q82 0 139.5 -60.5t57.5 -172.5q0 -28 -4 -52h-330z M223 593l117 175l76 -56l-132 -164z"/>
<glyph glyph-name="ecircumflex" horiz-adv-x="510" unicode="ê" d="M380 278v9q0 62 -34.5 95.5t-82.5 33.5q-51 0 -90.5 -36.5t-43.5 -101.5h251zM129 206q6 -68 49 -107t99 -39q86 0 131 80l62 -44q-35 -55 -86.5 -83t-108.5 -28q-94 0 -162 69t-68 187q0 117 66.5 183.5t154.5 66.5q82 0 139.5 -60.5t57.5 -172.5q0 -28 -4 -52h-330z M119 560l120 134h64l120 -134h-97l-55 70l-56 -70h-96z"/>
<glyph glyph-name="edieresis" horiz-adv-x="510" unicode="ë" d="M380 278v9q0 62 -34.5 95.5t-82.5 33.5q-51 0 -90.5 -36.5t-43.5 -101.5h251zM129 206q6 -68 49 -107t99 -39q86 0 131 80l62 -44q-35 -55 -86.5 -83t-108.5 -28q-94 0 -162 69t-68 187q0 117 66.5 183.5t154.5 66.5q82 0 139.5 -60.5t57.5 -172.5q0 -28 -4 -52h-330z M366 548q-25 0 -42 17t-17 42q0 26 17 43.5t42 17.5q26 0 43.5 -18t17.5 -43t-17.5 -42t-43.5 -17zM182 548q-25 0 -42 17t-17 42q0 26 17 43.5t42 17.5q26 0 43.5 -18t17.5 -43t-17.5 -42t-43.5 -17z"/>
<glyph glyph-name="igrave" horiz-adv-x="178" unicode="ì" d="M50 476h78v-476h-78v476zM82 548l-132 164l76 56l117 -175z"/>
<glyph glyph-name="iacute" horiz-adv-x="178" unicode="í" d="M50 476h78v-476h-78v476zM50 593l117 175l76 -56l-132 -164z"/>
<glyph glyph-name="icircumflex" horiz-adv-x="404" unicode="î" d="M163 476h78v-476h-78v476zM50 570l120 134h64l120 -134h-97l-55 70l-56 -70h-96z"/>
<glyph glyph-name="idieresis" horiz-adv-x="178" unicode="ï" d="M50 476h78v-476h-78v476zM180 549q-25 0 -42 17t-17 42q0 26 17 43.5t42 17.5q26 0 43.5 -17.5t17.5 -43.5q0 -25 -17.5 -42t-43.5 -17zM-4 549q-25 0 -42 17t-17 42q0 26 17 43.5t42 17.5q26 0 43.5 -17.5t17.5 -43.5q0 -25 -17.5 -42t-43.5 -17z"/>
<glyph glyph-name="eth" horiz-adv-x="596" unicode="ð" d="M281 62q68 0 118 55t53 157q-26 39 -68.5 66.5t-96.5 27.5q-68 0 -108.5 -44t-40.5 -111q0 -70 42 -110.5t101 -40.5zM395 718l-18 -59q78 -36 121.5 -125t43.5 -208q0 -169 -76 -257t-182 -88q-94 0 -164 64.5t-70 170.5q0 102 67.5 168t166.5 66q106 0 172 -73 q-5 65 -31 120.5t-73 81.5l-26 -83h-60l30 101q-6 1 -18 1q-90 0 -135 -70l-60 51q29 43 79 71.5t116 28.5q22 0 41 -3l13 42h63z"/>
<glyph glyph-name="ntilde" horiz-adv-x="531" unicode="ñ" d="M80 0v476h63l17 -68q18 38 57.5 60.5t84.5 22.5q66 0 112.5 -46t46.5 -136v-309h-78v299q0 56 -29 86.5t-71 30.5q-49 0 -87 -39.5t-38 -106.5v-270h-78zM115 562q0 40 23.5 73t66.5 33q26 0 60.5 -19.5t49.5 -19.5q28 0 28 35l71 -10q0 -40 -23 -73t-67 -33 q-28 0 -61 20t-47 20q-30 0 -30 -36z"/>
<glyph glyph-name="ograve" horiz-adv-x="548" unicode="ò" d="M274 60q68 0 111 52t43 126t-43 126t-111 52t-111 -52t-43 -126t43 -126t111 -52zM274 491q105 0 169.5 -72.5t64.5 -180.5t-64.5 -180.5t-169.5 -72.5t-169.5 72.5t-64.5 180.5t64.5 180.5t169.5 72.5zM295 548l-132 164l76 56l117 -175z"/>
<glyph glyph-name="oacute" horiz-adv-x="548" unicode="ó" d="M274 60q68 0 111 52t43 126t-43 126t-111 52t-111 -52t-43 -126t43 -126t111 -52zM274 491q105 0 169.5 -72.5t64.5 -180.5t-64.5 -180.5t-169.5 -72.5t-169.5 72.5t-64.5 180.5t64.5 180.5t169.5 72.5zM239 592l117 175l76 -56l-132 -164z"/>
<glyph glyph-name="ocircumflex" horiz-adv-x="548" unicode="ô" d="M274 60q68 0 111 52t43 126t-43 126t-111 52t-111 -52t-43 -126t43 -126t111 -52zM274 491q105 0 169.5 -72.5t64.5 -180.5t-64.5 -180.5t-169.5 -72.5t-169.5 72.5t-64.5 180.5t64.5 180.5t169.5 72.5zM127 560l120 134h64l120 -134h-97l-55 70l-56 -70h-96z"/>
<glyph glyph-name="otilde" horiz-adv-x="548" unicode="õ" d="M274 60q68 0 111 52t43 126t-43 126t-111 52t-111 -52t-43 -126t43 -126t111 -52zM274 491q105 0 169.5 -72.5t64.5 -180.5t-64.5 -180.5t-169.5 -72.5t-169.5 72.5t-64.5 180.5t64.5 180.5t169.5 72.5zM138 563q0 40 23.5 73t66.5 33q26 0 60.5 -19.5t49.5 -19.5 q28 0 28 35l71 -10q0 -40 -23 -73t-67 -33q-29 0 -62 20t-46 20q-30 0 -30 -36z"/>
<glyph glyph-name="odieresis" horiz-adv-x="548" unicode="ö" d="M274 60q68 0 111 52t43 126t-43 126t-111 52t-111 -52t-43 -126t43 -126t111 -52zM274 491q105 0 169.5 -72.5t64.5 -180.5t-64.5 -180.5t-169.5 -72.5t-169.5 72.5t-64.5 180.5t64.5 180.5t169.5 72.5zM370 549q-25 0 -42 17t-17 42q0 26 17 43.5t42 17.5 q26 0 43.5 -17.5t17.5 -43.5q0 -25 -17.5 -42t-43.5 -17zM186 549q-25 0 -42 17t-17 42q0 26 17 43.5t42 17.5q26 0 43.5 -17.5t17.5 -43.5q0 -25 -17.5 -42t-43.5 -17z"/>
<glyph glyph-name="divide" d="M268 55q-26 0 -43.5 17.5t-17.5 43.5t18 44.5t43 18.5q26 0 44.5 -18.5t18.5 -44.5q0 -25 -18.5 -43t-44.5 -18zM80 341h376v-77h-376v77zM268 418q-26 0 -43.5 18t-17.5 43q0 26 18 44.5t43 18.5q26 0 44.5 -18.5t18.5 -44.5q0 -25 -18.5 -43t-44.5 -18z" unicode="÷"/>
<glyph glyph-name="oslash" horiz-adv-x="548" unicode="ø" d="M274 60q68 0 111 52t43 126q0 100 -69 151l-112 -327q18 -2 27 -2zM120 238q0 -99 69 -150l111 326q-16 2 -26 2q-68 0 -111 -52t-43 -126zM415 552l-30 -88q58 -31 90.5 -91t32.5 -135q0 -108 -64.5 -180.5t-169.5 -72.5q-25 0 -52 5l-21 -61h-67l28 83q-58 31 -90 91 t-32 135q0 108 64.5 180.5t169.5 72.5q24 0 51 -5l23 66h67z"/>
<glyph glyph-name="ugrave" horiz-adv-x="511" unicode="ù" d="M441 476v-476h-63l-17 68q-18 -38 -57.5 -60.5t-84.5 -22.5q-66 0 -112.5 46t-46.5 136v309h78v-295q0 -56 29 -86.5t71 -30.5q49 0 87 39.5t38 106.5v266h78zM250 548l-132 164l76 56l117 -175z"/>
<glyph glyph-name="uacute" horiz-adv-x="511" unicode="ú" d="M441 476v-476h-63l-17 68q-18 -38 -57.5 -60.5t-84.5 -22.5q-66 0 -112.5 46t-46.5 136v309h78v-295q0 -56 29 -86.5t71 -30.5q49 0 87 39.5t38 106.5v266h78zM185 593l117 175l76 -56l-132 -164z"/>
<glyph glyph-name="ucircumflex" horiz-adv-x="511" unicode="û" d="M441 476v-476h-63l-17 68q-18 -38 -57.5 -60.5t-84.5 -22.5q-66 0 -112.5 46t-46.5 136v309h78v-295q0 -56 29 -86.5t71 -30.5q49 0 87 39.5t38 106.5v266h78zM99 560l120 134h64l120 -134h-97l-55 70l-56 -70h-96z"/>
<glyph glyph-name="udieresis" horiz-adv-x="511" unicode="ü" d="M441 476v-476h-63l-17 68q-18 -38 -57.5 -60.5t-84.5 -22.5q-66 0 -112.5 46t-46.5 136v309h78v-295q0 -56 29 -86.5t71 -30.5q49 0 87 39.5t38 106.5v266h78zM342 549q-25 0 -42 17t-17 42q0 26 17 43.5t42 17.5q26 0 43.5 -17.5t17.5 -43.5q0 -25 -17.5 -42t-43.5 -17z M158 549q-25 0 -42 17t-17 42q0 26 17 43.5t42 17.5q26 0 43.5 -17.5t17.5 -43.5q0 -25 -17.5 -42t-43.5 -17z"/>
<glyph glyph-name="yacute" horiz-adv-x="461" unicode="ý" d="M72 -105q34 -24 56 -24q37 0 56 58l14 43l-188 504h96l132 -390l127 390h86l-198 -578q-39 -114 -120 -114q-47 0 -97 37zM181 593l117 175l76 -56l-132 -164z"/>
<glyph glyph-name="thorn" horiz-adv-x="585" unicode="þ" d="M164 311h199q54 0 84.5 33.5t30.5 79.5t-30.5 79.5t-84.5 33.5h-199v-226zM164 614h200q95 0 148 -56.5t53 -133.5t-53 -133.5t-148 -56.5h-200v-234h-84v699h84v-85z"/>
<glyph glyph-name="OE" horiz-adv-x="802" unicode="Œ" d="M351 582q-99 0 -161.5 -68t-62.5 -184t62.5 -184.5t161.5 -68.5v505zM435 295v-216h307v-79h-391q-136 0 -223.5 89.5t-87.5 240.5t87.5 240t223.5 89h391v-77h-307v-210h249v-77h-249z"/>
<glyph glyph-name="oe" horiz-adv-x="893" unicode="œ" d="M646 416q-51 0 -90.5 -36.5t-43.5 -101.5h251v9q0 62 -34.5 95.5t-82.5 33.5zM274 60q68 0 111 52t43 126t-43 126t-111 52t-111 -52t-43 -126t43 -126t111 -52zM791 140l62 -44q-35 -55 -86.5 -83t-108.5 -28t-107.5 27.5t-82.5 77.5q-66 -105 -194 -105 q-105 0 -169.5 72.5t-64.5 180.5t64.5 180.5t169.5 72.5q128 0 193 -103q31 50 80 76.5t102 26.5q82 0 139.5 -60.5t57.5 -172.5q0 -28 -4 -52h-330q6 -68 49 -107t99 -39q86 0 131 80z"/>
<glyph glyph-name="Scaron" horiz-adv-x="497" unicode="Š" d="M116 187q15 -61 55.5 -93t88.5 -32q46 0 78.5 27.5t32.5 74.5q0 24 -9.5 44t-31.5 38t-38.5 28.5t-49.5 29.5q-39 22 -60 36t-49 39t-41 56.5t-13 69.5q0 81 53 127.5t126 46.5q53 0 98.5 -27t68.5 -78l-72 -41q-28 64 -97 64q-36 0 -62 -23.5t-26 -63.5q0 -22 9 -41 t30 -36t37.5 -27.5t48.5 -28.5q41 -23 62 -37t50.5 -39.5t43 -57t13.5 -70.5q0 -90 -60.5 -141t-144.5 -51q-77 0 -140 45.5t-82 129.5zM300 722h-64l-120 134h96l56 -70l55 70h97z"/>
<glyph glyph-name="scaron" horiz-adv-x="422" unicode="š" d="M102 153q16 -41 49 -68.5t75 -27.5q35 0 61 18t26 48q0 7 -1.5 13.5t-5.5 13t-7.5 11t-11.5 9.5t-12.5 8.5t-15 8.5t-15.5 7.5t-17.5 8t-17.5 7.5q-32 14 -49 23.5t-40.5 27t-34 41t-10.5 53.5q0 60 41.5 98t106.5 38q89 0 138 -68l-55 -50q-28 45 -83 45 q-28 0 -47.5 -15t-19.5 -41q0 -20 15 -36.5t30 -24t51 -23.5q7 -3 11 -5q32 -14 50.5 -23.5t40.5 -26.5t32.5 -40t10.5 -52q0 -65 -50 -105.5t-124 -40.5q-71 0 -122 38t-71 94zM260 559h-64l-120 134h96l56 -70l55 70h97z"/>
<glyph glyph-name="Ydieresis" horiz-adv-x="578" unicode="Ÿ" d="M247 0v284l-242 375h101l183 -291l183 291h101l-242 -375v-284h-84zM390 710q-25 0 -42 17t-17 42q0 26 17 43.5t42 17.5q26 0 43.5 -18t17.5 -43t-17.5 -42t-43.5 -17zM206 710q-25 0 -42 17t-17 42q0 26 17 43.5t42 17.5q26 0 43.5 -18t17.5 -43t-17.5 -42t-43.5 -17z "/>
<glyph glyph-name="circumflex" horiz-adv-x="464" unicode="ˆ" d="M80 642l120 134h64l120 -134h-97l-55 70l-56 -70h-96z"/>
<glyph glyph-name="tilde" horiz-adv-x="474" unicode="˜" d="M90 670q0 40 23.5 73t66.5 33q26 0 60.5 -19.5t49.5 -19.5q28 0 28 35l71 -10q0 -40 -23 -73t-67 -33q-29 0 -62 20t-46 20q-30 0 -30 -36z"/>
<glyph glyph-name="Delta" horiz-adv-x="782" unicode="Δ" d="M185 79h412l-206 479zM727 0h-672l294 659h84z"/>
<glyph glyph-name="mu" horiz-adv-x="511" unicode="μ" d="M441 0h-63l-17 68q-18 -38 -57.5 -60.5t-84.5 -22.5q-43 0 -81 21v-206h-78v676h78v-295q0 -56 29 -86.5t71 -30.5q49 0 87 39.5t38 106.5v266h78v-476z"/>
<glyph glyph-name="pi" horiz-adv-x="587" unicode="π" d="M504 404h-68v-224q0 -28 0.5 -41t5.5 -28.5t15 -25.5q16 -16 46 -16q16 0 34 6v-77q-17 -7 -50 -7q-58 0 -92 34q-24 24 -30.5 59t-6.5 100v220h-173v-404h-78v404h-67v72h464v-72z"/>
<glyph glyph-name="endash" horiz-adv-x="636" unicode="–" d="M80 341h476v-77h-476v77z"/>
<glyph glyph-name="emdash" horiz-adv-x="836" unicode="—" d="M80 341h676v-77h-676v77z"/>
<glyph glyph-name="quoteleft" horiz-adv-x="170" unicode="‘" d="M86 580h4q20 0 37 -14t17 -42q0 -27 -17.5 -42.5t-42.5 -15.5q-30 0 -47 23.5t-17 59.5q0 51 33 92t97 47v-45q-27 -3 -46 -20t-18 -43z"/>
<glyph glyph-name="quotesinglbase" horiz-adv-x="210" unicode="‚" d="M104 -2h-4q-20 0 -37 14t-17 42q0 27 17.5 42.5t42.5 15.5q30 0 47 -23.5t17 -59.5q0 -51 -33 -92t-97 -47v45q27 3 46 20t18 43z"/>
<glyph glyph-name="quotedblleft" horiz-adv-x="340" unicode="“" d="M256 580h4q20 0 37 -14t17 -42q0 -27 -17.5 -42.5t-42.5 -15.5q-30 0 -47 23.5t-17 59.5q0 51 33 92t97 47v-45q-27 -3 -46 -20t-18 -43zM86 580h4q20 0 37 -14t17 -42q0 -27 -17.5 -42.5t-42.5 -15.5q-30 0 -47 23.5t-17 59.5q0 51 33 92t97 47v-45q-27 -3 -46 -20 t-18 -43z"/>
<glyph glyph-name="quotedblright" horiz-adv-x="340" unicode="”" d="M254 563h-4q-20 0 -37 14t-17 42q0 27 17.5 42.5t42.5 15.5q30 0 47 -23.5t17 -59.5q0 -51 -33 -92t-97 -47v45q27 3 46 20t18 43zM84 563h-4q-20 0 -37 14t-17 42q0 27 17.5 42.5t42.5 15.5q30 0 47 -23.5t17 -59.5q0 -51 -33 -92t-97 -47v45q27 3 46 20t18 43z"/>
<glyph glyph-name="dagger" d="M307 476h149v-75h-149v-401h-78v401h-149v75h149v197h78v-197z" unicode="†"/>
<glyph glyph-name="daggerdbl" d="M307 326h149v-75h-149v-251h-78v251h-149v75h149v75h-149v75h149v197h78v-197h149v-75h-149v-75z" unicode="‡"/>
<glyph glyph-name="ellipsis" horiz-adv-x="584" unicode="…" d="M481 -10q-25 0 -43 18t-18 43q0 26 18 44.5t43 18.5q26 0 44.5 -18.5t18.5 -44.5q0 -25 -18.5 -43t-44.5 -18zM291 -10q-25 0 -43 18t-18 43q0 26 18 44.5t43 18.5q26 0 44.5 -18.5t18.5 -44.5q0 -25 -18.5 -43t-44.5 -18zM101 -10q-25 0 -43 18t-18 43q0 26 18 44.5 t43 18.5q26 0 44.5 -18.5t18.5 -44.5q0 -25 -18.5 -43t-44.5 -18z"/>
<glyph glyph-name="perthousand" horiz-adv-x="1081" unicode="‰" d="M971 131q0 39 -24.5 63t-57.5 24t-57.5 -24t-24.5 -63t24.5 -63t57.5 -24t57.5 24t24.5 63zM641 131q0 39 -24.5 63t-57.5 24t-57.5 -24t-24.5 -63t24.5 -63t57.5 -24t57.5 24t24.5 63zM737 131q0 65 43.5 107.5t108.5 42.5t108.5 -42.5t43.5 -107.5t-43.5 -107.5 t-108.5 -42.5t-108.5 42.5t-43.5 107.5zM407 131q0 65 43.5 107.5t108.5 42.5t108.5 -42.5t43.5 -107.5t-43.5 -107.5t-108.5 -42.5t-108.5 42.5t-43.5 107.5zM268 529q0 36 -22.5 58t-53.5 22t-53.5 -22t-22.5 -58t22.5 -58t53.5 -22t53.5 22t22.5 58zM235 0h-67l316 544 q-30 -17 -67 -17q-55 0 -91 39q8 -26 8 -50q0 -56 -39.5 -96.5t-102.5 -40.5q-64 0 -108 42.5t-44 107.5q0 64 43 107t105 43q35 0 69.5 -16t58 -34.5t54.5 -34.5t59 -16q65 0 126 81h63z"/>
<glyph glyph-name="guilsinglleft" horiz-adv-x="267" unicode="‹" d="M207 70l-177 159v87l177 159v-116l-102 -87l102 -84v-118z"/>
<glyph glyph-name="guilsinglright" horiz-adv-x="267" unicode="›" d="M60 475l177 -159v-87l-177 -159v118l102 84l-102 87v116z"/>
<glyph glyph-name="fraction" horiz-adv-x="538" unicode="⁄" d="M431 673h73l-391 -673h-73z"/>
<glyph glyph-name="Euro" horiz-adv-x="575" unicode="€" d="M195 262q12 -80 64.5 -135t129.5 -55q54 0 106 28v-95q-59 -24 -116 -24q-107 0 -185.5 75.5t-92.5 205.5h-71v44h69q-1 10 -1 23q0 15 1 21h-69v45h69q22 131 101.5 204.5t182.5 73.5q58 0 112 -25v-97q-54 38 -113 38q-68 0 -119 -47.5t-72 -146.5h304v-45h-308 q-2 -12 -2 -22q0 -8 2 -22h308v-44h-300z"/>
<glyph glyph-name="trademark" horiz-adv-x="630" unicode="™" d="M448 473h-31l-58 111v-165h-44v254h48l69 -138l70 138h48v-254h-44v165zM276 673v-41h-76v-213h-44v213h-76v41h196z"/>
<glyph glyph-name="partialdiff" horiz-adv-x="606" unicode="∂" d="M143 213q0 -67 40.5 -109t103.5 -42q79 0 125.5 65t48.5 147q-25 39 -70 66.5t-99 27.5q-68 0 -108.5 -44t-40.5 -111zM465 377q-7 88 -53.5 154.5t-128.5 66.5q-90 0 -135 -70l-60 51q29 43 79 71.5t116 28.5q123 0 195.5 -99.5t72.5 -253.5q0 -149 -68.5 -247 t-194.5 -98q-106 0 -169.5 68.5t-63.5 166.5q0 102 67.5 168t166.5 66q110 0 176 -73z"/>
<glyph glyph-name="product" horiz-adv-x="575" unicode="∏" d="M55 0v659h465v-659h-84v581h-298v-581h-83z"/>
<glyph glyph-name="summation" horiz-adv-x="610" unicode="∑" d="M196 582l205 -253l-203 -250h352v-79h-470v59l217 270l-217 273v57h470v-77h-354z"/>
<glyph glyph-name="minus" d="M80 341h376v-77h-376v77z" unicode="−"/>
<glyph glyph-name="radical" horiz-adv-x="569" unicode="√" d="M26 222l-41 74l171 97l138 -245l167 511h93l-222 -659h-62l-153 273z"/>
<glyph glyph-name="infinity" horiz-adv-x="774" unicode="∞" d="M425 285q0 -54 32.5 -86t78.5 -32q49 0 77 34t28 84t-28 84t-77 34q-46 0 -78.5 -32t-32.5 -86zM133 285q0 -50 28 -84t77 -34q46 0 78.5 32t32.5 86t-32.5 86t-78.5 32q-49 0 -77 -34t-28 -84zM538 79q-54 0 -92 26t-59 63q-21 -37 -59 -63t-92 -26q-84 0 -135 61.5 t-51 144.5t51 144.5t135 61.5q54 0 92 -26t59 -63q21 37 59 63t92 26q84 0 135 -61.5t51 -144.5t-51 -144.5t-135 -61.5z"/>
<glyph glyph-name="approxequal" horiz-adv-x="596" unicode="≈" d="M79 202q48 89 136 89q36 0 97 -25t91 -25q47 0 90 51l59 -62q-19 -36 -57 -59.5t-83 -23.5q-37 0 -97.5 25t-92.5 25q-48 0 -89 -49zM79 402q48 89 136 89q36 0 97 -25t91 -25q47 0 90 51l59 -62q-19 -36 -57 -59.5t-83 -23.5q-37 0 -97.5 25t-92.5 25q-48 0 -89 -49z "/>
<glyph glyph-name="notequal" d="M337 476h119v-77h-145l-35 -103h180v-77h-207l-51 -151h-46l51 151h-123v77h150l35 103h-185v77h211l46 134h46z" unicode="≠"/>
<glyph glyph-name="lessequal" horiz-adv-x="320" unicode="≤" d="M50 77h230v-77h-230v77zM279 164l-229 190v97l229 190v-112l-165 -127l165 -126v-112z"/>
<glyph glyph-name="greaterequal" horiz-adv-x="330" unicode="≥" d="M50 77h230v-77h-230v77zM50 640l229 -190v-97l-229 -190v112l165 126l-165 127v112z"/>
<glyph glyph-name="lozenge" horiz-adv-x="621" unicode="◊" d="M480 329l-169 253l-169 -253l169 -251zM257 659h108l216 -331l-216 -328h-108l-217 330z"/>
</font>
</defs>
</svg>
