<?xml version="1.0" encoding="UTF-8" standalone="no"?>
<!DOCTYPE svg  PUBLIC '-//W3C//DTD SVG 1.1//EN'  'http://www.w3.org/Graphics/SVG/1.1/DTD/svg11.dtd'>
<svg xmlns="http://www.w3.org/2000/svg">
<defs>
<font id="Cadiz-BoldItalic" horiz-adv-x="677">
<font-face slope="-13" underline-position="-50" font-weight="700" descent="-200" panose-1="0 0 8 0 0 0 0 0 0 0" units-per-em="1000" unicode-range="U+0020-25CA" bbox="-156 -243 1026 970" x-height="476" underline-thickness="50" font-family="Cadiz" ascent="800" font-style="italic" cap-height="659"/>
<missing-glyph horiz-adv-x="1000"/>
<glyph glyph-name=".notdef" horiz-adv-x="1000"/>
<glyph glyph-name=".null" horiz-adv-x="0"/>
<glyph glyph-name="nonmarkingreturn" horiz-adv-x="333"/>
<glyph glyph-name="space" horiz-adv-x="200" unicode=" "/>
<glyph glyph-name="exclam" horiz-adv-x="240" unicode="!" d="M79 -11q-32 0 -55 22.5t-23 53.5q0 33 25 57.5t58 24.5q31 0 53 -23t22 -55q0 -33 -24 -56.5t-56 -23.5zM159 673h117l-61 -263l-58 -210h-97l38 210z"/>
<glyph glyph-name="quotedbl" horiz-adv-x="287" unicode='&quot;' d="M367 673l-53 -210h-113l44 210h122zM206 673l-53 -210h-113l43 210h123z"/>
<glyph glyph-name="numbersign" horiz-adv-x="533" unicode="#" d="M253 383l-72 -159h143l71 159h-142zM100 430h123l76 168h52l-76 -168h142l76 168h52l-77 -168h116l-22 -47h-116l-71 -159h118l-22 -47h-118l-79 -177h-52l80 177h-142l-80 -177h-52l80 177h-122l22 47h121l72 159h-123z"/>
<glyph glyph-name="dollar" horiz-adv-x="448" unicode="$" d="M239 261l-37 -163q34 2 57.5 25t23.5 60t-44 78zM201 500q0 -32 34 -68l32 139q-28 -4 -47 -23t-19 -48zM309 567l-38 -167q2 -1 19 -14.5t20 -16.5t18.5 -16.5t20 -18.5t16.5 -18t16.5 -21.5t12.5 -22t11 -25t5.5 -26.5t2.5 -30q0 -98 -67.5 -154t-158.5 -56h-12 l-16 -70h-43l17 75q-69 14 -117 60.5t-57 121.5l129 31q1 -37 20.5 -61.5t51.5 -34.5l43 189q-28 23 -37.5 31t-32 31t-32 39.5t-18.5 42.5t-9 54q0 89 65.5 139t152.5 50l16 72l43 -3l-17 -73q52 -9 88.5 -40.5t45.5 -80.5l-108 -47q-11 44 -51 60z"/>
<glyph glyph-name="percent" horiz-adv-x="665" unicode="%" d="M513 57q29 0 49.5 20.5t20.5 53.5t-20.5 53.5t-49.5 20.5t-49.5 -20.5t-20.5 -53.5t20.5 -53.5t49.5 -20.5zM513 281q65 0 108.5 -42.5t43.5 -107.5t-43.5 -107.5t-108.5 -42.5t-108.5 42.5t-43.5 107.5t43.5 107.5t108.5 42.5zM215 455q29 0 49.5 20.5t20.5 53.5 t-20.5 53.5t-49.5 20.5t-49.5 -20.5t-20.5 -53.5t20.5 -53.5t49.5 -20.5zM670 659l-535 -659h-75l448 552q-31 -21 -70 -21q-48 0 -79 28q3 -12 3 -30q0 -66 -41 -108t-106 -42t-108.5 42t-43.5 107t43.5 108t105.5 43q34 0 68 -15.5t57 -34t54 -34t60 -15.5q65 0 144 79h75 z"/>
<glyph glyph-name="ampersand" horiz-adv-x="516" unicode="&amp;" d="M197 270q-44 -17 -67.5 -46.5t-23.5 -59.5q1 -28 21 -46.5t57 -18.5q49 0 89 31zM486 0h-136l-25 40q-75 -59 -163 -59q-78 0 -132.5 47t-54.5 126q0 130 165 219q-37 62 -37 131q0 74 48 124.5t131 50.5q68 0 114.5 -34t46.5 -92q0 -49 -33.5 -93t-91.5 -63l-45 82 q50 18 50 55q0 16 -12 28t-32 12q-23 0 -39.5 -16t-16.5 -46q0 -38 28 -88l109 -198q18 33 21 68l110 -8q-18 -98 -72 -168z"/>
<glyph glyph-name="quotesingle" horiz-adv-x="126" unicode="&apos;" d="M206 673l-53 -210h-113l44 210h122z"/>
<glyph glyph-name="parenleft" horiz-adv-x="282" unicode="(" d="M73 -114q-57 117 -57 262q0 158 66 314t185 268h155q-132 -119 -205.5 -274.5t-73.5 -308.5q0 -149 70 -261h-140z"/>
<glyph glyph-name="parenright" horiz-adv-x="293" unicode=")" d="M227 730q61 -122 61 -272q0 -149 -61.5 -299t-177.5 -273h-163q133 125 203 273t70 295q0 148 -72 276h140z"/>
<glyph glyph-name="asterisk" horiz-adv-x="426" unicode="*" d="M310 537l132 43l13 -42l-133 -43l130 -42l-15 -43l-130 43l77 -111l-36 -27l-78 112l-5 -138h-44l5 138l-86 -112l-34 26l85 112l-132 -43l-13 42l134 43l-131 42l15 43l130 -43l-77 111l36 27l78 -112l5 138h44l-5 -138l86 112l34 -26z"/>
<glyph glyph-name="plus" horiz-adv-x="402" unicode="+" d="M215 107h-123l31 132h-124l26 113h124l31 132h123l-31 -132h124l-26 -113h-124z"/>
<glyph glyph-name="comma" horiz-adv-x="232" unicode="," d="M59 -2q-23 1 -43.5 19t-20.5 46q0 38 23 59.5t57 21.5q32 0 54.5 -26t22.5 -64q0 -68 -56 -126t-152 -66l13 61q36 4 66 23.5t36 51.5z"/>
<glyph glyph-name="hyphen" horiz-adv-x="277" unicode="-" d="M25 348h246l-26 -113h-246z"/>
<glyph glyph-name="period" horiz-adv-x="220" unicode="." d="M60 -11q-32 0 -55 22.5t-23 53.5q0 33 25 57.5t58 24.5q31 0 53 -23t22 -55q0 -33 -24 -56.5t-56 -23.5z"/>
<glyph glyph-name="slash" horiz-adv-x="237" unicode="/" d="M315 673h66l-385 -673h-66z"/>
<glyph glyph-name="zero" horiz-adv-x="580" unicode="0" d="M250 99q55 0 99.5 51t67 122.5t22.5 140.5q0 67 -24.5 107.5t-74.5 40.5q-55 0 -100 -49.5t-68 -120t-23 -140.5q0 -68 25 -110t76 -42zM353 679q104 0 158 -74t54 -187q0 -101 -40 -200.5t-117 -168t-170 -68.5t-153.5 68t-60.5 196q0 105 39.5 203t116.5 164.5 t173 66.5z"/>
<glyph glyph-name="one" horiz-adv-x="342" unicode="1" d="M77 581q90 0 159 78h103l-151 -659h-123l113 492q-50 -29 -128 -29z"/>
<glyph glyph-name="two" horiz-adv-x="468" unicode="2" d="M399 114l-26 -114h-413l21 94q68 43 126.5 87t115.5 96t90 105.5t33 99.5q0 38 -21.5 58.5t-53.5 20.5q-36 0 -64 -26t-28 -71q0 -9 4 -31h-123q-1 9 -1 27q0 104 67 161.5t156 57.5q79 0 135 -47t56 -132q0 -59 -27 -119t-72 -109.5t-89.5 -87.5t-94.5 -70h209z"/>
<glyph glyph-name="three" horiz-adv-x="499" unicode="3" d="M136 193q1 -45 30.5 -70t69.5 -25q41 0 71.5 25.5t30.5 70.5q0 38 -29 66t-82 28q-45 0 -99 -24l-16 110l196 172h-214l26 113h379l-22 -94l-201 -183h7q75 0 129.5 -45t54.5 -130q0 -102 -77.5 -164t-176.5 -62q-80 0 -139 44t-70 127z"/>
<glyph glyph-name="four" horiz-adv-x="554" unicode="4" d="M344 380h123l-27 -119h77l-26 -114h-77l-34 -147h-123l34 147h-296l24 103l342 409h153l-331 -398h134z"/>
<glyph glyph-name="five" horiz-adv-x="527" unicode="5" d="M225 546l-32 -137q49 21 98 21q74 0 122 -46.5t48 -135.5q0 -120 -83 -193.5t-188 -73.5q-77 0 -134 44t-66 127l132 37q0 -44 23 -66.5t58 -22.5q61 0 97 39t36 88q0 39 -23 62t-69 23q-54 0 -129 -54l-67 51l80 350h369l-26 -113h-246z"/>
<glyph glyph-name="six" horiz-adv-x="567" unicode="6" d="M145 280q-2 -22 -2 -32q0 -75 38 -112t92 -37q60 0 96 41t36 92q0 46 -31 77.5t-87 31.5q-84 0 -142 -61zM469 506q-34 61 -102 61q-56 0 -109 -41.5t-75 -110.5q71 41 141 41q94 0 149.5 -64.5t55.5 -153.5q0 -102 -72 -179.5t-195 -77.5q-107 0 -174.5 67t-67.5 206 q0 95 33.5 177.5t86.5 135.5t116.5 83t126.5 30q124 0 185 -103z"/>
<glyph glyph-name="seven" horiz-adv-x="422" unicode="7" d="M30 546l26 113h446l-21 -93q-45 -31 -79 -58t-87 -82t-88 -111.5t-62 -140t-28 -174.5h-131q4 167 90 318t217 228h-283z"/>
<glyph glyph-name="eight" horiz-adv-x="483" unicode="8" d="M119 174q0 -37 26 -57t65 -20q48 0 84.5 28t36.5 76q0 37 -24 56.5t-65 19.5q-53 0 -88 -30t-35 -73zM268 403q49 0 80 28.5t31 66.5q0 31 -22.5 48t-59.5 17q-47 0 -78.5 -25t-31.5 -65q0 -31 20.5 -50.5t60.5 -19.5zM454 201q0 -100 -71.5 -160t-183.5 -60 q-96 0 -152.5 45t-56.5 123q0 70 43 122t106 74q-74 44 -74 133q0 93 74 147t170 54q81 0 137.5 -40.5t56.5 -115.5q0 -63 -39 -113t-93 -65q83 -42 83 -144z"/>
<glyph glyph-name="nine" horiz-adv-x="561" unicode="9" d="M416 381q2 22 2 32q0 75 -38 112t-92 37q-60 0 -96 -41t-36 -92q0 -46 31 -77.5t87 -31.5q84 0 142 61zM92 155q34 -61 102 -61q56 0 109 41.5t75 110.5q-71 -41 -141 -41q-94 0 -149.5 64.5t-55.5 153.5q0 102 72 179.5t195 77.5q107 0 174.5 -67t67.5 -206 q0 -95 -33.5 -177.5t-86.5 -135.5t-116.5 -83t-126.5 -30q-124 0 -185 103z"/>
<glyph glyph-name="colon" horiz-adv-x="217" unicode=":" d="M60 -11q-32 0 -55 22.5t-23 53.5q0 33 25 57.5t58 24.5q31 0 53 -23t22 -55q0 -33 -24 -56.5t-56 -23.5zM116 243q-32 0 -54.5 22.5t-22.5 53.5q0 33 25 57.5t58 24.5q31 0 53 -23t22 -55q0 -33 -24 -56.5t-57 -23.5z"/>
<glyph glyph-name="semicolon" horiz-adv-x="251" unicode=";" d="M70 5q-54 13 -54 65q0 36 25.5 58t59.5 22q33 0 54 -22.5t21 -57.5q0 -58 -52 -112.5t-128 -54.5q-13 0 -19 1l12 53q1 0 4.5 -0.5t5.5 -0.5q25 0 45.5 13.5t25.5 35.5zM150 243q-32 0 -54.5 22.5t-22.5 53.5q0 34 24.5 58t57.5 24q31 0 53.5 -23t22.5 -55 q0 -33 -24 -56.5t-57 -23.5z"/>
<glyph glyph-name="less" horiz-adv-x="243" unicode="&lt;" d="M192 53l-203 209l25 107l299 210l-40 -176l-147 -97l102 -95z"/>
<glyph glyph-name="equal" horiz-adv-x="439" unicode="=" d="M24 311h376l-26 -113h-376zM62 476h376l-26 -113h-376z"/>
<glyph glyph-name="greater" horiz-adv-x="252" unicode="&gt;" d="M82 579l203 -210l-24 -107l-299 -209l39 169l150 100l-104 99z"/>
<glyph glyph-name="question" horiz-adv-x="364" unicode="?" d="M115 -11q-32 0 -55 22.5t-23 53.5q0 33 25 57.5t58 24.5q31 0 53 -23t22 -55q0 -33 -24 -56.5t-56 -23.5zM79 541q16 66 68.5 102t115.5 36q61 0 103.5 -33.5t42.5 -92.5q0 -35 -15 -64.5t-44 -53t-49 -36t-53 -30.5q-49 -27 -65 -39t-16 -26q0 -11 7.5 -17.5t19.5 -6.5 q15 0 29.5 11.5t22.5 34.5l94 -37q-19 -55 -66 -85.5t-100 -30.5q-54 0 -91.5 31t-37.5 86q0 57 40 94.5t119 80.5q33 18 47 26.5t26.5 22t12.5 27.5q0 15 -9.5 23t-24.5 8q-23 0 -45 -17t-30 -47z"/>
<glyph glyph-name="at" horiz-adv-x="556" unicode="@" d="M162 187q0 -48 40 -48q44 0 79.5 49.5t35.5 93.5q0 41 -40 41q-44 0 -79.5 -43t-35.5 -93zM557 304q0 -104 -59 -163.5t-125 -59.5q-28 0 -48.5 12.5t-24.5 36.5q-12 -14 -35 -29q-41 -27 -86 -27q-42 0 -69 26.5t-27 79.5q0 50 24.5 95.5t64.5 75.5q48 35 101 35 q61 0 74 -44l36 37h56l-72 -186q-6 -15 -6 -26q0 -27 28 -27q38 0 74 49t36 114q0 69 -45.5 112.5t-126.5 43.5q-119 0 -213.5 -86.5t-94.5 -206.5q0 -71 37.5 -115t107.5 -44q73 0 126 42l26 -44q-75 -53 -163 -53q-90 0 -143.5 58.5t-53.5 156.5q0 147 115.5 247 t262.5 100q103 0 163 -55t60 -155z"/>
<glyph glyph-name="A" d="M425 264l-43 228l-150 -228h193zM614 0h-137l-30 151h-288l-98 -151h-152l444 659h116z" unicode="A"/>
<glyph glyph-name="B" horiz-adv-x="570" unicode="B" d="M178 289l-40 -179h141q54 0 88 34t34 75q0 30 -20 50t-58 20h-145zM238 551l-34 -153h128q45 0 71.5 28t26.5 63q0 27 -17 44.5t-49 17.5h-126zM399 659q77 0 119.5 -44.5t42.5 -106.5q0 -47 -25 -89t-72 -64q32 -20 49 -57t17 -80q0 -87 -64.5 -152.5t-182.5 -65.5h-297 l151 659h262z"/>
<glyph glyph-name="C" horiz-adv-x="607" unicode="C" d="M481 229l106 -66q-52 -88 -134.5 -135t-170.5 -47q-115 0 -193 79.5t-78 226.5q0 91 32.5 167.5t85 124t116 74t129.5 26.5q84 0 150 -42.5t93 -123.5l-118 -57q-15 51 -49.5 78t-81.5 27q-85 0 -156.5 -75.5t-71.5 -195.5q0 -92 43.5 -141.5t108.5 -49.5q52 0 103 33.5 t86 96.5z"/>
<glyph glyph-name="D" horiz-adv-x="621" unicode="D" d="M238 551l-101 -441h78q120 0 193 84.5t73 187.5q0 73 -40 121t-115 48h-88zM-14 0l151 659h212q125 0 192.5 -77.5t67.5 -191.5q0 -70 -26.5 -138t-75.5 -125t-128 -92t-175 -35h-218z"/>
<glyph glyph-name="E" horiz-adv-x="523" unicode="E" d="M176 278l-39 -168h298l-25 -110h-424l151 659h424l-25 -108h-298l-36 -164h240l-26 -109h-240z"/>
<glyph glyph-name="F" horiz-adv-x="492" unicode="F" d="M407 278h-230l-65 -278h-126l151 659h414l-25 -108h-288l-37 -164h230z"/>
<glyph glyph-name="G" horiz-adv-x="635" unicode="G" d="M594 333l-77 -333h-82l-9 48q-77 -67 -172 -67q-102 0 -172.5 81.5t-70.5 223.5q0 92 32.5 168.5t85 124.5t116 74t129.5 26q84 0 150 -42.5t93 -123.5l-118 -57q-15 51 -49.5 78t-81.5 27q-85 0 -156.5 -75t-71.5 -195q0 -91 43 -141.5t106 -50.5q48 0 91.5 30.5 t70.5 89.5h-173l26 114h290z"/>
<glyph glyph-name="H" horiz-adv-x="658" unicode="H" d="M199 385h283l64 274h126l-151 -659h-126l63 276h-283l-63 -276h-126l151 659h126z"/>
<glyph glyph-name="I" horiz-adv-x="249" unicode="I" d="M137 659h126l-151 -659h-126z"/>
<glyph glyph-name="J" horiz-adv-x="457" unicode="J" d="M186 659h295l-116 -500q-19 -84 -84.5 -131t-142.5 -47q-70 0 -119 41.5t-49 116.5v13l126 32q-2 -14 -2 -20q0 -30 17 -47.5t42 -17.5q30 0 57.5 27t39.5 79l79 345h-168z"/>
<glyph glyph-name="K" horiz-adv-x="652" unicode="K" d="M414 0l-130 327l-105 -76l-57 -251h-126l151 659h126l-56 -241l332 241h193l-352 -255l171 -404h-147z"/>
<glyph glyph-name="L" horiz-adv-x="455" unicode="L" d="M263 659l-126 -549h265l-25 -110h-391l151 659h126z"/>
<glyph glyph-name="M" horiz-adv-x="781" unicode="M" d="M388 87h-103l-84 305l-89 -392h-126l151 659h115l117 -408l299 408h127l-151 -659h-126l88 391z"/>
<glyph glyph-name="N" horiz-adv-x="631" unicode="N" d="M112 0h-126l151 659h111l175 -423l96 423h126l-151 -659h-112l-175 419z"/>
<glyph glyph-name="O" horiz-adv-x="676" unicode="O" d="M302 99q70 0 124.5 43t80.5 105.5t26 130.5q0 88 -46 135.5t-113 47.5q-88 0 -161 -75.5t-73 -194.5q0 -85 41 -138.5t121 -53.5zM373 679q140 0 214 -88t74 -220q0 -163 -106 -276.5t-262 -113.5q-136 0 -209 88t-73 216q0 72 24 141t68 126t114.5 92t155.5 35z"/>
<glyph glyph-name="P" horiz-adv-x="564" unicode="P" d="M198 374h151q53 0 83 31t30 72q0 33 -19 53.5t-55 20.5h-150zM137 659h286q81 0 124.5 -49t43.5 -121q0 -88 -65.5 -156t-179.5 -68h-173l-61 -265h-126z"/>
<glyph glyph-name="Q" horiz-adv-x="699" unicode="Q" d="M306 99q26 0 52 8q0 34 -12 63t-40 29q-20 0 -35.5 -15.5t-15.5 -41.5q0 -42 51 -43zM374 561q-88 0 -161 -75.5t-73 -194.5q0 -91 44 -142v6q0 75 42 117.5t97 42.5q50 0 87.5 -38.5t49.5 -102.5q73 84 73 204q0 88 -46 135.5t-113 47.5zM537 36q46 0 93 49l-31 -134 q-31 -26 -94 -26q-69 0 -105 73q-53 -17 -107 -17q-136 0 -209 88t-73 216q0 72 24 141t68 126t114.5 92t155.5 35q140 0 214 -88t74 -220q0 -99 -41.5 -183t-114.5 -138l2 -4q13 -10 30 -10z"/>
<glyph glyph-name="R" horiz-adv-x="595" unicode="R" d="M350 374q48 0 80 29t32 75q0 36 -20 54.5t-54 18.5h-150l-40 -177h152zM409 659q77 0 129.5 -43t52.5 -128q0 -83 -50 -142t-129 -74l106 -272h-144l-97 265h-104l-61 -265h-126l151 659h272z"/>
<glyph glyph-name="S" horiz-adv-x="478" unicode="S" d="M88 199q-1 -48 28.5 -73.5t68.5 -25.5q36 0 61.5 21.5t25.5 58.5q0 8 -1.5 15t-3 13t-5.5 13.5t-6.5 12t-9.5 12.5t-10 12t-12 12.5t-12.5 12t-14.5 13.5t-15 13q-46 42 -72 83.5t-26 98.5q0 87 61.5 137.5t143.5 50.5q64 0 114.5 -32.5t64.5 -92.5l-116 -48 q-4 28 -24 44t-45 16q-26 0 -45 -18t-19 -48q0 -8 1.5 -15.5t5 -15.5t6.5 -13.5t10 -14t10.5 -13t13 -13.5t13.5 -12.5t15.5 -13.5t14.5 -13q47 -42 74 -86t27 -105q0 -95 -67.5 -149.5t-159.5 -54.5q-85 0 -149 48.5t-75 138.5z"/>
<glyph glyph-name="T" horiz-adv-x="492" unicode="T" d="M109 0l126 550h-189l25 109h504l-25 -109h-189l-126 -550h-126z"/>
<glyph glyph-name="U" horiz-adv-x="621" unicode="U" d="M549 240q-29 -126 -108.5 -193t-193.5 -67q-109 0 -164.5 57t-55.5 142q0 33 7 61l96 419h126l-93 -409q-6 -27 -6 -53q0 -97 98 -97q68 0 112 44t58 106l94 409h126z"/>
<glyph glyph-name="V" horiz-adv-x="557" unicode="V" d="M192 659l46 -472l259 472h139l-373 -659h-127l-71 659h127z"/>
<glyph glyph-name="W" horiz-adv-x="950" unicode="W" d="M494 466l120 193h137l-216 -340l30 -178l322 518h139l-419 -659h-137l-30 173l-113 -173h-136l-117 659h134l84 -518l106 169l-62 349h128z"/>
<glyph glyph-name="X" horiz-adv-x="582" unicode="X" d="M509 0h-149l-89 214l-186 -214h-169l288 326l-137 333h147l91 -218l193 218h162l-289 -327z"/>
<glyph glyph-name="Y" horiz-adv-x="618" unicode="Y" d="M530 659h162l-344 -383l-63 -276h-124l65 284l-156 375h145l98 -254z"/>
<glyph glyph-name="Z" horiz-adv-x="487" unicode="Z" d="M366 389h74l-25 -109h-136l-135 -170h274l-25 -110h-433l19 86l153 194h-77l25 109h139l127 161h-245l25 109h401l-21 -94z"/>
<glyph glyph-name="bracketleft" horiz-adv-x="237" unicode="[" d="M152 -84h-198l191 831h198l-28 -119h-84l-136 -594h84z"/>
<glyph glyph-name="backslash" horiz-adv-x="207" unicode="\" d="M187 0h-58l-75 673h58z"/>
<glyph glyph-name="bracketright" horiz-adv-x="257" unicode="]" d="M86 747h198l-191 -831h-198l27 118h84l136 594h-84z"/>
<glyph glyph-name="asciicircum" horiz-adv-x="526" unicode="^" d="M36 448l268 251h106l152 -251h-158l-73 137l-137 -137h-158z"/>
<glyph glyph-name="underscore" horiz-adv-x="416" unicode="_" d="M-33 114h385l-26 -114h-385z"/>
<glyph glyph-name="grave" horiz-adv-x="134" unicode="`" d="M112 528l-96 208l119 50l78 -220z"/>
<glyph glyph-name="a" horiz-adv-x="512" unicode="a" d="M112 207q0 -55 23.5 -83.5t59.5 -28.5q52 0 96.5 50.5t44.5 125.5q0 53 -23.5 80t-60.5 27q-53 0 -96.5 -47t-43.5 -124zM160 -15q-78 0 -121.5 57t-43.5 143q0 73 30 142t90 116.5t135 47.5q87 0 125 -56l30 41h97l-109 -476h-85l-12 45q-57 -60 -136 -60z"/>
<glyph glyph-name="b" horiz-adv-x="515" unicode="b" d="M362 265q0 59 -23.5 87t-61.5 28q-53 0 -95.5 -47t-42.5 -120q0 -57 26.5 -88.5t66.5 -31.5q51 0 90.5 47.5t39.5 124.5zM190 439q57 52 126 52t116.5 -52.5t47.5 -153.5q0 -122 -68.5 -211t-180.5 -89q-94 0 -139 66l-36 -51h-84l155 673h117z"/>
<glyph glyph-name="c" horiz-adv-x="447" unicode="c" d="M441 373l-102 -55q-30 62 -89 62q-52 0 -94.5 -47.5t-42.5 -118.5q0 -56 27.5 -88.5t67.5 -32.5q29 0 56 19t45 54l96 -65q-39 -57 -94 -86.5t-113 -29.5q-85 0 -144 60t-59 165q0 125 81 203t183 78q59 0 108 -30t74 -88z"/>
<glyph glyph-name="d" horiz-adv-x="536" unicode="d" d="M196 93q52 0 97 51t45 127q0 54 -24 81.5t-61 27.5q-53 0 -96.5 -48t-43.5 -126q0 -55 23 -84t60 -29zM310 0l-12 45q-57 -60 -136 -60q-81 0 -124 56.5t-43 142.5q0 73 29.5 142t89.5 117t138 48q86 0 125 -56l55 238h118l-155 -673h-85z"/>
<glyph glyph-name="e" horiz-adv-x="481" unicode="e" d="M121 286h207q3 15 3 27q0 36 -23.5 56t-56.5 20q-42 0 -78.5 -27t-51.5 -76zM427 195h-316q2 -47 31.5 -74.5t68.5 -27.5q32 0 61 18t46 52l91 -62q-38 -57 -93 -86.5t-113 -29.5q-86 0 -147 61.5t-61 169.5q0 86 40.5 150.5t99.5 94.5t125 30q80 0 134.5 -48t54.5 -137 q0 -47 -22 -111z"/>
<glyph glyph-name="f" horiz-adv-x="301" unicode="f" d="M51 476h61l10 48q17 81 60 118t100 37q39 0 79 -16l-27 -119q-20 13 -42 13q-44 0 -57 -53l-7 -28h91l-25 -108h-90l-85 -368h-117l85 368h-61z"/>
<glyph glyph-name="g" horiz-adv-x="538" unicode="g" d="M118 215q0 -56 28 -85t70 -29q56 0 102.5 47.5t46.5 121.5q0 55 -26.5 82.5t-67.5 27.5q-57 0 -105 -46t-48 -119zM400 436l29 40h99l-108 -465q-25 -110 -102 -168.5t-167 -58.5q-77 0 -135 41.5t-70 113.5l114 24q10 -37 37 -56t62 -19q53 0 97.5 39t53.5 106 q-56 -40 -128 -40q-78 0 -129.5 53t-51.5 155q0 129 80.5 209.5t182.5 80.5q81 0 136 -55z"/>
<glyph glyph-name="h" horiz-adv-x="509" unicode="h" d="M326 491q56 0 94 -31.5t38 -94.5q0 -27 -7 -55l-71 -310h-117l66 288q4 16 4 32q0 32 -16.5 48t-42.5 16q-35 0 -68.5 -27.5t-44.5 -73.5l-65 -283h-117l155 673h117l-51 -222q54 40 126 40z"/>
<glyph glyph-name="i" horiz-adv-x="229" unicode="i" d="M87 476h117l-110 -476h-117zM172 554q-32 0 -54.5 22.5t-22.5 53.5q0 33 25 57.5t58 24.5q31 0 53 -23t22 -55q0 -33 -24 -56.5t-57 -23.5z"/>
<glyph glyph-name="j" horiz-adv-x="243" unicode="j" d="M87 476h116l-124 -541q-17 -74 -60.5 -112.5t-95.5 -38.5q-43 0 -79 25l27 119q18 -23 43 -23q18 0 33.5 15.5t22.5 45.5zM172 554q-32 0 -54.5 22.5t-22.5 53.5q0 33 24.5 57.5t57.5 24.5q31 0 53.5 -22.5t22.5 -54.5q0 -33 -24 -57t-57 -24z"/>
<glyph glyph-name="k" horiz-adv-x="465" unicode="k" d="M294 313l115 -313h-139l-78 226l-55 -45l-41 -181h-117l155 673h117l-78 -336l158 139h154z"/>
<glyph glyph-name="l" horiz-adv-x="234" unicode="l" d="M131 673h117l-155 -673h-117z"/>
<glyph glyph-name="m" horiz-adv-x="720" unicode="m" d="M343 0h-117l68 298q3 15 3 27q0 25 -12.5 39t-32.5 14q-28 0 -54.5 -26t-37.5 -72l-64 -280h-117l110 476h82l9 -42q16 21 55.5 39t79.5 18q71 0 97 -62q57 62 140 62q52 0 86 -29.5t34 -83.5q0 -24 -5 -43l-77 -335h-117l68 298q3 15 3 26q0 26 -12.5 40t-32.5 14 q-28 0 -54 -23.5t-36 -66.5z"/>
<glyph glyph-name="n" horiz-adv-x="511" unicode="n" d="M-21 0l110 476h83l10 -41q25 26 64.5 41t79.5 15q56 0 94 -31.5t38 -94.5q0 -27 -7 -55l-71 -310h-117l65 282q4 16 4 32q0 32 -16.5 48t-42.5 16q-35 0 -68.5 -27.5t-44.5 -73.5l-64 -277h-117z"/>
<glyph glyph-name="o" horiz-adv-x="507" unicode="o" d="M210 93q60 0 101 54.5t41 118.5q0 49 -27 83t-74 34q-60 0 -101 -54t-41 -118q0 -49 27 -83.5t74 -34.5zM469 269q0 -121 -74 -202.5t-194 -81.5q-94 0 -151.5 64.5t-57.5 156.5q0 123 76.5 204t194.5 81q93 0 149.5 -65t56.5 -157z"/>
<glyph glyph-name="p" horiz-adv-x="517" unicode="p" d="M234 93q51 0 90.5 47.5t39.5 124.5q0 59 -23.5 87t-61.5 28q-53 0 -95.5 -47t-42.5 -120q0 -57 26.5 -88.5t66.5 -31.5zM319 491q68 0 115.5 -53t47.5 -153q0 -122 -68.5 -211t-180.5 -89q-86 0 -132 56l-54 -241h-117l155 676h93l10 -38q58 53 131 53z"/>
<glyph glyph-name="q" horiz-adv-x="524" unicode="q" d="M195 93q57 0 99.5 54t42.5 124q0 47 -22 78t-65 31q-58 0 -98 -52.5t-40 -124.5q0 -48 21 -79t62 -31zM-5 190q0 124 75 212.5t184 88.5q88 0 126 -56l30 41h93l-155 -676h-117l53 235q-48 -50 -120 -50q-77 0 -123 55.5t-46 149.5z"/>
<glyph glyph-name="r" horiz-adv-x="330" unicode="r" d="M185 432q38 55 110 55q30 0 54 -11l-27 -121q-26 13 -51 13q-40 0 -71 -27.5t-44 -82.5l-60 -258h-117l110 476h86z"/>
<glyph glyph-name="s" horiz-adv-x="397" unicode="s" d="M287 345q-9 21 -29 33t-41 12q-20 0 -34 -11t-14 -31q0 -16 13 -31t23 -21l40 -24q48 -28 74 -57.5t26 -74.5q0 -67 -56.5 -111t-133.5 -44q-65 0 -121 34.5t-84 102.5l111 53q15 -44 44 -67.5t58 -23.5q22 0 37 12.5t15 32.5q0 29 -41 52q-48 27 -70 42t-40.5 43.5 t-18.5 66.5q0 72 52 115t124 43q102 0 162 -75z"/>
<glyph glyph-name="t" horiz-adv-x="304" unicode="t" d="M194 368l-47 -204q-3 -14 -3 -23q0 -35 32 -35q23 0 47 16l-29 -123q-40 -14 -73 -14q-47 0 -74.5 27.5t-27.5 79.5q0 26 7 54l51 222h-57l25 108h57l22 99l128 46l-33 -145h85l-25 -108h-85z"/>
<glyph glyph-name="u" horiz-adv-x="501" unicode="u" d="M480 476l-110 -476h-86l-10 38q-18 -16 -32 -26t-40 -18.5t-57 -8.5q-72 0 -107 40t-35 104q0 32 7 61l66 286h116l-63 -276q-5 -23 -5 -38q0 -34 16.5 -51.5t42.5 -17.5q36 0 71.5 31t46.5 82l61 270h118z"/>
<glyph glyph-name="v" horiz-adv-x="445" unicode="v" d="M139 476l38 -307l180 307h120l-283 -476h-109l-63 476h117z"/>
<glyph glyph-name="w" horiz-adv-x="679" unicode="w" d="M444 0h-107l-18 276l-145 -276h-107l-41 476h113l20 -299l159 299h93l23 -295l150 295h121z"/>
<glyph glyph-name="x" horiz-adv-x="451" unicode="x" d="M126 241l-110 235h143l60 -140l123 140h148l-218 -242l108 -234h-142l-59 141l-124 -141h-149z"/>
<glyph glyph-name="y" horiz-adv-x="527" unicode="y" d="M31 198l63 278h117l-59 -261q-4 -17 -4 -35q0 -38 20 -58.5t51 -20.5q39 0 74 30t48 85l59 260h117l-107 -470q-24 -106 -103.5 -164t-172.5 -58q-77 0 -134 40.5t-70 114.5l114 24q8 -36 35 -55t66 -19q53 0 99 36.5t63 113.5q-61 -46 -136 -46q-62 0 -104.5 39.5 t-42.5 109.5q0 21 7 56z"/>
<glyph glyph-name="z" horiz-adv-x="437" unicode="z" d="M-53 0l20 86l280 282h-197l25 108h365l-21 -88l-276 -274h218l-26 -114h-388z"/>
<glyph glyph-name="braceleft" horiz-adv-x="253" unicode="{" d="M43 224q3 12 3 20q0 32 -45 32l24 112q55 0 67 52l34 148q37 164 172 164q42 0 67 -16l-28 -119q-15 13 -40 13q-47 0 -62 -68l-35 -150q-7 -28 -26 -50.5t-42 -29.5q34 -11 34 -59q0 -14 -2 -21l-34 -150q-4 -16 -4 -33q0 -35 34 -35q24 0 47 13l-28 -119 q-31 -16 -73 -16q-105 0 -105 98q0 30 9 66z"/>
<glyph glyph-name="bar" horiz-adv-x="179" unicode="|" d="M142 730h59l-188 -818h-59z"/>
<glyph glyph-name="braceright" horiz-adv-x="254" unicode="}" d="M115 76q-37 -164 -172 -164q-41 0 -66 16l27 119q16 -13 41 -13q47 0 62 68l34 150q15 63 68 80q-34 11 -34 57q0 11 3 23l34 150q4 22 4 32q0 36 -35 36q-26 0 -46 -13l27 119q32 16 74 16q105 0 105 -98q0 -30 -9 -66l-34 -148q-3 -10 -3 -20q0 -32 46 -32l-25 -112 q-55 0 -67 -52z"/>
<glyph glyph-name="asciitilde" horiz-adv-x="434" unicode="~" d="M-3 245q20 81 61 118q39 35 93 35q10 0 18.5 -1t17.5 -4t14 -4.5t15 -7.5l12.5 -7.5t15 -10t14.5 -9.5q37 -25 59 -25q20 0 31.5 16t19.5 50l101 -14q-21 -98 -71 -139q-36 -30 -81 -30q-47 0 -99 40q-34 25 -61 25q-50 0 -62 -60z"/>
<glyph glyph-name="exclamdown" horiz-adv-x="240" unicode="¡" d="M145 -13h-117l61 263l58 210h97l-38 -210zM225 671q32 0 55 -22.5t23 -53.5q0 -33 -25 -57.5t-58 -24.5q-31 0 -53 23t-22 55q0 33 24 56.5t56 23.5z"/>
<glyph glyph-name="cent" horiz-adv-x="443" unicode="¢" d="M155 195l63 274q-49 -13 -81 -63t-32 -106q0 -77 50 -105zM110 0l20 82q-69 19 -107 75.5t-38 138.5q0 119 74 199.5t185 85.5l17 78h42l-18 -80q103 -11 151 -116l-101 -55q-24 58 -74 64l-67 -289h4q38 0 62 19.5t45 53.5l96 -65q-78 -116 -209 -116q-15 0 -22 1 l-18 -76h-42z"/>
<glyph glyph-name="sterling" horiz-adv-x="497" unicode="£" d="M65 104q0 -25 28 -25q30 0 46 32q-10 17 -39 19q-35 0 -35 -26zM223 391h-54l11 45h54l24 102q18 75 61.5 108t95.5 33q45 0 77 -19l-27 -115q-18 16 -44 16q-48 0 -63 -68l-13 -57h83l-11 -45h-81l-10 -44h81l-10 -44h-80l-2 -9q-27 -119 -59 -179q21 -18 48 -18 q59 0 122 65l-34 -149q-44 -32 -98 -32q-68 0 -102 47q-47 -44 -110 -44q-49 0 -82 29.5t-33 85.5q0 60 36.5 95t87.5 35q46 0 83 -28q11 20 26 88l3 14h-54l10 44h54z"/>
<glyph glyph-name="currency" horiz-adv-x="504" unicode="¤" d="M208 93q60 0 101 54.5t41 118.5q0 49 -27 83t-74 34q-60 0 -101 -54t-41 -118q0 -49 27 -83.5t74 -34.5zM275 -5q-40 -10 -76 -10q-63 0 -110 25l-45 -79h-52l60 104q-65 60 -65 171q0 88 42 156.5t114 102.5l-9 85h52l7 -67q34 8 68 8q68 0 115 -29l50 88h50l-65 -115 q59 -61 59 -166q0 -84 -39 -152.5t-106 -102.5l9 -83h-50z"/>
<glyph glyph-name="yen" horiz-adv-x="603" unicode="¥" d="M525 659h162l-345 -383l-5 -20h123l-10 -45h-123l-9 -43h122l-11 -46h-122l-27 -122h-124l27 122h-124l11 46h124l9 43h-123l10 45h123l8 28l-156 375h145l99 -256z"/>
<glyph glyph-name="brokenbar" horiz-adv-x="117" unicode="¦" d="M41 270h61l-62 -270h-61zM139 697h61l-61 -269h-61z"/>
<glyph glyph-name="section" horiz-adv-x="415" unicode="§" d="M211 367q-18 0 -31.5 -10t-13.5 -26t15.5 -26.5t37.5 -10.5q21 0 33.5 10t12.5 23q0 16 -17.5 28t-36.5 12zM275 481q28 -13 43 -21.5t35 -24t29 -35.5t9 -46q0 -44 -27 -72t-63 -34q19 -13 32 -39.5t13 -59.5q0 -73 -62 -120.5t-140 -47.5q-65 0 -114.5 36t-65.5 108 l118 46q3 -36 24.5 -54t50.5 -18q26 0 44 12t18 31q0 28 -56 50q-112 47 -112 129q0 40 24.5 70t66.5 40q-50 40 -50 97q0 59 50.5 105t125.5 46q104 0 152 -87l-102 -70q-6 19 -23.5 29.5t-36.5 10.5q-17 0 -28.5 -8.5t-11.5 -23.5t13 -25t44 -24z"/>
<glyph glyph-name="dieresis" horiz-adv-x="288" unicode="¨" d="M311 571q-28 0 -48 20t-20 48q0 30 22 51.5t51 21.5q27 0 46.5 -20.5t19.5 -48.5q0 -30 -21 -51t-50 -21zM120 571q-28 0 -48 20t-20 48q0 30 22 51.5t51 21.5q27 0 46.5 -20.5t19.5 -48.5q0 -30 -21 -51t-50 -21z"/>
<glyph glyph-name="copyright" horiz-adv-x="423" unicode="©" d="M331 656q-16 26 -47 26q-25 0 -44 -19t-19 -49q0 -29 19 -48.5t44 -19.5q38 0 55 33q8 -5 18 -12.5l14 -10.5q-30 -52 -89 -52q-44 0 -73.5 31.5t-29.5 76.5q0 48 29 80t74 32q59 0 83 -48zM274 427q81 0 136.5 56t55.5 137q0 77 -51 129t-128 52q-81 0 -137 -56 t-56 -137q0 -77 51 -129t129 -52zM288 843q95 0 158 -63.5t63 -158.5q0 -101 -68.5 -168.5t-168.5 -67.5q-95 0 -158 63.5t-63 158.5q0 101 68.5 168.5t168.5 67.5z"/>
<glyph glyph-name="ordfeminine" horiz-adv-x="183" unicode="ª" d="M127 569q0 -43 32 -43q20 0 37 19t17 48q0 41 -32 41q-20 0 -37 -18t-17 -47zM247 667h25l-41 -175h-22l-5 18q-23 -23 -53 -23q-27 0 -45.5 19t-18.5 54q0 42 26.5 77.5t68.5 35.5q36 0 50 -27z"/>
<glyph glyph-name="guillemotleft" horiz-adv-x="485" unicode="«" d="M389 38l-163 182l22 98l247 183l-38 -161l-120 -77l84 -82zM153 38l-163 182l22 98l247 183l-38 -161l-120 -77l84 -82z"/>
<glyph glyph-name="logicalnot" horiz-adv-x="416" unicode="¬" d="M244 122l26 113h-271l26 113h385l-52 -226h-114z"/>
<glyph glyph-name="uni00AD" horiz-adv-x="409" unicode="­" d="M15 348h378l-26 -113h-378z"/>
<glyph glyph-name="registered" horiz-adv-x="423" unicode="®" d="M249 684l-3 -73h45q41 0 41 39q0 34 -38 34h-45zM200 509l8 214h88q29 0 54 -16.5t25 -55.5q0 -27 -15 -46t-35 -27l42 -69h-47l-33 62h-42l-3 -62h-42zM274 427q81 0 136.5 56t55.5 137q0 77 -51 129t-128 52q-81 0 -137 -56t-56 -137q0 -77 51 -129t129 -52zM288 843 q95 0 158 -63.5t63 -158.5q0 -101 -68.5 -168.5t-168.5 -67.5q-95 0 -158 63.5t-63 158.5q0 101 68.5 168.5t168.5 67.5z"/>
<glyph glyph-name="macron" horiz-adv-x="341" unicode="¯" d="M104 853h306l-24 -103h-306z"/>
<glyph glyph-name="degree" horiz-adv-x="306" unicode="°" d="M262 529q0 33 -20.5 53.5t-49.5 20.5t-49.5 -20.5t-20.5 -53.5t20.5 -53.5t49.5 -20.5t49.5 20.5t20.5 53.5zM40 529q0 65 43.5 107.5t108.5 42.5t108.5 -42.5t43.5 -107.5t-43.5 -107.5t-108.5 -42.5t-108.5 42.5t-43.5 107.5z"/>
<glyph glyph-name="plusminus" horiz-adv-x="462" unicode="±" d="M19 180h371l-26 -113h-371zM280 243h-123l31 132h-124l26 113h124l29 130h123l-29 -130h124l-26 -113h-124z"/>
<glyph glyph-name="twosuperior" horiz-adv-x="302" unicode="²" d="M267 387l-18 -77h-212l15 65q86 42 130 94t44 92q0 18 -9 29.5t-23 11.5t-25.5 -12t-11.5 -31q0 -7 3 -18l-75 -12q-2 16 -2 24q0 57 35 88.5t84 31.5q46 0 75 -28t29 -71q0 -46 -36.5 -97t-102.5 -90h100z"/>
<glyph glyph-name="threesuperior" horiz-adv-x="310" unicode="³" d="M94 417v-8q0 -22 12.5 -33.5t31.5 -11.5q25 0 40.5 17t16.5 38q0 18 -11 29.5t-34 11.5q-22 0 -49 -11l-16 62l82 71h-100l18 77h203l-15 -65l-84 -76q42 -5 63.5 -30.5t21.5 -60.5q0 -51 -41.5 -92t-108.5 -41q-46 0 -78 25t-33 71z"/>
<glyph glyph-name="acute" horiz-adv-x="263" unicode="´" d="M123 659l154 179l90 -81l-165 -168z"/>
<glyph glyph-name="paragraph" horiz-adv-x="591" unicode="¶" d="M475 545h-72l-38 -166h72zM258 545q-42 0 -69.5 -27.5t-27.5 -66.5q0 -32 19.5 -52t51.5 -20h10l38 166h-22zM216 265q-74 0 -127 46t-53 127q0 57 27.5 108.5t79.5 80.5q59 32 155 32h326l-151 -659h-123l61 265h-72l-61 -265h-123z"/>
<glyph glyph-name="periodcentered" horiz-adv-x="218" unicode="·" d="M140 283q-32 0 -54.5 22.5t-22.5 53.5q0 33 24.5 57.5t57.5 24.5q31 0 53.5 -23t22.5 -55q0 -33 -24 -56.5t-57 -23.5z"/>
<glyph glyph-name="cedilla" horiz-adv-x="236" unicode="¸" d="M177 -26l-70 -165l-112 58l94 150z"/>
<glyph glyph-name="onesuperior" horiz-adv-x="228" unicode="¹" d="M81 615q26 0 48.5 13t32.5 31h80l-81 -349h-84l57 244q-31 -16 -71 -16z"/>
<glyph glyph-name="ordmasculine" horiz-adv-x="168" unicode="º" d="M148 524q25 0 42 20.5t17 47.5q0 20 -10 32t-29 12q-25 0 -41.5 -20t-16.5 -48q0 -44 38 -44zM145 487q-34 0 -54.5 21.5t-20.5 56.5q0 61 45 91q26 17 58 17q35 0 55 -22t20 -57q0 -53 -36 -83q-29 -24 -67 -24z"/>
<glyph glyph-name="guillemotright" horiz-adv-x="477" unicode="»" d="M325 501l162 -183l-23 -98l-245 -182l35 154l118 80l-81 86zM96 501l162 -183l-23 -98l-245 -182l35 154l118 80l-81 86z"/>
<glyph glyph-name="onequarter" horiz-adv-x="659" unicode="¼" d="M484 171l36 52h58l-20 -85h50l-18 -75h-43l-15 -66h-80l13 66h-170l14 57l162 226h93l-154 -208h67zM95 615q26 0 48.5 13t32.5 31h80l-81 -349h-84l57 244q-31 -16 -71 -16zM551 673h77l-546 -673h-77z"/>
<glyph glyph-name="onehalf" horiz-adv-x="651" unicode="½" d="M577 77l-18 -77h-212l15 65q86 42 130 94t44 92q0 18 -9 29.5t-23 11.5t-25.5 -12t-11.5 -31q0 -8 3 -18l-75 -12q-2 16 -2 24q0 57 35 88.5t84 31.5q46 0 75 -28t29 -71q0 -46 -36.5 -97t-102.5 -90h100zM95 615q26 0 48.5 13t32.5 31h80l-81 -349h-84l57 244 q-31 -16 -71 -16zM551 673h77l-546 -673h-77z"/>
<glyph glyph-name="threequarters" horiz-adv-x="650" unicode="¾" d="M475 171l36 52h58l-20 -85h50l-18 -75h-43l-15 -66h-80l13 66h-170l14 57l162 226h93l-154 -208h67zM27 417v-8q0 -22 12.5 -33.5t31.5 -11.5q25 0 40.5 17t16.5 38q0 18 -11 29.5t-34 11.5q-22 0 -49 -11l-16 62l82 71h-100l18 77h203l-15 -65l-84 -76q42 -5 63.5 -30.5 t21.5 -60.5q0 -51 -41.5 -92t-108.5 -41q-46 0 -78 25t-33 71zM542 673h77l-546 -673h-77z"/>
<glyph glyph-name="questiondown" horiz-adv-x="361" unicode="¿" d="M346 119q-16 -66 -68.5 -102t-115.5 -36q-61 0 -103.5 33.5t-42.5 92.5q0 35 15 64.5t44 53t49 36t53 30.5q49 27 65 39t16 26q0 11 -7.5 17.5t-19.5 6.5q-15 0 -29.5 -11.5t-22.5 -34.5l-94 37q19 55 66 85.5t100 30.5q54 0 91.5 -31t37.5 -86q0 -57 -40 -94.5 t-119 -80.5q-33 -18 -47 -26.5t-26.5 -22t-12.5 -27.5q0 -15 9.5 -23t24.5 -8q23 0 45 17t30 47zM310 671q32 0 55 -22.5t23 -53.5q0 -33 -25 -57.5t-58 -24.5q-31 0 -53 23t-22 55q0 33 24 56.5t56 23.5z"/>
<glyph glyph-name="Agrave" d="M425 264l-43 228l-150 -228h193zM614 0h-137l-30 151h-288l-98 -151h-152l444 659h116zM396 702l-96 208l119 50l78 -220z" unicode="À"/>
<glyph glyph-name="Aacute" d="M425 264l-43 228l-150 -228h193zM614 0h-137l-30 151h-288l-98 -151h-152l444 659h116zM338 772l154 179l90 -81l-165 -168z" unicode="Á"/>
<glyph glyph-name="Acircumflex" d="M425 264l-43 228l-150 -228h193zM614 0h-137l-30 151h-288l-98 -151h-152l444 659h116zM209 711l186 165h71l109 -165h-118l-41 61l-63 -61h-144z" unicode="Â"/>
<glyph glyph-name="Atilde" d="M425 264l-43 228l-150 -228h193zM614 0h-137l-30 151h-288l-98 -151h-152l444 659h116zM251 738q8 48 37.5 84t77.5 36q31 0 59 -20.5t42 -20.5q26 0 31 31l89 -17q-5 -49 -31.5 -84.5t-72.5 -35.5q-29 0 -58 20t-42 20q-14 0 -24.5 -10t-14.5 -26z" unicode="Ã"/>
<glyph glyph-name="Adieresis" d="M425 264l-43 228l-150 -228h193zM614 0h-137l-30 151h-288l-98 -151h-152l444 659h116zM506 712q-28 0 -48 20t-20 48q0 30 22 51.5t51 21.5q27 0 46.5 -20.5t19.5 -48.5q0 -30 -21 -51t-50 -21zM315 712q-28 0 -48 20t-20 48q0 30 22 51.5t51 21.5q27 0 46.5 -20.5 t19.5 -48.5q0 -30 -21 -51t-50 -21z" unicode="Ä"/>
<glyph glyph-name="Aring" d="M425 264l-43 228l-150 -228h193zM614 0h-137l-30 151h-288l-98 -151h-152l444 659h116zM433 887q-23 0 -37 -15t-14 -36q0 -22 14 -37.5t37 -15.5q22 0 35.5 15.5t13.5 37.5q0 21 -13.5 36t-35.5 15zM433 712q-51 0 -87.5 36t-36.5 88q0 51 36.5 87t87.5 36t87 -36 t36 -87q0 -52 -36 -88t-87 -36z" unicode="Å"/>
<glyph glyph-name="AE" horiz-adv-x="788" unicode="Æ" d="M367 479l-142 -215h142v215zM152 151l-98 -151h-155l444 659h483l-26 -113h-308v-157h215l-26 -113h-189v-162h209l-26 -114h-308v151h-215z"/>
<glyph glyph-name="Ccedilla" horiz-adv-x="607" unicode="Ç" d="M201 -61l-70 -165l-112 58l94 150zM481 229l106 -66q-52 -88 -134.5 -135t-170.5 -47q-115 0 -193 79.5t-78 226.5q0 91 32.5 167.5t85 124t116 74t129.5 26.5q84 0 150 -42.5t93 -123.5l-118 -57q-15 51 -49.5 78t-81.5 27q-85 0 -156.5 -75.5t-71.5 -195.5 q0 -92 43.5 -141.5t108.5 -49.5q52 0 103 33.5t86 96.5z"/>
<glyph glyph-name="Egrave" horiz-adv-x="523" unicode="È" d="M176 278l-39 -168h298l-25 -110h-424l151 659h424l-25 -108h-298l-36 -164h240l-26 -109h-240zM365 712l-96 208l119 50l78 -220z"/>
<glyph glyph-name="Eacute" horiz-adv-x="523" unicode="É" d="M176 278l-39 -168h298l-25 -110h-424l151 659h424l-25 -108h-298l-36 -164h240l-26 -109h-240zM281 780l154 179l90 -81l-165 -168z"/>
<glyph glyph-name="Ecircumflex" horiz-adv-x="523" unicode="Ê" d="M176 278l-39 -168h298l-25 -110h-424l151 659h424l-25 -108h-298l-36 -164h240l-26 -109h-240zM159 713l186 165h71l109 -165h-118l-41 61l-63 -61h-144z"/>
<glyph glyph-name="Edieresis" horiz-adv-x="523" unicode="Ë" d="M176 278l-39 -168h298l-25 -110h-424l151 659h424l-25 -108h-298l-36 -164h240l-26 -109h-240zM468 712q-28 0 -48 20t-20 48q0 30 22 51.5t51 21.5q27 0 46.5 -20.5t19.5 -48.5q0 -30 -21 -51t-50 -21zM277 712q-28 0 -48 20t-20 48q0 30 22 51.5t51 21.5 q27 0 46.5 -20.5t19.5 -48.5q0 -30 -21 -51t-50 -21z"/>
<glyph glyph-name="Igrave" horiz-adv-x="249" unicode="Ì" d="M137 659h126l-151 -659h-126zM208 701l-96 208l119 50l78 -220z"/>
<glyph glyph-name="Iacute" horiz-adv-x="249" unicode="Í" d="M137 659h126l-151 -659h-126zM135 782l154 179l90 -81l-165 -168z"/>
<glyph glyph-name="Icircumflex" horiz-adv-x="249" unicode="Î" d="M137 659h126l-151 -659h-126zM12 712l186 165h71l109 -165h-118l-41 61l-63 -61h-144z"/>
<glyph glyph-name="Idieresis" horiz-adv-x="249" unicode="Ï" d="M137 659h126l-151 -659h-126zM319 711q-28 0 -48 20t-20 48q0 30 22 51.5t51 21.5q27 0 46.5 -20.5t19.5 -48.5q0 -30 -21 -51t-50 -21zM128 711q-28 0 -48 20t-20 48q0 30 22 51.5t51 21.5q27 0 46.5 -20.5t19.5 -48.5q0 -30 -21 -51t-50 -21z"/>
<glyph glyph-name="Eth" horiz-adv-x="621" unicode="Ð" d="M137 110h81q120 0 193 84.5t73 187.5q0 73 -40 121t-115 48h-91l-31 -134h164l-15 -62h-163zM137 659h212q125 0 192.5 -77.5t67.5 -191.5q0 -70 -26.5 -138t-75.5 -125t-128 -92t-175 -35h-218l81 355h-59l15 62h59z"/>
<glyph glyph-name="Ntilde" horiz-adv-x="631" unicode="Ñ" d="M112 0h-126l151 659h111l175 -423l96 423h126l-151 -659h-112l-175 419zM233 736q8 48 37.5 84t77.5 36q31 0 59 -20.5t42 -20.5q26 0 31 31l89 -17q-5 -49 -31.5 -84.5t-72.5 -35.5q-29 0 -58 20t-42 20q-14 0 -24.5 -10t-14.5 -26z"/>
<glyph glyph-name="Ograve" horiz-adv-x="676" unicode="Ò" d="M302 99q70 0 124.5 43t80.5 105.5t26 130.5q0 88 -46 135.5t-113 47.5q-88 0 -161 -75.5t-73 -194.5q0 -85 41 -138.5t121 -53.5zM373 679q140 0 214 -88t74 -220q0 -163 -106 -276.5t-262 -113.5q-136 0 -209 88t-73 216q0 72 24 141t68 126t114.5 92t155.5 35zM408 701 l-96 208l119 50l78 -220z"/>
<glyph glyph-name="Oacute" horiz-adv-x="676" unicode="Ó" d="M302 99q70 0 124.5 43t80.5 105.5t26 130.5q0 88 -46 135.5t-113 47.5q-88 0 -161 -75.5t-73 -194.5q0 -85 41 -138.5t121 -53.5zM373 679q140 0 214 -88t74 -220q0 -163 -106 -276.5t-262 -113.5q-136 0 -209 88t-73 216q0 72 24 141t68 126t114.5 92t155.5 35zM371 771 l154 179l90 -81l-165 -168z"/>
<glyph glyph-name="Ocircumflex" horiz-adv-x="676" unicode="Ô" d="M302 99q70 0 124.5 43t80.5 105.5t26 130.5q0 88 -46 135.5t-113 47.5q-88 0 -161 -75.5t-73 -194.5q0 -85 41 -138.5t121 -53.5zM373 679q140 0 214 -88t74 -220q0 -163 -106 -276.5t-262 -113.5q-136 0 -209 88t-73 216q0 72 24 141t68 126t114.5 92t155.5 35zM226 712 l186 165h71l109 -165h-118l-41 61l-63 -61h-144z"/>
<glyph glyph-name="Otilde" horiz-adv-x="676" unicode="Õ" d="M302 99q70 0 124.5 43t80.5 105.5t26 130.5q0 88 -46 135.5t-113 47.5q-88 0 -161 -75.5t-73 -194.5q0 -85 41 -138.5t121 -53.5zM373 679q140 0 214 -88t74 -220q0 -163 -106 -276.5t-262 -113.5q-136 0 -209 88t-73 216q0 72 24 141t68 126t114.5 92t155.5 35zM245 739 q8 48 37.5 84t77.5 36q31 0 59 -20.5t42 -20.5q26 0 31 31l89 -17q-5 -49 -31.5 -84.5t-72.5 -35.5q-29 0 -58 20t-42 20q-14 0 -24.5 -10t-14.5 -26z"/>
<glyph glyph-name="Odieresis" horiz-adv-x="676" unicode="Ö" d="M302 99q70 0 124.5 43t80.5 105.5t26 130.5q0 88 -46 135.5t-113 47.5q-88 0 -161 -75.5t-73 -194.5q0 -85 41 -138.5t121 -53.5zM373 679q140 0 214 -88t74 -220q0 -163 -106 -276.5t-262 -113.5q-136 0 -209 88t-73 216q0 72 24 141t68 126t114.5 92t155.5 35zM518 713 q-28 0 -48 20t-20 48q0 30 22 51.5t51 21.5q27 0 46.5 -20.5t19.5 -48.5q0 -30 -21 -51t-50 -21zM327 713q-28 0 -48 20t-20 48q0 30 22 51.5t51 21.5q27 0 46.5 -20.5t19.5 -48.5q0 -30 -21 -51t-50 -21z"/>
<glyph glyph-name="multiply" horiz-adv-x="391" unicode="×" d="M33 432l105 85l83 -109l134 109l75 -99l-134 -108l84 -109l-105 -85l-84 109l-133 -109l-76 99l134 108z"/>
<glyph glyph-name="Oslash" horiz-adv-x="681" unicode="Ø" d="M302 99q70 0 124.5 43t80.5 105.5t26 130.5q0 83 -45 135l-235 -408q21 -6 49 -6zM140 291q0 -107 60 -158l239 415q-29 13 -65 13q-88 0 -161 -75.5t-73 -194.5zM613 730l-61 -106q109 -84 109 -253q0 -163 -106 -276.5t-262 -113.5q-55 0 -103 16l-37 -64h-69l52 91 q-61 39 -93 109t-32 152q0 72 24 141t68 126t114.5 92t155.5 35q71 0 127 -25l44 76h69z"/>
<glyph glyph-name="Ugrave" horiz-adv-x="621" unicode="Ù" d="M549 240q-29 -126 -108.5 -193t-193.5 -67q-109 0 -164.5 57t-55.5 142q0 33 7 61l96 419h126l-93 -409q-6 -27 -6 -53q0 -97 98 -97q68 0 112 44t58 106l94 409h126zM368 701l-96 208l119 50l78 -220z"/>
<glyph glyph-name="Uacute" horiz-adv-x="621" unicode="Ú" d="M549 240q-29 -126 -108.5 -193t-193.5 -67q-109 0 -164.5 57t-55.5 142q0 33 7 61l96 419h126l-93 -409q-6 -27 -6 -53q0 -97 98 -97q68 0 112 44t58 106l94 409h126zM311 770l154 179l90 -81l-165 -168z"/>
<glyph glyph-name="Ucircumflex" horiz-adv-x="621" unicode="Û" d="M549 240q-29 -126 -108.5 -193t-193.5 -67q-109 0 -164.5 57t-55.5 142q0 33 7 61l96 419h126l-93 -409q-6 -27 -6 -53q0 -97 98 -97q68 0 112 44t58 106l94 409h126zM198 713l186 165h71l109 -165h-118l-41 61l-63 -61h-144z"/>
<glyph glyph-name="Udieresis" horiz-adv-x="621" unicode="Ü" d="M549 240q-29 -126 -108.5 -193t-193.5 -67q-109 0 -164.5 57t-55.5 142q0 33 7 61l96 419h126l-93 -409q-6 -27 -6 -53q0 -97 98 -97q68 0 112 44t58 106l94 409h126zM493 712q-28 0 -48 20t-20 48q0 30 22 51.5t51 21.5q27 0 46.5 -20.5t19.5 -48.5q0 -30 -21 -51 t-50 -21zM302 712q-28 0 -48 20t-20 48q0 30 22 51.5t51 21.5q27 0 46.5 -20.5t19.5 -48.5q0 -30 -21 -51t-50 -21z"/>
<glyph glyph-name="Yacute" horiz-adv-x="618" unicode="Ý" d="M530 659h162l-344 -383l-63 -276h-124l65 284l-156 375h145l98 -254zM287 771l154 179l90 -81l-165 -168z"/>
<glyph glyph-name="Thorn" horiz-adv-x="521" unicode="Þ" d="M234 93q51 0 90.5 47.5t39.5 124.5q0 59 -23.5 87t-61.5 28q-53 0 -95.5 -47t-42.5 -120q0 -57 26.5 -88.5t66.5 -31.5zM319 491q69 0 116.5 -53t47.5 -153q0 -122 -69 -211t-181 -89q-84 0 -130 54l-55 -239h-118l178 775l128 45l-40 -175q56 46 123 46z"/>
<glyph glyph-name="germandbls" horiz-adv-x="502" unicode="ß" d="M492 537q0 -31 -13 -59.5t-28.5 -47t-44.5 -39t-45 -29.5t-45 -24q78 -67 103 -99q37 -48 37 -93q0 -67 -58 -117q-51 -44 -131 -44q-105 0 -136 88l110 61q10 -43 43 -43q22 0 35 17.5t13 36.5q0 20 -19.5 44t-42.5 42.5t-42.5 46t-19.5 54.5q0 30 24.5 55t54.5 40 t54.5 39t24.5 53q0 25 -16 38.5t-41 13.5q-35 0 -65.5 -25t-40.5 -68l-110 -478h-117l112 486q22 94 89.5 143.5t147.5 49.5q71 0 119 -38t48 -104z"/>
<glyph glyph-name="agrave" horiz-adv-x="512" unicode="à" d="M112 207q0 -55 23.5 -83.5t59.5 -28.5q52 0 96.5 50.5t44.5 125.5q0 53 -23.5 80t-60.5 27q-53 0 -96.5 -47t-43.5 -124zM160 -15q-78 0 -121.5 57t-43.5 143q0 73 30 142t90 116.5t135 47.5q87 0 125 -56l30 41h97l-109 -476h-85l-12 45q-57 -60 -136 -60zM298 539 l-96 208l119 50l78 -220z"/>
<glyph glyph-name="aacute" horiz-adv-x="512" unicode="á" d="M112 207q0 -55 23.5 -83.5t59.5 -28.5q52 0 96.5 50.5t44.5 125.5q0 53 -23.5 80t-60.5 27q-53 0 -96.5 -47t-43.5 -124zM160 -15q-78 0 -121.5 57t-43.5 143q0 73 30 142t90 116.5t135 47.5q87 0 125 -56l30 41h97l-109 -476h-85l-12 45q-57 -60 -136 -60zM227 606 l154 179l90 -81l-165 -168z"/>
<glyph glyph-name="acircumflex" horiz-adv-x="512" unicode="â" d="M112 207q0 -55 23.5 -83.5t59.5 -28.5q52 0 96.5 50.5t44.5 125.5q0 53 -23.5 80t-60.5 27q-53 0 -96.5 -47t-43.5 -124zM160 -15q-78 0 -121.5 57t-43.5 143q0 73 30 142t90 116.5t135 47.5q87 0 125 -56l30 41h97l-109 -476h-85l-12 45q-57 -60 -136 -60zM123 551 l186 165h71l109 -165h-118l-41 61l-63 -61h-144z"/>
<glyph glyph-name="atilde" horiz-adv-x="512" unicode="ã" d="M112 207q0 -55 23.5 -83.5t59.5 -28.5q52 0 96.5 50.5t44.5 125.5q0 53 -23.5 80t-60.5 27q-53 0 -96.5 -47t-43.5 -124zM160 -15q-78 0 -121.5 57t-43.5 143q0 73 30 142t90 116.5t135 47.5q87 0 125 -56l30 41h97l-109 -476h-85l-12 45q-57 -60 -136 -60zM159 576 q8 48 37.5 84t77.5 36q31 0 59 -20.5t42 -20.5q26 0 31 31l89 -17q-5 -49 -31.5 -84.5t-72.5 -35.5q-29 0 -58 20t-42 20q-14 0 -24.5 -10t-14.5 -26z"/>
<glyph glyph-name="adieresis" horiz-adv-x="512" unicode="ä" d="M112 207q0 -55 23.5 -83.5t59.5 -28.5q52 0 96.5 50.5t44.5 125.5q0 53 -23.5 80t-60.5 27q-53 0 -96.5 -47t-43.5 -124zM160 -15q-78 0 -121.5 57t-43.5 143q0 73 30 142t90 116.5t135 47.5q87 0 125 -56l30 41h97l-109 -476h-85l-12 45q-57 -60 -136 -60zM413 549 q-28 0 -48 20t-20 48q0 30 22 51.5t51 21.5q27 0 46.5 -20.5t19.5 -48.5q0 -30 -21 -51t-50 -21zM222 549q-28 0 -48 20t-20 48q0 30 22 51.5t51 21.5q27 0 46.5 -20.5t19.5 -48.5q0 -30 -21 -51t-50 -21z"/>
<glyph glyph-name="aring" horiz-adv-x="512" unicode="å" d="M112 207q0 -55 23.5 -83.5t59.5 -28.5q52 0 96.5 50.5t44.5 125.5q0 53 -23.5 80t-60.5 27q-53 0 -96.5 -47t-43.5 -124zM160 -15q-78 0 -121.5 57t-43.5 143q0 73 30 142t90 116.5t135 47.5q87 0 125 -56l30 41h97l-109 -476h-85l-12 45q-57 -60 -136 -60zM347 724 q-23 0 -37 -15t-14 -36q0 -22 14 -37.5t37 -15.5q22 0 35.5 15.5t13.5 37.5q0 21 -13.5 36t-35.5 15zM347 549q-51 0 -87.5 36t-36.5 88q0 51 36.5 87t87.5 36t87 -36t36 -87t-36 -87.5t-87 -36.5z"/>
<glyph glyph-name="ae" horiz-adv-x="757" unicode="æ" d="M256 216q-18 -4 -53.5 -10t-53 -10.5t-39.5 -12.5t-31.5 -20.5t-9.5 -30.5q0 -22 14.5 -34t38.5 -12q43 0 84 35t50 95zM397 286h207q3 15 3 27q0 36 -23.5 56t-58.5 20q-41 0 -77.5 -27.5t-50.5 -75.5zM725 306q0 -47 -22 -111h-316q2 -47 31.5 -74.5t68.5 -27.5 q32 0 61 18t46 52l91 -62q-39 -58 -94 -87t-111 -29q-119 0 -177 120q-88 -120 -203 -120q-74 0 -110 42t-36 98q0 106 127 138q18 5 51 10t56.5 10t48 12.5t37.5 20t13 30.5q0 42 -63 42q-64 0 -115 -58l-74 68q85 93 201 93q93 0 139 -54q71 54 160 54q80 0 135 -48 t55 -137z"/>
<glyph glyph-name="ccedilla" horiz-adv-x="447" unicode="ç" d="M157 -78l-70 -165l-112 58l94 150zM441 373l-102 -55q-30 62 -89 62q-52 0 -94.5 -47.5t-42.5 -118.5q0 -56 27.5 -88.5t67.5 -32.5q29 0 56 19t45 54l96 -65q-39 -57 -94 -86.5t-113 -29.5q-85 0 -144 60t-59 165q0 125 81 203t183 78q59 0 108 -30t74 -88z"/>
<glyph glyph-name="egrave" horiz-adv-x="481" unicode="è" d="M121 286h207q3 15 3 27q0 36 -23.5 56t-56.5 20q-42 0 -78.5 -27t-51.5 -76zM427 195h-316q2 -47 31.5 -74.5t68.5 -27.5q32 0 61 18t46 52l91 -62q-38 -57 -93 -86.5t-113 -29.5q-86 0 -147 61.5t-61 169.5q0 86 40.5 150.5t99.5 94.5t125 30q80 0 134.5 -48t54.5 -137 q0 -47 -22 -111zM289 540l-96 208l119 50l78 -220z"/>
<glyph glyph-name="eacute" horiz-adv-x="481" unicode="é" d="M121 286h207q3 15 3 27q0 36 -23.5 56t-56.5 20q-42 0 -78.5 -27t-51.5 -76zM427 195h-316q2 -47 31.5 -74.5t68.5 -27.5q32 0 61 18t46 52l91 -62q-38 -57 -93 -86.5t-113 -29.5q-86 0 -147 61.5t-61 169.5q0 86 40.5 150.5t99.5 94.5t125 30q80 0 134.5 -48t54.5 -137 q0 -47 -22 -111zM235 609l154 179l90 -81l-165 -168z"/>
<glyph glyph-name="ecircumflex" horiz-adv-x="481" unicode="ê" d="M121 286h207q3 15 3 27q0 36 -23.5 56t-56.5 20q-42 0 -78.5 -27t-51.5 -76zM427 195h-316q2 -47 31.5 -74.5t68.5 -27.5q32 0 61 18t46 52l91 -62q-38 -57 -93 -86.5t-113 -29.5q-86 0 -147 61.5t-61 169.5q0 86 40.5 150.5t99.5 94.5t125 30q80 0 134.5 -48t54.5 -137 q0 -47 -22 -111zM101 550l186 165h71l109 -165h-118l-41 61l-63 -61h-144z"/>
<glyph glyph-name="edieresis" horiz-adv-x="481" unicode="ë" d="M121 286h207q3 15 3 27q0 36 -23.5 56t-56.5 20q-42 0 -78.5 -27t-51.5 -76zM427 195h-316q2 -47 31.5 -74.5t68.5 -27.5q32 0 61 18t46 52l91 -62q-38 -57 -93 -86.5t-113 -29.5q-86 0 -147 61.5t-61 169.5q0 86 40.5 150.5t99.5 94.5t125 30q80 0 134.5 -48t54.5 -137 q0 -47 -22 -111zM400 550q-28 0 -48 20t-20 48q0 30 22 51.5t51 21.5q27 0 46.5 -20.5t19.5 -48.5q0 -30 -21 -51t-50 -21zM209 550q-28 0 -48 20t-20 48q0 30 22 51.5t51 21.5q27 0 46.5 -20.5t19.5 -48.5q0 -30 -21 -51t-50 -21z"/>
<glyph glyph-name="igrave" horiz-adv-x="229" unicode="ì" d="M87 476h117l-110 -476h-117zM130 539l-96 208l119 50l78 -220z"/>
<glyph glyph-name="iacute" horiz-adv-x="229" unicode="í" d="M87 476h117l-110 -476h-117zM79 609l154 179l90 -81l-165 -168z"/>
<glyph glyph-name="icircumflex" horiz-adv-x="229" unicode="î" d="M87 476h117l-110 -476h-117zM-44 551l186 165h71l109 -165h-118l-41 61l-63 -61h-144z"/>
<glyph glyph-name="idieresis" horiz-adv-x="229" unicode="ï" d="M87 476h117l-110 -476h-117zM249 551q-28 0 -48 20t-20 48q0 30 22 51.5t51 21.5q27 0 46.5 -20.5t19.5 -48.5q0 -30 -21 -51t-50 -21zM58 551q-28 0 -48 20t-20 48q0 30 22 51.5t51 21.5q27 0 46.5 -20.5t19.5 -48.5q0 -30 -21 -51t-50 -21z"/>
<glyph glyph-name="eth" horiz-adv-x="571" unicode="ð" d="M223 104q60 0 116 46t71 123q-57 69 -141 69q-59 0 -100 -36t-41 -99q0 -50 27 -76.5t68 -26.5zM478 719l-41 -77q56 -36 88.5 -100.5t32.5 -151.5q0 -101 -30 -181.5t-79.5 -128.5t-108 -73.5t-118.5 -25.5q-94 0 -159.5 59.5t-65.5 164.5q0 117 81 184.5t189 67.5 q101 0 173 -57v8q0 90 -57 134l-24 -45h-72l37 71q-6 1 -19 1q-68 0 -122 -60l-67 87q89 83 194 83q36 0 67 -10l26 50h75z"/>
<glyph glyph-name="ntilde" horiz-adv-x="511" unicode="ñ" d="M-21 0l110 476h83l10 -41q25 26 64.5 41t79.5 15q56 0 94 -31.5t38 -94.5q0 -27 -7 -55l-71 -310h-117l65 282q4 16 4 32q0 32 -16.5 48t-42.5 16q-35 0 -68.5 -27.5t-44.5 -73.5l-64 -277h-117zM155 576q8 48 37.5 84t77.5 36q31 0 59 -20.5t42 -20.5q26 0 31 31l89 -17 q-5 -49 -31.5 -84.5t-72.5 -35.5q-29 0 -58 20t-42 20q-14 0 -24.5 -10t-14.5 -26z"/>
<glyph glyph-name="ograve" horiz-adv-x="507" unicode="ò" d="M210 93q60 0 101 54.5t41 118.5q0 49 -27 83t-74 34q-60 0 -101 -54t-41 -118q0 -49 27 -83.5t74 -34.5zM469 269q0 -121 -74 -202.5t-194 -81.5q-94 0 -151.5 64.5t-57.5 156.5q0 123 76.5 204t194.5 81q93 0 149.5 -65t56.5 -157zM294 539l-96 208l119 50l78 -220z"/>
<glyph glyph-name="oacute" horiz-adv-x="507" unicode="ó" d="M210 93q60 0 101 54.5t41 118.5q0 49 -27 83t-74 34q-60 0 -101 -54t-41 -118q0 -49 27 -83.5t74 -34.5zM469 269q0 -121 -74 -202.5t-194 -81.5q-94 0 -151.5 64.5t-57.5 156.5q0 123 76.5 204t194.5 81q93 0 149.5 -65t56.5 -157zM239 608l154 179l90 -81l-165 -168z "/>
<glyph glyph-name="ocircumflex" horiz-adv-x="507" unicode="ô" d="M210 93q60 0 101 54.5t41 118.5q0 49 -27 83t-74 34q-60 0 -101 -54t-41 -118q0 -49 27 -83.5t74 -34.5zM469 269q0 -121 -74 -202.5t-194 -81.5q-94 0 -151.5 64.5t-57.5 156.5q0 123 76.5 204t194.5 81q93 0 149.5 -65t56.5 -157zM97 552l186 165h71l109 -165h-118 l-41 61l-63 -61h-144z"/>
<glyph glyph-name="otilde" horiz-adv-x="507" unicode="õ" d="M210 93q60 0 101 54.5t41 118.5q0 49 -27 83t-74 34q-60 0 -101 -54t-41 -118q0 -49 27 -83.5t74 -34.5zM469 269q0 -121 -74 -202.5t-194 -81.5q-94 0 -151.5 64.5t-57.5 156.5q0 123 76.5 204t194.5 81q93 0 149.5 -65t56.5 -157zM134 576q8 48 37.5 84t77.5 36 q31 0 59 -20.5t42 -20.5q26 0 31 31l89 -17q-5 -49 -31.5 -84.5t-72.5 -35.5q-29 0 -58 20t-42 20q-14 0 -24.5 -10t-14.5 -26z"/>
<glyph glyph-name="odieresis" horiz-adv-x="507" unicode="ö" d="M210 93q60 0 101 54.5t41 118.5q0 49 -27 83t-74 34q-60 0 -101 -54t-41 -118q0 -49 27 -83.5t74 -34.5zM469 269q0 -121 -74 -202.5t-194 -81.5q-94 0 -151.5 64.5t-57.5 156.5q0 123 76.5 204t194.5 81q93 0 149.5 -65t56.5 -157zM400 549q-28 0 -48 20t-20 48 q0 30 22 51.5t51 21.5q27 0 46.5 -20.5t19.5 -48.5q0 -30 -21 -51t-50 -21zM209 549q-28 0 -48 20t-20 48q0 30 22 51.5t51 21.5q27 0 46.5 -20.5t19.5 -48.5q0 -30 -21 -51t-50 -21z"/>
<glyph glyph-name="divide" horiz-adv-x="409" unicode="÷" d="M155 34q-32 0 -55 22.5t-23 53.5q0 33 25 57.5t58 24.5q31 0 53 -23t22 -55q0 -33 -24 -56.5t-56 -23.5zM25 356h378l-26 -113h-378zM240 404q-32 0 -55 22.5t-23 53.5q0 33 25 57.5t58 24.5q31 0 53 -23t22 -55q0 -33 -24 -56.5t-56 -23.5z"/>
<glyph glyph-name="oslash" horiz-adv-x="513" unicode="ø" d="M230 93q60 0 101 54.5t41 118.5q0 47 -24 80l-144 -250q12 -3 26 -3zM129 211q0 -48 25 -82l144 250q-11 4 -27 4q-60 0 -101 -54t-41 -118zM467 552l-59 -102q81 -65 81 -181q0 -121 -74 -202.5t-194 -81.5q-41 0 -74 12l-37 -64h-69l54 93q-39 31 -61 78.5t-22 101.5 q0 123 76.5 204t194.5 81q40 0 73 -12l42 73h69z"/>
<glyph glyph-name="ugrave" horiz-adv-x="501" unicode="ù" d="M480 476l-110 -476h-86l-10 38q-18 -16 -32 -26t-40 -18.5t-57 -8.5q-72 0 -107 40t-35 104q0 32 7 61l66 286h116l-63 -276q-5 -23 -5 -38q0 -34 16.5 -51.5t42.5 -17.5q36 0 71.5 31t46.5 82l61 270h118zM263 538l-96 208l119 50l78 -220z"/>
<glyph glyph-name="uacute" horiz-adv-x="501" unicode="ú" d="M480 476l-110 -476h-86l-10 38q-18 -16 -32 -26t-40 -18.5t-57 -8.5q-72 0 -107 40t-35 104q0 32 7 61l66 286h116l-63 -276q-5 -23 -5 -38q0 -34 16.5 -51.5t42.5 -17.5q36 0 71.5 31t46.5 82l61 270h118zM211 611l154 179l90 -81l-165 -168z"/>
<glyph glyph-name="ucircumflex" horiz-adv-x="501" unicode="û" d="M480 476l-110 -476h-86l-10 38q-18 -16 -32 -26t-40 -18.5t-57 -8.5q-72 0 -107 40t-35 104q0 32 7 61l66 286h116l-63 -276q-5 -23 -5 -38q0 -34 16.5 -51.5t42.5 -17.5q36 0 71.5 31t46.5 82l61 270h118zM101 552l186 165h71l109 -165h-118l-41 61l-63 -61h-144z"/>
<glyph glyph-name="udieresis" horiz-adv-x="501" unicode="ü" d="M480 476l-110 -476h-86l-10 38q-18 -16 -32 -26t-40 -18.5t-57 -8.5q-72 0 -107 40t-35 104q0 32 7 61l66 286h116l-63 -276q-5 -23 -5 -38q0 -34 16.5 -51.5t42.5 -17.5q36 0 71.5 31t46.5 82l61 270h118zM397 551q-28 0 -48 20t-20 48q0 30 22 51.5t51 21.5 q27 0 46.5 -20.5t19.5 -48.5q0 -30 -21 -51t-50 -21zM206 551q-28 0 -48 20t-20 48q0 30 22 51.5t51 21.5q27 0 46.5 -20.5t19.5 -48.5q0 -30 -21 -51t-50 -21z"/>
<glyph glyph-name="yacute" horiz-adv-x="527" unicode="ý" d="M31 198l63 278h117l-59 -261q-4 -17 -4 -35q0 -38 20 -58.5t51 -20.5q39 0 74 30t48 85l59 260h117l-107 -470q-24 -106 -103.5 -164t-172.5 -58q-77 0 -134 40.5t-70 114.5l114 24q8 -36 35 -55t66 -19q53 0 99 36.5t63 113.5q-61 -46 -136 -46q-62 0 -104.5 39.5 t-42.5 109.5q0 21 7 56zM245 608l154 179l90 -81l-165 -168z"/>
<glyph glyph-name="thorn" horiz-adv-x="548" unicode="þ" d="M187 329h152q53 0 83 31t30 72q0 33 -19 53.5t-55 20.5h-151zM252 614h160q81 0 124.5 -49t43.5 -121q0 -88 -65.5 -156t-179.5 -68h-173l-50 -220h-126l160 699h126z"/>
<glyph glyph-name="OE" horiz-adv-x="806" unicode="Œ" d="M305 114l99 432h-7q-80 0 -140.5 -41.5t-88.5 -100.5t-28 -122q0 -72 39 -120t110 -48h16zM693 0h-405q-122 2 -198.5 80t-76.5 205q0 92 38 168.5t102 126.5q92 72 244 79h447l-26 -109h-288l-37 -162h230l-25 -110h-230l-37 -167h288z"/>
<glyph glyph-name="oe" horiz-adv-x="832" unicode="œ" d="M213 93q60 0 101 54.5t41 118.5q0 49 -27 83t-74 34q-60 0 -101 -54t-41 -118q0 -49 27 -83.5t74 -34.5zM472 286h207q3 15 3 27q0 36 -23.5 56t-56.5 20q-42 0 -78.5 -27t-51.5 -76zM800 306q0 -47 -22 -111h-316q2 -47 31.5 -74.5t68.5 -27.5q32 0 61 18t46 52l91 -62 q-38 -57 -93 -86.5t-113 -29.5q-99 0 -160 76q-76 -76 -190 -76q-95 0 -153.5 64.5t-58.5 156.5q0 123 78 204t196 81q100 0 159 -74q79 74 186 74q80 0 134.5 -48t54.5 -137z"/>
<glyph glyph-name="Scaron" horiz-adv-x="458" unicode="Š" d="M78 199q-1 -48 28.5 -73.5t68.5 -25.5q36 0 61.5 21.5t25.5 58.5q0 8 -1.5 15t-3 13t-5.5 13.5t-6.5 12t-9.5 12.5t-10 12t-12 12.5t-12.5 12t-14.5 13.5t-15 13q-46 42 -72 83.5t-26 98.5q0 87 61.5 137.5t143.5 50.5q64 0 114.5 -32.5t64.5 -92.5l-116 -48 q-4 28 -24 44t-45 16q-26 0 -45 -18t-19 -48q0 -8 1.5 -15.5t5 -15.5t6.5 -13.5t10 -14t10.5 -13t13 -13.5t13.5 -12.5t15.5 -13.5t14.5 -13q47 -42 74 -86t27 -105q0 -95 -67.5 -149.5t-159.5 -54.5q-85 0 -149 48.5t-75 138.5zM517 878l-186 -165h-71l-109 165h118l41 -61 l63 61h144z"/>
<glyph glyph-name="scaron" horiz-adv-x="397" unicode="š" d="M277 345q-9 21 -29 33t-41 12q-20 0 -34 -11t-14 -31q0 -16 13 -31t23 -21l40 -24q48 -28 74 -57.5t26 -74.5q0 -67 -56.5 -111t-133.5 -44q-65 0 -121 34.5t-84 102.5l111 53q15 -44 44 -67.5t58 -23.5q22 0 37 12.5t15 32.5q0 29 -41 52q-48 27 -70 42t-40.5 43.5 t-18.5 66.5q0 72 52 115t124 43q102 0 162 -75zM468 716l-186 -165h-71l-109 165h118l41 -61l63 61h144z"/>
<glyph glyph-name="Ydieresis" horiz-adv-x="618" unicode="Ÿ" d="M530 659h162l-344 -383l-63 -276h-124l65 284l-156 375h145l98 -254zM471 711q-28 0 -48 20t-20 48q0 30 22 51.5t51 21.5q27 0 46.5 -20.5t19.5 -48.5q0 -30 -21 -51t-50 -21zM280 711q-28 0 -48 20t-20 48q0 30 22 51.5t51 21.5q27 0 46.5 -20.5t19.5 -48.5 q0 -30 -21 -51t-50 -21z"/>
<glyph glyph-name="circumflex" horiz-adv-x="341" unicode="ˆ" d="M42 622l186 165h71l109 -165h-118l-41 61l-63 -61h-144z"/>
<glyph glyph-name="tilde" horiz-adv-x="313" unicode="˜" d="M83 672q8 48 37.5 84t77.5 36q31 0 59 -20.5t42 -20.5q26 0 31 31l89 -17q-5 -49 -31.5 -84.5t-72.5 -35.5q-29 0 -58 20t-42 20q-14 0 -24.5 -10t-14.5 -26z"/>
<glyph glyph-name="Delta" horiz-adv-x="680" unicode="Δ" d="M136 114h320l-72 378zM617 0h-710l445 659h124z"/>
<glyph glyph-name="mu" horiz-adv-x="486" unicode="μ" d="M372 0h-86l-10 38q-18 -16 -32 -26t-40 -18.5t-57 -8.5q-35 0 -63 11l-45 -197l-116 1l155 676h116l-58 -254q-10 -44 -10 -69q0 -21 5 -30q13 -30 53 -30q45 0 78.5 41.5t47.5 101.5l54 240h118z"/>
<glyph glyph-name="pi" horiz-adv-x="554" unicode="π" d="M499 368h-61l-40 -173q-7 -33 -7 -45q0 -19 11 -27q10 -7 25 -7q27 0 51 17l-30 -127q-28 -14 -73 -14q-63 0 -90 41q-16 24 -16 63q0 34 14 93l41 179h-115l-85 -368h-114l85 368h-61l25 108h465z"/>
<glyph glyph-name="endash" horiz-adv-x="507" unicode="–" d="M25 348h476l-26 -113h-476z"/>
<glyph glyph-name="emdash" horiz-adv-x="707" unicode="—" d="M25 348h676l-26 -113h-676z"/>
<glyph glyph-name="quoteleft" horiz-adv-x="173" unicode="‘" d="M141 580q23 -1 43.5 -19t20.5 -46q0 -38 -23 -59.5t-57 -21.5q-32 0 -54.5 26t-22.5 64q0 68 56 126t152 66l-13 -61q-36 -4 -66 -23.5t-36 -51.5z"/>
<glyph glyph-name="quotesinglbase" horiz-adv-x="205" unicode="‚" d="M22 -2q-23 1 -43.5 19t-20.5 46q0 38 23 59.5t57 21.5q32 0 54.5 -26t22.5 -64q0 -68 -56 -126t-152 -66l13 61q36 4 66 23.5t36 51.5z"/>
<glyph glyph-name="quotedblleft" horiz-adv-x="363" unicode="“" d="M351 580q23 -1 43.5 -19t20.5 -46q0 -38 -23 -59.5t-57 -21.5q-32 0 -54.5 26t-22.5 64q0 68 56 126t152 66l-13 -61q-36 -4 -66 -23.5t-36 -51.5zM151 580q23 -1 43.5 -19t20.5 -46q0 -38 -23 -59.5t-57 -21.5q-32 0 -54.5 26t-22.5 64q0 68 56 126t152 66l-13 -61 q-36 -4 -66 -23.5t-36 -51.5z"/>
<glyph glyph-name="quotedblright" horiz-adv-x="363" unicode="”" d="M330 525q-23 1 -43.5 19t-20.5 46q0 38 23 59.5t57 21.5q32 0 54.5 -25.5t22.5 -64.5q0 -68 -56 -126t-152 -66l13 61q36 4 66 23.5t36 51.5zM130 525q-23 1 -43.5 19t-20.5 46q0 38 23 59.5t57 21.5q32 0 54.5 -25.5t22.5 -64.5q0 -68 -56 -126t-152 -66l13 61 q36 4 66 23.5t36 51.5z"/>
<glyph glyph-name="dagger" horiz-adv-x="409" unicode="†" d="M294 483h135l-25 -108h-135l-86 -375h-114l86 375h-135l25 108h135l43 190h114z"/>
<glyph glyph-name="daggerdbl" horiz-adv-x="443" unicode="‡" d="M294 332h135l-25 -108h-135l-52 -224h-114l52 224h-135l25 108h135l9 43h-135l25 108h135l44 190h114l-44 -190h135l-25 -108h-135z"/>
<glyph glyph-name="ellipsis" horiz-adv-x="656" unicode="…" d="M496 -11q-32 0 -55 22.5t-23 53.5q0 33 25 57.5t58 24.5q31 0 53 -23t22 -55q0 -33 -24 -56.5t-56 -23.5zM276 -11q-32 0 -55 22.5t-23 53.5q0 33 25 57.5t58 24.5q31 0 53 -23t22 -55q0 -33 -24 -56.5t-56 -23.5zM56 -11q-32 0 -55 22.5t-23 53.5q0 33 25 57.5t58 24.5 q31 0 53 -23t22 -55q0 -33 -24 -56.5t-56 -23.5z"/>
<glyph glyph-name="perthousand" horiz-adv-x="1005" unicode="‰" d="M853 57q29 0 49.5 20.5t20.5 53.5t-20.5 53.5t-49.5 20.5t-49.5 -20.5t-20.5 -53.5t20.5 -53.5t49.5 -20.5zM513 57q29 0 49.5 20.5t20.5 53.5t-20.5 53.5t-49.5 20.5t-49.5 -20.5t-20.5 -53.5t20.5 -53.5t49.5 -20.5zM853 281q65 0 108.5 -42.5t43.5 -107.5 t-43.5 -107.5t-108.5 -42.5t-108.5 42.5t-43.5 107.5t43.5 107.5t108.5 42.5zM513 281q65 0 108.5 -42.5t43.5 -107.5t-43.5 -107.5t-108.5 -42.5t-108.5 42.5t-43.5 107.5t43.5 107.5t108.5 42.5zM215 455q29 0 49.5 20.5t20.5 53.5t-20.5 53.5t-49.5 20.5t-49.5 -20.5 t-20.5 -53.5t20.5 -53.5t49.5 -20.5zM451 580q65 0 144 79h75l-535 -659h-75l448 552q-31 -21 -70 -21q-48 0 -79 28q3 -12 3 -30q0 -66 -41 -108t-106 -42t-108.5 42t-43.5 107t43.5 108t105.5 43q34 0 68 -15.5t57 -34t54 -34t60 -15.5z"/>
<glyph glyph-name="guilsinglleft" horiz-adv-x="249" unicode="‹" d="M153 38l-163 182l22 98l247 183l-38 -161l-120 -77l84 -82z"/>
<glyph glyph-name="guilsinglright" horiz-adv-x="248" unicode="›" d="M96 501l162 -183l-23 -98l-245 -182l35 154l118 80l-81 86z"/>
<glyph glyph-name="fraction" horiz-adv-x="469" unicode="⁄" d="M486 673h77l-546 -673h-77z"/>
<glyph glyph-name="Euro" horiz-adv-x="513" unicode="€" d="M445 123l-31 -133q-38 -9 -76 -9q-109 0 -186.5 72.5t-83.5 208.5h-65l10 46h57q2 20 6 42h-53l10 45h51q25 95 85.5 161t131.5 94.5t149 28.5q62 0 119 -19l-33 -133q-37 34 -98 34q-68 0 -130 -43.5t-85 -122.5h275l-10 -45h-279q-5 -17 -7 -42h276l-10 -46h-269 q1 -77 43.5 -120t105.5 -43q47 0 97 24z"/>
<glyph glyph-name="trademark" horiz-adv-x="446" unicode="™" d="M381 473h-31l-32 111l-37 -165h-44l57 254h48l38 -138l101 138h48l-57 -254h-44l37 165zM255 673l-9 -41h-76l-48 -213h-44l48 213h-76l9 41h196z"/>
<glyph glyph-name="partialdiff" horiz-adv-x="564" unicode="∂" d="M131 204q0 -47 26 -76t75 -29q65 0 116 52t65 122q-56 68 -142 68q-63 0 -101.5 -39.5t-38.5 -97.5zM443 400q1 65 -36 114.5t-101 49.5q-63 0 -114 -51l-73 83q90 82 199 82q112 0 178 -91q58 -82 58 -211q0 -116 -51.5 -216t-146.5 -147q-65 -32 -136 -32 q-99 0 -159.5 64t-60.5 159q0 113 84 184t193 71q93 0 166 -59z"/>
<glyph glyph-name="product" horiz-adv-x="589" unicode="∏" d="M-14 0l152 659h465l-152 -659h-123l125 541h-219l-125 -541h-123z"/>
<glyph glyph-name="summation" horiz-adv-x="542" unicode="∑" d="M258 545l136 -227l-218 -204h280l-26 -114h-470l22 94l249 235l-141 236l22 94h470l-26 -114h-298z"/>
<glyph glyph-name="minus" horiz-adv-x="409" unicode="−" d="M25 348h378l-26 -113h-378z"/>
<glyph glyph-name="radical" horiz-adv-x="585" unicode="√" d="M26 196l-36 103l196 80l63 -195l266 475h130l-374 -659h-86l-79 229z"/>
<glyph glyph-name="infinity" horiz-adv-x="672" unicode="∞" d="M388 255q0 -33 17 -51t47 -18q42 0 70 33t28 77q0 30 -15 48t-45 18q-41 0 -71.5 -30.5t-30.5 -76.5zM274 293q0 33 -18 51t-48 18q-42 0 -69 -33t-27 -77q0 -66 58 -66q41 0 72.5 30.5t31.5 76.5zM435 58q-55 0 -87.5 27.5t-43.5 72.5q-27 -44 -72.5 -72t-96.5 -28 q-66 0 -105.5 48t-39.5 132q0 112 66.5 182t161.5 70q102 0 139 -100q28 45 73 72.5t97 27.5q68 0 106.5 -46.5t38.5 -122.5q0 -114 -77 -193q-68 -70 -160 -70z"/>
<glyph glyph-name="approxequal" horiz-adv-x="485" unicode="≈" d="M416 294l59 -63q-19 -42 -55.5 -71.5t-85.5 -29.5q-37 0 -95.5 27t-84.5 27q-46 0 -83 -46l-58 62q18 43 55 72.5t85 29.5q37 0 95.5 -27t85.5 -27q46 0 82 46zM413 483l59 -62q-18 -43 -55 -72.5t-86 -29.5q-37 0 -95.5 27t-84.5 27q-46 0 -82 -46l-59 63q18 42 55 71.5 t85 29.5q37 0 96 -27t85 -27q46 0 82 46z"/>
<glyph glyph-name="notequal" horiz-adv-x="439" unicode="≠" d="M374 198h-182l-44 -130h-47l44 130h-147l26 113h160l17 52h-165l26 113h178l46 134h47l-46 -134h151l-26 -113h-164l-17 -52h169z"/>
<glyph glyph-name="lessequal" horiz-adv-x="346" unicode="≤" d="M2 113h238l-26 -113h-238zM252 163l-203 209l25 107l299 210l-40 -176l-147 -97l102 -95z"/>
<glyph glyph-name="greaterequal" horiz-adv-x="310" unicode="≥" d="M2 113h238l-26 -113h-238zM134 689l203 -210l-24 -107l-299 -209l39 169l150 100l-104 99z"/>
<glyph glyph-name="lozenge" horiz-adv-x="511" unicode="◊" d="M392 340l-84 180l-181 -199l80 -186zM283 659h96l152 -331l-292 -328h-106l-143 330z"/>
</font>
</defs>
</svg>
